{"glyphs":{"0":{"ha":682,"x_min":69,"x_max":613,"o":"m 196 205 q 222 152 196 205 q 347 100 249 100 q 492 200 446 100 q 539 468 539 300 q 485 769 539 663 q 333 875 432 875 q 189 774 235 875 q 143 506 143 674 q 196 205 143 310 m 544 803 q 578 743 544 803 q 613 486 613 683 q 544 171 613 289 q 340 53 475 53 q 138 171 206 53 q 69 486 69 289 q 138 803 69 683 q 340 922 206 922 q 544 803 475 922 z "},"1":{"ha":419,"x_min":56,"x_max":364,"o":"m 57 69 q 56 83 56 75 q 61 99 56 90 q 152 118 128 106 q 176 161 176 131 l 176 826 l 58 813 q 60 831 58 826 q 226 918 183 899 l 243 911 l 243 126 q 364 99 300 100 q 360 69 364 82 l 57 69 z "},"2":{"ha":606,"x_min":42,"x_max":522,"o":"m 353 132 q 457 163 426 132 q 499 271 488 193 q 522 265 511 271 q 507 69 522 164 l 51 69 q 42 122 42 99 q 302 431 214 313 q 411 600 390 549 q 432 717 432 651 q 390 831 432 782 q 282 879 349 879 q 172 842 215 879 q 107 722 128 806 q 85 725 92 722 q 92 865 85 814 q 295 922 196 922 q 453 864 394 922 q 511 710 511 806 q 446 523 511 614 q 136 164 381 432 q 107 132 117 143 l 353 132 z "},"3":{"ha":617,"x_min":56,"x_max":533,"o":"m 213 517 q 366 578 304 517 q 428 721 428 640 q 294 879 428 879 q 181 842 225 879 q 117 722 138 806 q 94 725 101 722 q 101 865 94 814 q 300 922 206 922 q 449 870 394 922 q 503 733 503 818 q 449 585 503 649 q 317 500 396 522 q 480 419 426 479 q 533 265 533 358 q 457 112 533 172 q 268 51 381 51 q 56 135 156 51 q 75 164 63 156 q 247 106 149 106 q 401 151 344 106 q 458 281 458 197 q 213 482 458 460 l 213 517 z "},"4":{"ha":644,"x_min":42,"x_max":603,"o":"m 404 356 l 404 782 l 104 356 l 404 356 m 472 307 l 472 121 q 565 99 519 100 q 561 69 565 82 l 314 69 q 317 99 311 86 q 386 118 368 106 q 404 161 404 131 l 404 307 l 68 307 q 42 351 50 325 l 433 917 l 472 917 l 472 356 l 596 356 q 603 324 603 336 q 601 307 603 313 l 472 307 z "},"5":{"ha":668,"x_min":69,"x_max":585,"o":"m 164 521 q 347 603 253 603 q 513 538 440 603 q 585 358 585 472 q 496 148 585 243 q 287 53 407 53 q 69 135 167 53 q 90 167 74 153 q 272 107 169 107 q 442 177 375 107 q 510 344 510 247 q 463 492 510 442 q 332 543 415 543 q 136 460 249 543 l 113 471 l 154 890 l 424 890 q 540 942 518 890 q 565 939 557 942 q 538 826 557 876 l 200 826 l 164 521 z "},"6":{"ha":639,"x_min":83,"x_max":569,"o":"m 158 358 q 201 179 158 251 q 321 107 243 107 q 449 166 399 107 q 499 322 499 225 q 463 476 499 419 q 360 532 428 532 q 163 432 242 532 q 158 358 158 397 m 385 592 q 518 517 467 592 q 569 331 569 442 q 489 138 569 221 q 308 54 408 54 q 146 139 208 54 q 83 375 83 224 q 118 572 83 478 q 240 760 153 667 q 458 914 326 853 q 481 882 478 899 q 172 490 226 747 q 248 560 207 536 q 316 588 289 583 q 385 592 343 592 z "},"7":{"ha":557,"x_min":40,"x_max":536,"o":"m 197 840 q 97 824 122 840 q 63 751 71 807 q 40 757 51 751 q 56 904 40 832 l 510 904 q 536 856 531 882 l 208 69 q 189 68 199 68 l 142 78 l 418 697 l 489 840 l 197 840 z "},"8":{"ha":719,"x_min":106,"x_max":624,"o":"m 350 103 q 509 148 454 103 q 564 269 564 193 q 494 403 564 353 q 357 474 446 438 q 213 364 256 410 q 171 261 171 318 q 226 141 171 179 q 350 103 281 103 m 183 718 q 378 529 183 606 q 505 623 468 582 q 542 723 542 664 q 498 826 542 782 q 368 871 454 871 q 233 831 282 871 q 183 718 183 792 m 624 276 q 541 122 624 190 q 352 54 458 54 q 176 111 246 54 q 106 245 106 168 q 156 376 106 322 q 313 492 206 431 q 175 581 233 524 q 117 708 117 639 q 202 860 117 800 q 386 919 288 919 q 545 863 485 919 q 606 733 606 806 q 560 613 606 660 q 421 511 515 567 q 624 276 624 426 z "},"9":{"ha":639,"x_min":69,"x_max":556,"o":"m 279 443 q 476 543 397 443 q 481 617 481 578 q 438 796 481 724 q 318 868 396 868 q 190 809 240 868 q 140 653 140 750 q 176 499 140 556 q 279 443 211 443 m 69 644 q 69 699 69 644 q 150 838 69 754 q 331 921 231 921 q 493 836 431 921 q 556 600 556 751 q 521 403 556 497 q 399 215 486 308 q 181 61 313 122 q 158 93 161 76 q 467 485 413 228 q 391 415 432 439 q 323 388 350 392 q 254 383 296 383 q 121 458 172 383 q 69 644 69 533 z "},"\u0000":{"ha":0,"x_min":0,"x_max":0,"o":""},"\r":{"ha":347,"x_min":0,"x_max":0,"o":""}," ":{"ha":347,"x_min":0,"x_max":0,"o":""},"!":{"ha":658,"x_min":233,"x_max":357,"o":"m 260 981 l 329 957 l 321 276 l 317 276 l 272 299 l 254 981 l 260 981 m 357 129 q 357 116 357 129 q 339 85 357 103 q 294 68 321 68 q 251 85 268 68 q 233 129 233 103 q 251 174 233 156 q 294 192 268 192 q 338 174 319 192 q 357 129 357 156 z "},"\"":{"ha":472,"x_min":93,"x_max":354,"o":"m 93 1164 l 189 1164 l 165 942 l 117 942 l 93 1164 m 258 1164 l 354 1164 l 331 942 l 282 942 l 258 1164 z "},"#":{"ha":1074,"x_min":94,"x_max":1006,"o":"m 654 408 l 707 686 l 428 686 l 375 408 l 654 408 m 1006 686 l 768 686 l 715 408 l 924 408 l 924 349 l 703 349 l 650 69 l 589 69 l 643 349 l 363 349 l 310 69 l 249 69 l 303 349 l 94 349 l 94 408 l 314 408 l 367 686 l 176 686 l 176 746 l 379 746 l 432 1022 l 492 1022 l 439 746 l 719 746 l 772 1022 l 832 1022 l 779 746 l 1006 746 l 1006 686 z "},"$":{"ha":750,"x_min":96,"x_max":650,"o":"m 597 842 q 400 922 528 922 q 276 878 329 922 q 222 750 222 833 q 283 636 222 676 q 356 597 311 617 q 430 564 400 578 q 485 538 460 550 q 547 501 510 525 q 603 453 585 476 q 650 303 650 392 q 585 156 650 215 q 425 89 521 97 l 425 6 l 376 6 l 376 89 q 212 138 286 94 q 96 226 138 182 l 138 279 q 399 138 242 138 q 528 183 474 138 q 583 306 583 229 q 544 422 583 383 q 369 524 500 467 q 225 606 258 572 q 169 685 178 653 q 161 747 161 717 q 228 907 161 847 q 388 971 296 967 l 388 1050 l 436 1050 l 436 969 q 629 886 557 958 l 597 842 z "},"%":{"ha":1174,"x_min":144,"x_max":1032,"o":"m 360 69 l 283 69 l 811 986 l 886 986 l 360 69 m 210 761 q 239 622 210 675 q 317 569 268 569 q 394 620 365 569 q 424 761 424 671 q 315 946 424 946 q 210 761 210 946 m 144 763 q 144 812 144 763 q 188 929 144 861 q 316 997 231 997 q 445 928 401 997 q 489 758 489 860 q 447 588 489 657 q 319 518 404 518 q 190 591 235 518 q 144 763 144 664 m 753 297 q 782 159 753 211 q 860 107 811 107 q 938 158 908 107 q 967 297 967 208 q 858 483 967 483 q 753 297 753 483 m 688 300 q 688 349 688 300 q 731 467 688 399 q 859 535 774 535 q 988 466 944 535 q 1032 296 1032 397 q 990 125 1032 194 q 863 56 947 56 q 733 128 778 56 q 688 300 688 201 z "},"&":{"ha":889,"x_min":69,"x_max":881,"o":"m 361 101 q 578 229 486 101 q 299 499 397 386 q 142 346 167 401 q 131 290 131 319 q 199 152 131 203 q 361 101 268 101 m 328 561 q 461 757 461 661 q 422 844 461 807 q 329 881 382 881 q 222 769 222 881 q 328 561 222 694 m 332 51 q 151 115 232 51 q 69 276 69 178 q 96 367 69 325 q 153 433 122 408 q 225 488 183 458 q 270 520 267 518 q 278 525 274 522 q 161 757 161 667 q 220 871 161 822 q 349 919 279 919 q 469 875 419 919 q 519 772 519 831 q 490 667 519 714 q 365 549 460 621 l 350 536 q 610 281 440 429 q 704 501 658 364 l 881 501 l 867 456 l 725 456 q 638 257 683 332 q 831 106 767 149 l 774 69 q 606 206 651 167 q 332 51 493 51 z "},"'":{"ha":554,"x_min":247,"x_max":343,"o":"m 247 1164 l 343 1164 l 319 942 l 271 942 l 247 1164 z "},"(":{"ha":525,"x_min":169,"x_max":519,"o":"m 238 569 q 306 216 238 389 q 519 -92 375 43 l 481 -124 q 169 569 169 164 q 481 1238 169 950 l 519 1204 q 238 569 238 942 z "},")":{"ha":499,"x_min":6,"x_max":356,"o":"m 356 569 q 44 -124 356 164 l 6 -92 q 219 216 150 43 q 288 569 288 389 q 6 1204 288 942 l 44 1238 q 356 569 356 950 z "},"*":{"ha":643,"x_min":83,"x_max":467,"o":"m 236 1001 q 274 1013 256 1013 q 308 1008 293 1013 l 300 829 l 444 886 q 460 856 453 879 q 465 818 467 833 l 310 790 l 431 668 q 378 619 418 636 l 278 765 l 190 615 q 131 656 156 621 l 246 789 l 83 819 q 90 858 83 838 q 106 886 97 879 l 258 831 l 236 1001 z "},"+":{"ha":807,"x_min":78,"x_max":731,"o":"m 731 499 l 436 499 l 436 214 l 432 214 l 369 263 l 369 499 l 108 499 l 78 561 l 78 565 l 369 565 l 369 851 l 374 851 l 436 801 l 436 565 l 699 565 l 731 503 l 731 499 z "},",":{"ha":354,"x_min":110,"x_max":249,"o":"m 206 -117 q 164 -179 190 -140 l 122 -160 q 135 -140 125 -157 q 148 -118 144 -124 q 159 -98 151 -112 q 171 -74 167 -83 q 190 8 190 -28 q 110 126 190 86 l 110 131 l 140 185 q 224 117 199 160 q 249 14 249 74 q 206 -117 249 -46 z "},"-":{"ha":738,"x_min":78,"x_max":647,"o":"m 647 499 l 108 499 l 78 561 l 78 565 l 617 565 l 647 503 l 647 499 z "},".":{"ha":414,"x_min":158,"x_max":265,"o":"m 249 84 q 241 76 249 84 q 211 68 233 68 q 174 83 189 68 q 158 122 158 99 q 174 161 158 146 q 211 176 189 176 q 249 160 233 176 q 265 122 265 144 q 249 84 265 100 z "},"/":{"ha":651,"x_min":175,"x_max":475,"o":"m 413 1007 l 475 1007 l 236 63 l 175 63 l 413 1007 z "},":":{"ha":347,"x_min":119,"x_max":228,"o":"m 173 756 q 184 756 173 756 q 212 740 196 756 q 228 701 228 724 q 212 663 228 678 q 173 647 196 647 q 135 663 150 647 q 119 701 119 678 q 135 740 119 724 q 173 756 150 756 m 173 276 q 184 276 173 276 q 212 261 196 276 q 228 223 228 246 q 212 185 228 200 q 173 169 196 169 q 135 185 150 169 q 119 223 119 200 q 135 261 119 246 q 173 276 150 276 z "},";":{"ha":347,"x_min":119,"x_max":275,"o":"m 228 727 q 228 716 228 727 q 212 689 228 704 q 173 674 196 674 q 135 688 150 674 q 119 726 119 703 q 135 765 119 750 q 173 781 150 781 q 212 765 196 781 q 228 727 228 750 m 275 101 q 190 -106 275 19 l 149 -86 q 160 -67 150 -83 q 174 -44 171 -50 q 185 -24 176 -39 q 197 0 193 -10 q 206 24 200 10 q 215 86 215 54 q 136 200 215 161 l 136 206 l 167 258 q 250 190 225 233 q 275 101 275 147 z "},"<":{"ha":850,"x_min":136,"x_max":694,"o":"m 169 478 l 136 533 l 650 797 l 694 740 l 232 507 l 694 299 l 675 251 l 169 478 z "},"=":{"ha":857,"x_min":143,"x_max":715,"o":"m 715 592 l 174 592 l 143 654 l 143 660 l 685 660 l 715 597 l 715 592 m 715 392 l 174 392 l 143 454 l 143 460 l 685 460 l 715 397 l 715 392 z "},">":{"ha":853,"x_min":139,"x_max":697,"o":"m 665 571 l 697 515 l 183 251 l 139 308 l 601 542 l 139 750 l 158 797 l 665 571 z "},"?":{"ha":829,"x_min":161,"x_max":653,"o":"m 424 122 q 415 114 424 122 q 383 106 407 106 q 344 121 360 106 q 329 160 329 136 q 344 200 329 183 q 383 217 360 217 q 424 200 407 217 q 440 160 440 183 q 424 122 440 138 m 593 797 q 535 918 593 875 q 384 961 478 961 q 206 894 290 961 l 161 946 q 372 1022 256 1022 q 571 953 489 1022 q 653 782 653 883 q 414 543 653 624 l 414 367 l 400 367 l 356 388 l 356 588 q 389 601 358 589 q 429 619 419 614 q 467 638 439 624 q 508 660 496 651 q 540 686 519 669 q 569 718 560 703 q 593 797 593 760 z "},"@":{"ha":1163,"x_min":83,"x_max":1079,"o":"m 693 175 l 693 411 q 669 411 681 411 q 495 361 560 411 q 431 228 431 311 q 463 144 431 175 q 543 114 494 114 q 693 175 632 114 m 765 538 l 765 189 q 783 132 765 150 q 840 114 800 114 q 955 199 903 114 q 1007 424 1007 283 q 902 737 1007 614 q 622 860 797 860 q 281 713 407 860 q 156 319 156 565 q 258 17 156 142 q 397 -83 310 -46 q 594 -119 483 -119 q 576 -164 593 -132 q 213 -26 343 -164 q 83 332 83 113 q 233 748 83 586 q 610 910 382 910 q 958 772 838 910 q 1079 424 1079 633 q 1000 154 1079 256 q 833 53 921 53 q 699 140 725 53 q 536 53 615 53 q 407 100 457 53 q 357 222 357 147 q 451 394 357 332 q 644 446 531 446 q 693 443 668 446 l 693 524 q 667 621 693 589 q 582 653 642 653 q 413 608 489 653 l 396 624 q 603 714 489 714 q 721 666 676 714 q 765 538 765 618 z "},"A":{"ha":768,"x_min":-6,"x_max":774,"o":"m 228 386 l 519 386 l 371 833 l 356 772 l 228 386 m 504 69 q 510 99 504 89 q 604 128 575 108 l 532 349 l 215 349 l 139 122 q 240 99 179 104 q 235 69 240 86 l -6 69 q 0 99 -6 85 q 106 172 85 108 l 356 911 q 410 922 374 922 l 657 175 q 774 99 678 107 q 767 69 771 78 l 504 69 z "},"B":{"ha":735,"x_min":42,"x_max":653,"o":"m 201 108 l 375 108 q 526 160 478 108 q 574 293 574 213 q 526 426 574 374 q 375 479 478 479 l 201 479 l 201 108 m 535 692 q 488 819 535 771 q 335 868 440 868 l 201 868 l 201 518 l 406 517 q 535 692 535 558 m 335 904 q 547 843 482 904 q 613 690 613 782 q 574 575 613 624 q 475 504 536 526 q 606 428 558 489 q 653 285 653 368 q 583 136 653 203 q 375 69 513 69 l 44 69 q 47 99 44 92 q 117 118 99 106 q 135 161 135 131 l 135 854 q 42 875 92 874 q 44 904 42 893 l 335 904 z "},"C":{"ha":788,"x_min":78,"x_max":725,"o":"m 725 163 q 459 53 615 53 q 190 170 303 53 q 78 479 78 288 q 201 797 78 671 q 501 922 324 922 q 704 882 611 922 q 685 731 704 806 q 665 732 669 731 q 619 836 665 800 q 503 872 572 872 q 251 765 344 872 q 157 485 157 658 q 248 210 157 313 q 468 108 339 108 q 707 179 597 108 l 725 163 z "},"D":{"ha":775,"x_min":42,"x_max":747,"o":"m 203 108 l 328 108 q 580 212 492 108 q 668 488 668 315 q 580 764 668 660 q 328 868 492 868 l 203 868 l 203 108 m 329 904 q 633 794 519 904 q 747 488 747 685 q 634 180 747 290 q 331 69 521 69 l 46 69 q 49 99 43 86 q 118 118 100 106 q 136 161 136 131 l 136 854 q 42 875 93 874 q 44 904 42 893 l 329 904 z "},"E":{"ha":690,"x_min":43,"x_max":617,"o":"m 206 108 l 460 108 q 553 137 528 108 q 586 239 579 165 q 613 238 604 239 q 617 140 617 182 q 615 69 617 99 l 47 69 q 51 99 44 88 q 121 118 103 106 q 139 161 139 131 l 139 853 q 43 875 97 872 q 47 904 43 896 l 592 904 q 593 835 593 878 q 586 739 593 792 q 563 736 581 736 q 531 839 556 810 q 438 868 506 868 l 206 868 l 206 517 l 446 524 l 482 524 l 482 471 l 446 471 l 206 476 l 206 108 z "},"F":{"ha":647,"x_min":42,"x_max":593,"o":"m 592 904 q 593 835 593 878 q 586 739 593 792 q 563 736 581 736 q 531 839 556 810 q 438 868 506 868 l 206 868 l 206 489 l 425 496 l 468 496 l 468 443 l 425 443 l 206 447 l 206 133 q 343 101 257 114 q 340 69 343 78 l 43 69 q 42 83 42 75 q 46 101 42 92 q 119 122 100 108 q 139 167 139 135 l 139 853 q 43 875 99 872 q 47 904 43 896 l 592 904 z "},"G":{"ha":829,"x_min":78,"x_max":801,"o":"m 800 482 q 801 468 801 476 q 797 451 801 460 q 728 432 746 444 q 710 390 710 419 l 710 69 l 678 69 l 651 124 q 436 53 556 53 q 183 167 288 53 q 78 476 78 281 q 201 797 78 671 q 501 922 324 922 q 704 882 611 922 q 685 731 704 806 q 665 732 671 731 q 619 836 665 800 q 503 872 572 872 q 247 767 338 872 q 157 483 157 661 q 239 206 157 304 q 439 108 321 108 q 644 163 557 108 l 644 428 q 550 451 597 450 q 553 482 550 465 l 800 482 z "},"H":{"ha":842,"x_min":43,"x_max":799,"o":"m 799 99 l 797 69 l 549 69 q 550 99 549 92 q 619 118 601 106 q 638 161 638 131 l 638 469 l 206 469 l 206 121 q 299 99 254 100 q 294 69 299 82 l 47 69 q 51 99 44 88 q 121 118 103 106 q 139 161 139 131 l 139 853 q 43 875 96 871 q 47 904 43 896 l 294 904 q 292 875 294 883 q 224 857 242 869 q 206 815 206 844 l 206 508 l 638 508 l 638 853 q 544 875 589 874 q 549 904 544 896 l 796 904 q 793 875 799 892 q 724 858 742 869 q 706 815 706 846 l 706 121 q 799 99 753 100 z "},"I":{"ha":343,"x_min":43,"x_max":299,"o":"m 206 815 l 206 121 q 299 99 254 100 q 294 69 299 82 l 47 69 q 51 99 44 88 q 121 118 103 106 q 139 161 139 131 l 139 853 q 43 875 96 871 q 47 904 43 896 l 294 904 q 292 875 294 883 q 224 857 242 869 q 206 815 206 844 z "},"J":{"ha":326,"x_min":-3,"x_max":294,"o":"m 3 -204 l -3 -186 q 113 -78 86 -137 q 139 72 139 -18 l 139 853 q 43 875 96 871 q 47 904 43 896 l 294 904 q 292 875 294 883 q 224 857 242 869 q 206 815 206 844 l 206 75 q 158 -106 206 -42 q 3 -204 110 -171 z "},"K":{"ha":775,"x_min":43,"x_max":714,"o":"m 139 161 l 139 853 q 43 875 96 871 q 47 904 43 896 l 294 904 q 292 875 294 883 q 224 857 242 869 q 206 815 206 844 l 206 496 l 539 851 q 447 875 503 871 q 453 904 447 894 l 713 904 q 708 875 713 889 q 579 825 628 875 l 285 517 q 353 476 326 513 l 574 179 q 637 119 608 135 q 714 101 665 104 q 708 69 714 82 l 575 69 l 289 446 q 243 472 268 472 l 206 433 l 206 121 q 299 99 254 100 q 294 69 299 82 l 47 69 q 51 99 44 88 q 121 118 103 106 q 139 161 139 131 z "},"L":{"ha":706,"x_min":42,"x_max":631,"o":"m 203 108 l 475 108 q 568 137 543 108 q 600 238 593 165 q 624 236 618 238 q 631 137 631 178 q 629 69 631 96 l 46 69 q 49 99 43 86 q 118 118 100 106 q 136 161 136 131 l 136 853 q 42 875 88 874 q 44 904 42 893 l 292 904 q 289 875 294 892 q 221 857 239 869 q 203 815 203 844 l 203 108 z "},"M":{"ha":1079,"x_min":15,"x_max":1054,"o":"m 1053 99 q 1054 84 1054 92 q 1051 69 1054 76 l 804 69 q 804 99 801 86 q 872 118 856 106 q 888 161 889 131 l 832 817 l 789 701 l 536 69 l 511 69 l 268 728 l 229 840 l 169 122 q 274 99 215 101 q 268 69 274 86 l 15 69 q 21 99 15 85 q 126 171 122 111 l 185 856 q 119 872 153 868 q 119 904 115 890 l 264 904 l 531 179 l 819 904 l 956 904 q 961 874 961 890 q 897 813 897 869 q 897 806 897 810 l 956 122 q 1053 99 1000 103 z "},"N":{"ha":876,"x_min":43,"x_max":850,"o":"m 850 904 q 847 875 850 883 q 749 803 749 865 l 749 69 l 718 69 l 254 735 l 192 832 l 192 122 q 299 99 236 104 q 294 69 299 82 l 44 69 q 43 83 43 75 q 47 99 43 90 q 144 171 144 111 l 144 854 q 53 875 99 874 q 56 904 53 893 l 217 904 l 581 383 l 701 203 l 701 853 q 593 875 663 869 q 597 904 593 896 l 850 904 z "},"O":{"ha":896,"x_min":79,"x_max":818,"o":"m 658 772 q 615 824 658 772 q 439 875 572 875 q 229 767 306 875 q 153 507 153 660 q 153 485 153 496 q 239 193 157 288 q 457 99 321 99 q 669 201 593 99 q 744 468 744 303 q 658 772 744 669 m 818 485 q 818 389 818 485 q 718 172 818 293 q 448 51 618 51 q 178 172 278 51 q 79 485 79 293 q 178 799 79 676 q 447 922 276 922 q 718 799 618 922 q 818 485 818 676 z "},"P":{"ha":688,"x_min":42,"x_max":647,"o":"m 203 467 l 349 467 q 511 524 456 467 q 567 667 567 581 q 513 811 567 754 q 349 868 458 868 l 203 868 l 203 467 m 368 904 q 572 833 496 904 q 647 666 647 763 q 572 499 647 569 q 368 428 496 428 l 203 428 l 203 128 q 343 99 264 103 q 339 69 343 82 l 46 69 q 49 99 43 86 q 118 118 100 106 q 136 161 136 131 l 136 853 q 42 875 88 874 q 44 904 42 893 l 368 904 z "},"Q":{"ha":894,"x_min":79,"x_max":888,"o":"m 153 485 q 239 193 157 288 q 457 99 321 99 q 669 201 593 99 q 744 468 744 303 q 658 772 744 669 q 439 875 572 875 q 229 767 306 875 q 153 507 153 660 q 153 485 153 496 m 888 -3 q 856 -104 888 -56 q 749 -153 824 -153 q 653 -126 700 -153 q 574 -67 606 -99 q 501 -8 543 -35 q 417 19 458 19 q 358 -7 376 19 q 339 -55 339 -33 q 340 -87 339 -76 l 325 -87 q 308 -22 308 -56 q 361 61 308 38 q 154 206 229 92 q 79 499 79 321 q 178 799 79 676 q 447 922 276 922 q 718 799 618 922 q 818 492 818 676 q 731 190 818 307 q 488 46 643 74 q 604 -28 539 29 q 665 -60 625 -46 q 754 -74 704 -74 q 831 -51 804 -74 q 872 19 858 -28 l 886 15 q 888 -3 888 7 z "},"R":{"ha":736,"x_min":43,"x_max":729,"o":"m 206 500 l 328 500 q 526 682 526 500 q 328 868 526 868 l 206 868 l 206 500 m 729 97 q 726 69 729 79 l 594 69 l 431 386 q 386 444 410 426 q 308 461 363 461 l 206 461 l 206 126 q 317 99 258 104 q 314 69 319 83 l 47 69 q 51 99 44 88 q 121 118 103 106 q 139 161 139 131 l 139 851 q 43 875 92 874 q 47 904 43 896 l 347 904 q 539 842 474 904 q 604 692 604 781 q 435 471 604 510 q 501 399 471 456 l 622 171 q 667 113 646 128 q 729 97 689 97 z "},"S":{"ha":633,"x_min":76,"x_max":571,"o":"m 571 286 q 496 122 571 185 q 301 60 421 60 q 78 121 182 60 q 76 185 76 140 q 89 304 76 231 q 110 301 101 304 q 110 293 110 297 q 311 100 110 100 q 448 149 393 100 q 503 271 503 197 q 422 415 503 360 q 343 462 386 440 q 256 506 300 483 q 176 556 213 529 q 96 712 96 617 q 164 862 96 807 q 336 917 232 917 q 547 874 440 917 q 533 731 546 796 q 513 733 517 731 q 326 874 486 874 q 205 834 249 874 q 161 731 161 794 q 203 625 161 668 q 306 554 246 582 q 426 496 365 526 q 528 413 486 465 q 571 286 571 360 z "},"T":{"ha":686,"x_min":28,"x_max":658,"o":"m 656 904 q 658 831 658 872 q 653 740 658 790 q 629 738 644 738 q 596 840 622 811 q 503 868 569 868 l 376 868 l 376 126 q 515 99 442 103 q 513 69 515 78 l 168 69 q 172 99 168 92 q 283 117 256 104 q 310 161 310 129 l 310 868 l 183 868 q 90 840 117 868 q 57 738 64 811 q 33 740 40 738 q 28 824 28 782 q 31 904 28 867 l 656 904 z "},"U":{"ha":879,"x_min":58,"x_max":822,"o":"m 821 904 q 822 893 822 900 q 818 875 822 886 q 749 858 767 869 q 731 815 731 846 l 731 358 q 651 128 731 203 q 443 53 572 53 q 234 128 314 53 q 154 358 154 203 l 154 853 q 60 875 111 871 q 63 904 58 886 l 310 904 q 307 875 310 883 q 239 857 257 869 q 221 815 221 844 l 221 347 q 281 162 221 224 q 443 100 342 100 q 603 163 544 100 q 663 347 663 225 l 663 853 q 569 875 614 874 q 574 904 569 896 l 821 904 z "},"V":{"ha":781,"x_min":7,"x_max":774,"o":"m 774 904 q 769 874 774 890 q 706 855 728 868 q 671 807 685 842 l 403 61 l 379 61 l 86 856 q 10 874 51 868 q 8 904 7 899 l 232 904 q 236 874 236 889 q 175 860 183 868 q 167 842 167 853 q 172 814 167 831 l 372 265 q 397 181 392 210 l 401 181 l 642 853 q 551 874 603 869 q 556 904 551 892 l 774 904 z "},"W":{"ha":1169,"x_min":7,"x_max":1163,"o":"m 1163 904 q 1160 874 1163 900 q 1099 852 1117 865 q 1068 799 1081 839 l 847 61 l 826 61 l 593 732 l 340 61 l 318 61 l 88 854 q 8 874 47 869 q 7 895 7 889 q 7 904 7 901 l 238 904 q 243 874 243 892 q 175 860 186 868 q 164 840 164 851 q 168 814 164 828 l 322 283 q 343 189 338 235 l 347 189 l 594 860 l 615 860 l 825 263 q 843 182 839 222 l 846 182 l 1040 849 q 964 874 1000 868 q 971 904 965 889 l 1163 904 z "},"X":{"ha":815,"x_min":47,"x_max":768,"o":"m 536 99 q 604 113 596 104 q 613 130 613 121 q 600 158 613 139 l 397 446 l 168 122 q 265 99 210 103 q 261 69 265 83 l 49 69 q 49 80 49 72 q 51 99 49 88 q 103 118 85 104 q 151 167 122 132 l 371 483 l 103 863 q 53 874 72 872 q 47 895 47 889 q 49 904 47 901 l 275 904 q 281 875 281 892 q 211 861 219 869 q 203 843 203 853 q 215 817 203 833 l 411 538 l 646 853 q 550 875 596 874 q 554 904 550 892 l 767 904 q 764 875 768 892 q 710 856 729 869 q 665 808 692 843 l 438 501 l 713 111 q 763 99 739 103 q 767 69 768 81 l 542 69 q 536 99 536 79 z "},"Y":{"ha":744,"x_min":-8,"x_max":753,"o":"m -4 874 l -8 904 l 228 904 q 233 874 233 892 q 169 859 178 868 q 160 840 160 850 q 171 808 160 829 l 375 440 l 376 440 q 404 497 388 471 l 631 854 q 543 874 586 871 q 546 904 543 888 l 751 904 q 749 874 753 892 q 692 856 711 868 q 651 807 674 843 l 400 410 l 400 122 q 494 99 447 103 q 490 69 494 82 l 242 69 q 244 99 239 86 q 314 118 296 106 q 332 161 332 131 l 332 392 l 68 857 q -4 874 33 868 z "},"Z":{"ha":736,"x_min":74,"x_max":653,"o":"m 493 110 q 589 138 561 110 q 628 238 617 165 q 649 233 640 238 q 636 69 649 140 l 83 69 q 74 104 74 83 l 576 867 l 261 867 q 166 838 194 867 q 126 736 138 808 q 104 742 115 736 q 119 904 104 821 l 647 904 q 653 869 653 892 l 153 110 l 493 110 z "},"[":{"ha":514,"x_min":118,"x_max":414,"o":"m 186 1101 l 186 -37 l 372 -37 l 413 -97 l 171 -97 l 118 -37 l 118 1163 l 372 1163 l 414 1101 l 186 1101 z "},"\\":{"ha":646,"x_min":175,"x_max":475,"o":"m 175 1007 l 238 1007 l 475 63 l 414 63 l 175 1007 z "},"]":{"ha":460,"x_min":101,"x_max":396,"o":"m 328 -37 l 328 1101 l 140 1101 l 101 1163 l 343 1163 l 396 1101 l 396 -97 l 140 -97 l 101 -37 l 328 -37 z "},"^":{"ha":600,"x_min":56,"x_max":553,"o":"m 333 888 l 553 403 q 496 389 528 392 l 300 824 l 106 389 q 56 403 82 390 l 275 888 q 304 889 289 889 l 333 888 z "},"_":{"ha":738,"x_min":78,"x_max":647,"o":"m 647 139 l 108 139 l 78 201 l 78 206 l 617 206 l 647 143 l 647 139 z "},"`":{"ha":258,"x_min":14,"x_max":244,"o":"m 88 993 l 244 769 l 222 756 l 14 943 l 14 956 q 88 993 40 981 z "},"a":{"ha":629,"x_min":69,"x_max":581,"o":"m 143 231 q 176 143 143 174 q 267 113 210 113 q 410 172 351 113 l 410 419 l 294 390 q 143 231 143 351 m 492 53 q 439 73 461 53 q 411 129 417 93 q 256 53 340 53 q 120 101 171 53 q 69 228 69 150 q 122 356 69 306 q 286 431 174 406 l 410 460 l 410 526 q 385 624 410 592 q 286 656 360 656 q 115 619 213 656 l 103 638 q 318 715 200 715 q 437 668 393 715 q 481 539 481 621 l 481 188 q 490 128 481 146 q 522 111 500 111 q 576 118 544 111 l 581 108 q 492 53 543 53 z "},"b":{"ha":693,"x_min":13,"x_max":626,"o":"m 181 144 q 337 107 246 107 q 487 182 428 107 q 546 394 546 257 q 494 597 546 532 q 369 663 442 663 q 244 610 297 663 q 181 453 192 558 l 181 144 m 374 715 q 550 633 474 715 q 626 394 626 551 q 537 145 626 238 q 321 53 447 53 q 154 101 236 53 q 92 54 133 72 l 79 65 q 111 218 111 131 l 111 982 q 64 983 89 983 q 13 982 39 983 q 18 1010 13 999 q 181 1061 96 1044 l 181 560 q 258 675 206 635 q 374 715 310 715 z "},"c":{"ha":629,"x_min":64,"x_max":569,"o":"m 342 53 q 143 142 222 53 q 64 379 64 232 q 149 621 64 526 q 364 715 235 715 q 564 657 493 715 q 553 521 564 585 l 531 525 q 485 631 532 592 q 365 671 439 671 q 201 590 263 671 q 139 383 139 510 q 198 179 139 257 q 358 101 257 101 q 556 164 458 101 l 569 150 q 464 76 514 99 q 342 53 414 53 z "},"d":{"ha":721,"x_min":68,"x_max":669,"o":"m 396 661 q 208 594 275 661 q 140 388 140 528 q 194 179 140 249 q 341 110 247 110 q 499 169 435 110 l 499 649 q 396 661 449 661 m 579 53 q 527 73 549 53 q 500 128 506 93 q 321 53 431 53 q 140 136 211 53 q 68 376 68 219 q 172 624 68 533 q 425 715 275 715 q 499 708 460 715 l 499 982 q 451 983 475 983 q 400 982 426 983 q 404 1010 400 997 q 568 1061 485 1044 l 568 188 q 577 128 568 144 q 608 111 586 111 q 663 118 631 111 l 669 108 q 579 53 628 53 z "},"e":{"ha":644,"x_min":65,"x_max":583,"o":"m 507 485 q 458 626 506 581 q 344 672 411 672 q 220 622 278 672 q 146 474 163 572 l 322 485 l 507 485 m 139 396 q 196 188 139 264 q 360 113 253 113 q 568 185 467 113 l 575 167 q 336 53 475 53 q 148 136 231 53 q 65 374 65 219 q 93 527 65 458 q 165 635 121 596 q 356 715 257 715 q 519 645 456 715 q 583 451 583 575 q 572 436 575 439 l 140 436 q 139 396 139 424 z "},"f":{"ha":396,"x_min":38,"x_max":471,"o":"m 42 651 l 43 669 q 135 690 86 683 l 135 789 q 195 989 135 924 q 333 1054 256 1054 q 471 992 411 1054 q 457 875 469 935 q 425 878 442 875 q 425 892 425 885 q 331 1007 425 1007 q 236 967 268 1007 q 204 833 204 928 l 204 690 q 408 697 328 690 q 399 646 408 667 l 204 646 l 204 132 q 356 101 271 106 q 353 69 356 78 l 39 69 q 38 83 38 75 q 42 101 38 92 q 115 122 96 108 q 135 167 135 135 l 135 646 q 42 651 94 651 z "},"g":{"ha":686,"x_min":50,"x_max":672,"o":"m 171 72 q 93 -51 93 21 q 152 -162 93 -122 q 322 -201 211 -201 q 517 -140 433 -201 q 600 -11 601 -78 q 510 69 600 69 l 222 68 q 171 72 194 68 m 442 628 q 416 655 442 628 q 317 682 390 682 q 199 633 243 682 q 154 503 154 583 q 206 356 154 408 q 331 303 257 303 q 449 351 404 303 q 493 475 493 399 q 442 628 493 575 m 515 131 q 631 97 590 131 q 672 7 672 64 q 558 -171 671 -87 q 317 -254 446 -254 q 119 -203 188 -254 q 50 -62 50 -153 q 140 83 50 29 q 75 186 75 111 q 181 307 75 261 q 79 493 79 371 q 149 655 79 594 q 317 715 219 715 q 481 668 414 715 q 671 724 565 724 q 671 706 671 719 q 665 660 671 693 l 508 643 q 567 488 567 585 q 497 331 567 392 q 324 269 426 269 q 214 290 264 269 q 138 201 138 253 q 163 149 138 169 q 242 128 188 128 l 510 131 q 515 131 513 131 z "},"h":{"ha":736,"x_min":42,"x_max":701,"o":"m 603 511 l 603 125 q 701 101 649 106 q 699 69 701 86 l 440 69 q 442 101 439 82 q 514 120 494 107 q 533 165 533 133 l 533 508 q 499 619 533 581 q 404 657 465 657 q 210 511 272 657 l 210 125 q 308 101 253 106 q 304 69 308 82 l 46 69 q 47 101 44 82 q 121 120 101 107 q 140 165 140 133 l 140 976 q 77 978 100 978 q 42 978 54 978 q 46 1004 42 992 q 210 1054 142 1042 l 210 569 q 424 715 283 715 q 552 663 501 715 q 603 511 603 611 z "},"i":{"ha":361,"x_min":42,"x_max":308,"o":"m 235 913 q 235 900 235 913 q 217 869 235 888 q 173 850 199 850 q 129 869 147 850 q 111 913 111 888 q 129 957 111 939 q 173 975 147 975 q 217 957 199 975 q 235 913 235 939 m 140 165 l 140 626 q 77 628 100 628 q 42 628 54 628 q 46 656 42 642 q 210 707 131 688 l 210 125 q 308 101 253 106 q 304 69 308 82 l 46 69 q 47 101 44 82 q 121 120 101 107 q 140 165 140 133 z "},"j":{"ha":336,"x_min":-29,"x_max":235,"o":"m 139 68 l 139 626 q 76 628 99 628 q 42 628 54 628 q 46 656 42 642 q 210 707 131 688 l 210 72 q 155 -122 210 -49 q -24 -231 100 -196 l -29 -211 q 113 -82 79 -157 q 139 68 139 -22 m 111 913 q 111 926 111 913 q 129 957 111 939 q 173 975 147 975 q 217 957 199 975 q 235 913 235 939 q 217 869 235 888 q 173 850 199 850 q 129 869 147 850 q 111 913 111 888 z "},"k":{"ha":703,"x_min":42,"x_max":694,"o":"m 140 165 l 140 982 q 92 983 117 983 q 42 982 68 983 q 46 1010 42 997 q 210 1061 122 1044 l 210 369 l 493 642 q 407 674 450 651 q 411 699 407 690 l 672 699 q 668 665 672 681 q 535 615 586 665 l 343 436 q 385 400 364 426 l 554 182 q 619 121 589 138 q 694 101 649 104 q 689 69 694 82 l 553 69 l 321 371 q 297 393 308 388 l 210 311 l 210 125 q 308 101 253 106 q 304 69 308 82 l 46 69 q 47 101 44 82 q 121 120 101 107 q 140 165 140 133 z "},"l":{"ha":360,"x_min":42,"x_max":308,"o":"m 140 165 l 140 982 q 92 983 117 983 q 42 982 68 983 q 46 1010 42 997 q 210 1061 122 1044 l 210 125 q 308 101 253 106 q 304 69 308 82 l 46 69 q 47 101 44 82 q 121 120 101 107 q 140 165 140 133 z "},"m":{"ha":1129,"x_min":42,"x_max":1096,"o":"m 997 511 l 997 125 q 1096 101 1043 106 q 1093 69 1096 86 l 835 69 q 836 101 833 82 q 908 120 889 107 q 928 165 928 133 l 928 508 q 894 619 928 581 q 799 657 860 657 q 603 507 664 657 l 603 125 q 701 101 649 106 q 699 69 701 86 l 440 69 q 442 101 439 82 q 514 120 494 107 q 533 165 533 133 l 533 508 q 499 619 533 581 q 404 657 465 657 q 210 511 272 657 l 210 125 q 308 101 253 106 q 304 69 308 82 l 46 69 q 47 101 44 82 q 121 120 101 107 q 140 165 140 133 l 140 629 q 77 631 100 631 q 42 631 54 631 q 46 657 42 644 q 200 707 138 693 q 210 569 207 653 q 424 715 282 715 q 538 676 490 715 q 599 558 586 636 q 688 673 631 631 q 820 715 744 715 q 947 663 896 715 q 997 511 997 611 z "},"n":{"ha":736,"x_min":42,"x_max":701,"o":"m 603 511 l 603 125 q 701 101 649 106 q 699 69 701 86 l 440 69 q 442 101 439 82 q 514 120 494 107 q 533 165 533 133 l 533 508 q 499 619 533 581 q 404 657 465 657 q 210 511 272 657 l 210 125 q 308 101 253 106 q 304 69 308 82 l 46 69 q 47 101 44 82 q 121 120 101 107 q 140 165 140 133 l 140 629 q 77 631 100 631 q 42 631 54 631 q 46 657 42 644 q 200 707 138 693 q 210 569 207 653 q 424 715 282 715 q 552 663 501 715 q 603 511 603 611 z "},"o":{"ha":692,"x_min":65,"x_max":626,"o":"m 196 176 q 223 138 196 176 q 351 100 250 100 q 502 174 453 100 q 551 369 551 249 q 497 592 551 511 q 341 674 442 674 q 189 594 240 674 q 140 384 138 515 q 196 176 142 253 m 348 715 q 412 715 348 715 q 551 624 476 715 q 626 385 626 532 q 549 146 626 239 q 342 53 472 53 q 138 144 211 53 q 65 383 65 236 q 142 622 65 529 q 348 715 219 715 z "},"p":{"ha":713,"x_min":40,"x_max":644,"o":"m 331 107 q 496 183 426 107 q 565 396 565 260 q 513 597 565 532 q 394 663 461 663 q 278 624 326 663 q 210 506 231 585 l 210 131 q 331 107 269 107 m 139 -140 l 139 629 q 74 631 96 631 q 42 631 53 631 q 46 657 42 644 q 199 707 138 693 q 210 586 207 661 q 392 715 260 715 q 568 633 492 715 q 644 394 644 551 q 547 144 644 236 q 317 53 449 53 q 210 69 256 53 l 210 -174 q 343 -206 269 -199 q 340 -237 343 -229 l 43 -237 q 47 -206 40 -219 q 119 -185 100 -199 q 139 -140 139 -172 z "},"q":{"ha":693,"x_min":68,"x_max":667,"o":"m 396 661 q 208 594 276 661 q 140 388 140 528 q 194 179 140 249 q 341 110 247 110 q 499 169 435 110 l 499 643 q 396 661 444 661 m 568 725 l 568 -182 q 667 -206 613 -201 q 663 -237 667 -228 l 365 -237 q 365 -206 363 -217 q 470 -182 442 -200 q 499 -128 499 -164 l 499 126 q 321 53 431 53 q 140 136 211 53 q 68 376 68 219 q 172 624 68 533 q 424 715 275 715 q 531 694 483 715 q 560 725 543 713 l 568 725 z "},"r":{"ha":467,"x_min":42,"x_max":457,"o":"m 210 547 l 210 529 q 310 665 243 614 q 453 715 378 715 q 457 686 457 704 q 451 643 457 668 q 264 561 339 643 q 210 440 219 513 l 210 132 q 361 101 275 106 q 357 69 361 82 l 44 69 q 46 101 43 82 q 120 122 100 108 q 140 167 140 135 l 140 629 q 77 631 100 631 q 42 631 54 631 q 46 657 42 644 q 200 707 138 693 q 210 547 210 643 z "},"s":{"ha":578,"x_min":82,"x_max":513,"o":"m 280 94 q 318 94 280 94 q 399 127 356 94 q 443 210 443 160 q 390 297 443 260 q 273 356 336 333 q 156 427 210 379 q 103 551 103 475 q 164 672 103 628 q 307 715 225 715 q 471 689 389 715 q 472 630 472 668 q 464 539 472 592 q 442 542 450 539 q 443 565 443 554 q 408 649 443 624 q 309 675 374 675 q 206 642 244 675 q 167 563 167 610 q 202 483 167 515 q 288 429 238 451 q 390 384 339 407 q 477 322 442 361 q 513 232 513 283 q 443 99 513 146 q 275 53 374 53 q 85 83 176 53 q 82 158 82 117 q 92 243 82 200 q 113 242 106 243 q 111 222 111 232 q 158 126 111 157 q 280 94 204 94 z "},"t":{"ha":481,"x_min":42,"x_max":443,"o":"m 42 651 l 43 669 q 133 690 88 685 l 189 849 l 204 844 l 204 690 q 407 697 326 690 q 397 646 407 667 l 204 646 l 204 222 q 293 115 204 115 q 432 172 368 115 l 443 161 q 278 53 375 53 q 175 90 217 53 q 133 206 133 128 l 133 646 q 42 651 93 651 z "},"u":{"ha":721,"x_min":28,"x_max":668,"o":"m 574 593 l 574 140 q 635 139 614 139 q 667 139 656 139 q 668 122 668 128 q 668 111 668 115 q 515 63 599 75 q 504 207 504 118 q 290 53 411 53 q 163 108 215 53 q 111 265 111 163 l 111 629 q 74 631 94 631 q 28 629 53 631 q 32 656 28 643 q 181 707 122 697 l 181 268 q 215 154 181 196 q 307 113 250 113 q 415 151 364 113 q 504 260 467 190 l 504 590 q 474 674 504 647 q 478 688 476 685 q 579 707 521 707 q 574 593 574 657 z "},"v":{"ha":676,"x_min":-7,"x_max":688,"o":"m -6 667 q -7 687 -7 679 q -7 699 -7 694 l 256 699 q 260 667 260 683 q 156 642 192 661 l 349 124 q 363 174 353 151 l 518 582 q 528 615 528 600 q 519 640 528 629 q 425 667 501 663 q 421 699 418 682 l 686 699 q 682 667 688 689 q 596 646 640 661 l 367 61 l 315 61 l 99 593 q 62 648 82 633 q -6 667 42 663 z "},"w":{"ha":1038,"x_min":29,"x_max":1007,"o":"m 274 665 q 183 613 183 657 q 186 594 183 604 l 308 243 q 325 179 319 211 l 328 179 l 515 672 l 543 672 l 692 243 q 711 179 707 200 l 714 179 l 863 575 q 872 617 872 600 q 858 647 872 633 q 774 665 844 660 q 771 699 769 682 l 1007 699 q 1007 686 1007 694 q 1004 665 1007 678 q 940 646 965 657 l 711 61 l 683 61 l 515 546 l 325 61 l 297 61 l 94 647 q 31 665 60 663 q 29 686 29 678 q 29 699 29 694 l 269 699 q 274 665 274 682 z "},"x":{"ha":700,"x_min":21,"x_max":681,"o":"m 676 101 q 679 81 679 89 q 679 69 679 74 l 438 69 q 433 101 433 83 q 517 118 486 106 l 342 349 l 163 118 q 244 101 192 106 q 242 69 244 89 l 21 69 q 24 101 21 82 q 92 121 67 106 q 147 171 117 136 l 319 379 l 167 581 q 24 667 113 654 q 21 687 21 679 q 21 699 21 694 l 272 699 q 276 667 276 683 q 196 651 217 661 l 364 428 l 539 650 q 456 667 513 663 q 460 699 456 683 l 679 699 q 681 686 681 694 q 675 667 681 678 q 608 647 632 663 q 553 596 583 632 l 388 396 l 543 189 q 606 124 578 142 q 676 101 633 107 z "},"y":{"ha":688,"x_min":7,"x_max":682,"o":"m 681 699 q 682 687 682 694 q 676 667 682 679 q 614 653 654 664 l 317 -76 q 244 -201 281 -165 q 154 -237 208 -237 l 139 -237 q 128 -195 128 -212 q 129 -167 128 -178 l 151 -167 q 209 -151 188 -167 q 256 -87 231 -135 l 326 63 l 113 593 q 77 648 97 633 q 8 667 57 663 q 7 687 7 679 q 7 699 7 694 l 268 699 q 272 667 272 683 q 169 642 217 663 l 361 143 q 374 182 365 165 l 529 582 q 538 617 538 601 q 528 643 538 633 q 436 667 508 663 q 433 699 431 683 l 681 699 z "},"z":{"ha":614,"x_min":63,"x_max":560,"o":"m 386 111 q 490 142 460 111 q 532 250 521 172 q 556 244 544 250 q 540 69 556 164 l 64 69 q 69 108 63 86 l 468 658 l 256 658 q 153 627 183 658 q 110 518 122 596 q 86 525 97 518 q 101 699 86 607 l 553 699 q 549 657 560 672 l 160 111 l 386 111 z "},"{":{"ha":733,"x_min":132,"x_max":557,"o":"m 282 938 q 282 911 282 938 q 288 815 282 883 q 294 703 294 746 q 280 632 294 661 q 210 588 265 603 q 280 542 265 571 q 294 470 294 513 q 288 360 294 428 q 282 242 282 292 q 286 164 282 193 q 306 103 290 135 q 350 53 322 71 q 557 8 417 8 l 557 -44 q 278 26 347 -44 q 228 113 240 64 q 215 222 215 161 q 222 357 215 283 q 229 467 229 431 q 209 530 229 503 q 132 561 189 557 l 132 614 q 209 644 189 618 q 229 706 229 671 q 222 817 229 742 q 215 952 215 892 q 228 1061 215 1013 q 278 1147 240 1110 q 557 1218 347 1218 l 557 1165 q 325 1097 375 1165 q 290 1028 299 1063 q 282 938 282 993 z "},"|":{"ha":456,"x_min":201,"x_max":263,"o":"m 201 1007 l 263 1007 l 263 63 l 201 63 l 201 1007 z "},"}":{"ha":736,"x_min":179,"x_max":604,"o":"m 454 237 q 454 264 454 237 q 448 360 454 292 q 442 470 442 428 q 456 542 442 513 q 525 588 471 571 q 456 632 471 603 q 442 703 442 661 q 448 815 442 746 q 454 938 454 883 q 446 1028 454 993 q 411 1097 438 1063 q 179 1165 360 1165 l 179 1218 q 458 1147 390 1218 q 507 1061 494 1110 q 519 952 519 1013 q 513 817 519 892 q 506 706 506 742 q 526 644 506 671 q 604 614 546 618 l 604 561 q 526 530 546 557 q 506 467 506 503 q 513 357 506 431 q 519 222 519 283 q 507 113 519 161 q 458 26 494 64 q 179 -44 390 -44 l 179 8 q 411 76 360 8 q 446 147 438 111 q 454 237 454 182 z "},"~":{"ha":654,"x_min":67,"x_max":586,"o":"m 217 510 q 347 456 263 510 q 467 403 431 403 q 554 514 533 403 l 586 514 q 543 398 581 446 q 446 350 506 350 q 303 403 386 350 q 188 457 219 457 q 100 349 119 457 l 67 349 q 110 463 72 417 q 217 510 149 510 z "},"¡":{"ha":658,"x_min":233,"x_max":357,"o":"m 233 817 q 233 830 233 817 q 251 860 233 843 q 294 878 268 878 q 339 860 321 878 q 357 817 357 843 q 338 772 357 790 q 294 754 319 754 q 251 772 268 754 q 233 817 233 790 m 329 -11 l 260 -35 l 254 -35 l 272 647 l 317 669 l 321 669 l 329 -11 z "},"¢":{"ha":588,"x_min":82,"x_max":525,"o":"m 360 139 l 315 139 l 315 224 q 147 293 213 231 q 82 467 82 356 q 148 649 82 579 q 315 721 214 718 l 315 804 l 360 804 l 360 719 q 504 663 449 710 l 472 615 q 338 678 419 678 q 203 625 257 678 q 149 476 149 572 q 209 325 149 379 q 356 271 269 271 q 500 325 443 271 l 525 303 q 466 253 511 279 q 360 224 421 228 l 360 139 z "},"£":{"ha":878,"x_min":96,"x_max":763,"o":"m 760 235 q 763 207 763 218 q 760 172 763 196 q 749 127 758 149 q 713 88 739 106 q 637 69 686 69 q 503 87 588 69 q 381 104 419 104 q 211 69 281 104 l 168 103 q 272 363 272 186 q 260 479 272 410 l 96 479 l 96 486 l 115 522 l 251 522 q 231 678 231 618 q 297 866 231 796 q 474 936 363 936 q 696 858 597 936 q 707 851 706 851 l 676 800 q 594 863 644 838 q 493 889 544 889 q 349 840 400 889 q 297 711 297 792 q 322 522 297 631 l 586 522 l 586 515 l 560 479 l 332 479 q 342 376 342 426 q 323 256 342 325 q 268 139 304 186 q 393 163 339 163 q 532 142 447 163 q 657 122 617 122 q 733 233 733 122 l 760 235 z "},"¤":{"ha":600,"x_min":69,"x_max":531,"o":"m 167 508 q 167 467 167 508 q 206 384 167 425 q 299 343 244 343 q 393 384 354 343 q 432 508 432 425 q 393 632 432 592 q 299 672 354 672 q 205 632 243 672 q 167 508 167 592 m 458 625 q 490 506 490 572 q 458 388 490 440 l 531 317 q 490 276 517 290 l 419 346 q 300 304 369 304 q 179 344 231 304 l 110 276 q 69 317 83 290 l 140 388 q 108 506 108 438 q 140 626 108 574 l 69 696 q 110 736 83 722 l 178 669 q 297 711 228 711 q 421 668 367 711 l 490 736 q 531 696 517 722 l 458 625 z "},"¥":{"ha":843,"x_min":126,"x_max":722,"o":"m 676 531 l 676 524 l 650 488 l 458 488 l 458 401 l 676 401 l 676 394 l 650 358 l 458 358 l 458 69 l 381 69 l 381 358 l 181 358 l 181 365 l 200 401 l 381 401 l 381 488 l 181 488 l 181 494 l 200 531 l 367 531 l 126 910 l 186 929 l 418 549 l 642 929 l 722 929 l 476 531 l 676 531 z "},"¦":{"ha":464,"x_min":201,"x_max":263,"o":"m 201 438 l 263 438 l 263 63 l 201 63 l 201 438 m 263 632 l 201 632 l 201 1007 l 263 1007 l 263 632 z "},"§":{"ha":1400,"x_min":110,"x_max":604,"o":"m 194 358 q 271 247 194 290 q 365 201 318 221 q 428 174 413 181 q 500 231 474 193 q 526 315 526 268 q 493 401 526 363 q 431 453 460 439 q 361 486 403 468 q 314 507 319 504 q 194 358 194 463 m 604 -35 q 529 -187 604 -129 q 335 -246 454 -246 q 111 -189 215 -246 q 110 -128 110 -171 q 122 -17 110 -86 q 143 -19 135 -17 q 194 -165 142 -122 q 337 -208 247 -208 q 481 -162 426 -208 q 536 -53 536 -117 q 494 51 536 10 q 392 116 451 92 q 272 166 332 140 q 170 238 213 192 q 128 348 128 285 q 164 460 128 411 q 261 531 200 508 q 157 606 194 563 q 119 715 119 649 q 186 861 119 806 q 351 917 253 917 q 549 876 449 917 q 535 743 547 828 q 514 746 518 743 q 342 876 494 876 q 227 834 269 876 q 185 731 185 792 q 227 635 185 671 q 329 574 269 599 q 449 523 389 550 q 552 447 510 496 q 594 329 594 397 q 476 150 594 206 q 604 -35 604 78 z "},"¨":{"ha":296,"x_min":14,"x_max":282,"o":"m 267 877 q 275 870 267 877 q 282 840 282 863 q 267 803 282 818 q 231 789 253 789 q 194 803 208 789 q 181 840 181 818 q 194 877 181 863 q 231 892 208 892 q 267 877 253 892 m 101 877 q 108 870 101 877 q 115 840 115 863 q 101 803 115 818 q 64 789 86 789 q 28 803 42 789 q 14 840 14 818 q 28 877 14 863 q 64 892 42 892 q 101 877 86 892 z "},"©":{"ha":1053,"x_min":69,"x_max":983,"o":"m 711 299 q 529 221 636 221 q 353 300 422 221 q 285 510 285 379 q 360 726 285 642 q 554 810 436 810 q 696 781 629 810 q 682 676 696 725 q 661 674 676 674 q 631 744 661 719 q 556 768 601 768 q 401 699 454 768 q 349 514 349 631 q 400 332 349 397 q 535 267 451 267 q 692 315 618 267 l 711 299 m 854 838 q 919 776 854 838 q 983 507 983 714 q 854 176 983 300 q 526 53 725 53 q 199 176 328 53 q 69 507 69 300 q 199 838 69 714 q 526 961 328 961 q 854 838 725 961 m 239 808 q 181 753 239 808 q 124 507 124 697 q 239 206 124 317 q 526 94 354 94 q 814 206 699 94 q 929 507 929 317 q 814 808 929 697 q 526 919 699 919 q 239 808 354 919 z "},"ª":{"ha":453,"x_min":49,"x_max":419,"o":"m 274 664 q 100 557 100 664 q 120 508 100 528 q 181 489 140 489 q 300 535 249 489 l 300 664 q 274 664 286 664 m 419 486 q 357 447 393 447 q 300 506 307 447 q 177 447 236 447 q 83 477 118 447 q 49 557 49 507 q 124 667 49 636 q 226 690 179 690 q 300 688 274 690 l 300 778 q 280 846 300 824 q 201 868 260 868 q 83 835 142 868 l 78 849 q 224 911 139 911 q 316 878 283 911 q 349 788 349 846 l 349 542 q 381 488 349 488 q 417 493 399 488 l 419 486 z "},"«":{"ha":797,"x_min":172,"x_max":618,"o":"m 172 529 l 386 772 l 425 753 l 247 529 l 425 306 l 386 285 l 172 529 m 365 529 l 579 772 l 618 753 l 440 529 l 618 306 l 579 285 l 365 529 z "},"¬":{"ha":781,"x_min":97,"x_max":669,"o":"m 669 646 l 669 425 q 643 422 656 422 q 618 425 631 422 l 618 585 l 101 585 q 97 614 97 599 q 101 646 97 629 l 669 646 z "},"®":{"ha":1036,"x_min":83,"x_max":953,"o":"m 425 518 l 503 518 q 611 551 575 518 q 647 639 647 583 q 503 761 647 761 l 425 761 l 425 518 m 757 268 q 756 242 757 249 l 665 242 l 531 444 q 474 481 508 481 l 425 481 l 425 289 q 517 269 467 272 q 515 242 519 257 l 319 242 q 322 269 315 257 q 368 282 356 274 q 381 311 381 290 l 381 763 q 317 779 351 778 q 319 799 317 794 l 515 799 q 650 751 600 799 q 700 644 700 704 q 659 538 700 583 q 549 483 618 492 q 578 449 558 478 l 668 318 q 757 268 703 268 m 244 206 q 299 150 244 206 q 518 94 354 94 q 792 206 682 94 q 901 507 901 317 q 792 808 901 697 q 518 919 682 919 q 244 808 354 919 q 135 507 135 697 q 244 206 135 317 m 206 838 q 268 899 206 838 q 518 961 329 961 q 830 838 707 961 q 953 507 953 714 q 830 176 953 300 q 518 53 707 53 q 206 176 329 53 q 83 507 83 300 q 206 838 83 714 z "},"¯":{"ha":335,"x_min":14,"x_max":321,"o":"m 14 772 l 14 814 l 321 814 l 321 772 l 14 772 z "},"°":{"ha":415,"x_min":42,"x_max":374,"o":"m 326 660 q 303 638 326 660 q 207 615 279 615 q 88 660 135 615 q 42 785 42 704 q 88 910 42 865 q 207 956 135 956 q 326 910 279 956 q 374 785 374 865 q 326 660 374 704 m 278 887 q 264 903 278 887 q 207 919 250 919 q 137 887 164 919 q 110 785 110 854 q 137 684 110 717 q 207 651 164 651 q 278 685 250 651 q 306 786 306 718 q 278 887 306 854 z "},"±":{"ha":797,"x_min":78,"x_max":731,"o":"m 78 361 l 699 361 l 731 299 l 731 294 l 108 294 l 78 357 l 78 361 m 731 551 l 436 551 l 436 403 l 432 403 l 369 451 l 369 551 l 108 551 l 78 614 l 78 618 l 369 618 l 369 768 l 374 768 l 436 719 l 436 618 l 699 618 l 731 556 l 731 551 z "},"²":{"ha":333,"x_min":33,"x_max":289,"o":"m 194 528 q 247 544 232 528 q 269 600 263 560 q 289 597 283 600 q 282 489 289 532 l 40 489 q 33 524 33 503 q 197 726 160 668 q 235 825 235 785 q 165 901 235 901 q 75 831 94 901 q 54 832 58 831 q 54 862 54 842 q 61 906 54 882 q 168 939 117 939 q 251 908 219 939 q 283 826 283 876 q 245 720 283 775 q 81 528 207 665 l 194 528 z "},"³":{"ha":307,"x_min":29,"x_max":278,"o":"m 222 836 q 154 913 222 913 q 94 898 115 913 q 63 839 72 883 q 46 842 50 839 q 50 915 46 883 q 154 946 103 946 q 235 918 206 946 q 265 846 265 890 q 238 768 265 801 q 171 724 211 735 q 278 601 278 703 q 240 520 278 551 q 140 489 201 489 q 29 529 78 489 q 40 564 38 563 q 134 528 86 528 q 210 549 182 528 q 238 613 238 571 q 206 678 238 656 q 107 706 174 700 l 107 742 q 190 769 158 744 q 222 836 222 793 z "},"´":{"ha":258,"x_min":14,"x_max":244,"o":"m 14 768 l 171 992 q 244 954 214 982 l 244 943 l 36 754 l 14 768 z "},"µ":{"ha":735,"x_min":26,"x_max":682,"o":"m 588 604 l 588 140 q 649 139 628 139 q 681 139 669 139 q 682 122 682 128 q 682 111 682 115 q 529 63 583 75 q 518 207 518 118 q 304 53 425 53 q 194 85 244 53 l 194 -118 q 156 -122 172 -122 q 125 -118 139 -122 l 125 639 q 60 640 82 640 q 26 640 38 640 q 31 667 26 654 q 194 718 111 701 l 194 172 q 324 113 239 113 q 429 151 378 113 q 518 260 481 190 l 518 601 q 488 685 518 658 q 492 699 490 696 q 593 718 535 718 q 588 604 588 668 z "},"¶":{"ha":706,"x_min":56,"x_max":581,"o":"m 293 904 l 581 904 l 581 69 l 517 69 l 517 846 l 411 846 l 411 69 l 347 69 l 347 372 l 293 372 q 118 448 181 372 q 56 639 56 524 q 118 829 56 754 q 293 904 181 904 z "},"·":{"ha":385,"x_min":139,"x_max":246,"o":"m 230 493 q 222 485 230 493 q 192 478 214 478 q 154 493 169 478 q 139 532 139 508 q 154 571 139 556 q 192 586 169 586 q 230 571 214 586 q 246 532 246 556 q 230 493 246 508 z "},"¸":{"ha":340,"x_min":14,"x_max":326,"o":"m 217 -31 q 298 -54 269 -31 q 326 -118 326 -78 q 284 -193 326 -158 q 167 -228 242 -228 q 14 -189 93 -228 l 32 -168 q 157 -196 96 -196 q 258 -121 258 -196 q 175 -62 258 -62 q 126 -67 153 -62 l 157 83 l 225 83 l 201 -31 l 217 -31 z "},"¹":{"ha":222,"x_min":29,"x_max":199,"o":"m 31 893 l 119 939 l 136 935 l 136 532 q 199 518 164 519 q 196 489 199 493 l 29 489 q 32 518 29 513 q 81 527 68 521 q 93 549 93 533 l 93 879 l 32 871 q 31 893 31 876 z "},"º":{"ha":504,"x_min":46,"x_max":458,"o":"m 98 679 q 99 633 98 679 q 140 533 100 588 q 255 479 181 479 q 367 531 329 479 q 406 667 406 583 q 406 678 406 672 q 363 825 404 769 q 247 881 322 881 q 243 881 246 881 q 134 826 172 881 q 98 679 96 771 m 253 911 q 299 911 253 911 q 401 846 344 911 q 458 680 458 781 q 399 513 458 579 q 249 447 340 447 q 101 512 157 447 q 46 678 46 576 q 104 845 46 779 q 253 911 163 911 z "},"»":{"ha":799,"x_min":182,"x_max":625,"o":"m 182 753 l 219 772 l 433 529 l 219 285 l 182 306 l 358 529 l 182 753 m 374 753 l 411 772 l 625 529 l 411 285 l 374 306 l 550 529 l 374 753 z "},"¼":{"ha":951,"x_min":93,"x_max":868,"o":"m 94 381 q 93 394 93 386 q 99 411 93 403 q 157 422 142 415 q 172 449 172 429 l 172 869 l 97 861 q 97 881 94 871 q 207 938 186 929 l 221 932 l 221 428 q 299 411 254 413 q 294 381 299 392 l 94 381 m 650 961 l 693 961 l 260 17 l 218 17 l 650 961 m 739 256 l 739 521 l 551 256 l 739 256 m 783 214 l 783 114 q 844 100 808 103 q 842 69 844 81 l 681 69 q 682 100 678 83 q 727 112 715 104 q 739 140 739 119 l 739 214 l 521 214 q 503 253 514 222 l 758 619 l 783 619 l 783 256 l 864 256 q 868 230 868 240 q 867 214 868 219 l 783 214 z "},"½":{"ha":1038,"x_min":93,"x_max":913,"o":"m 94 381 q 93 394 93 386 q 99 411 93 403 q 157 422 142 415 q 172 449 172 429 l 172 869 l 97 861 q 97 881 94 871 q 207 938 186 929 l 221 932 l 221 428 q 299 411 254 413 q 294 381 299 392 l 94 381 m 664 961 l 707 961 l 260 17 l 218 17 l 664 961 m 794 111 q 861 131 842 111 q 888 201 881 150 q 913 199 906 201 q 903 68 913 122 l 604 68 q 597 104 597 86 q 804 360 757 286 q 851 483 851 433 q 826 559 851 532 q 757 586 800 586 q 643 497 668 586 q 622 499 628 497 q 622 531 622 508 q 631 583 622 554 q 765 626 704 626 q 866 587 826 626 q 906 484 906 547 q 860 356 906 421 q 649 111 814 292 l 794 111 z "},"¾":{"ha":1025,"x_min":100,"x_max":942,"o":"m 199 689 q 299 726 258 689 q 339 818 339 764 q 253 913 339 913 q 181 891 207 913 q 142 815 154 869 q 122 818 126 815 q 126 908 122 869 q 256 946 193 946 q 353 912 318 946 q 388 823 388 878 q 352 727 388 768 q 265 672 317 686 q 408 522 408 644 q 360 420 408 460 q 253 381 313 381 q 100 432 161 381 q 115 464 113 463 q 231 419 172 419 q 324 448 290 419 q 358 532 358 476 q 319 615 358 588 q 199 650 281 643 l 199 689 m 733 961 l 776 961 l 343 17 l 301 17 l 733 961 m 813 256 l 813 521 l 625 256 l 813 256 m 857 214 l 857 114 q 918 100 882 103 q 915 69 918 81 l 754 69 q 756 100 751 83 q 801 112 789 104 q 813 140 813 119 l 813 214 l 594 214 q 576 253 586 222 l 832 619 l 857 619 l 857 256 l 938 256 q 942 230 942 240 q 940 214 942 219 l 857 214 z "},"¿":{"ha":829,"x_min":160,"x_max":651,"o":"m 389 847 q 397 855 389 847 q 429 863 406 863 q 468 847 453 863 q 483 808 483 832 q 468 768 483 785 q 429 751 453 751 q 389 768 406 751 q 372 808 372 785 q 389 847 372 831 m 219 171 q 277 50 219 93 q 428 7 335 7 q 607 74 522 7 l 651 22 q 440 -54 557 -54 q 242 15 324 -54 q 160 186 160 85 q 399 425 160 344 l 399 601 l 413 601 l 457 581 l 457 381 q 424 367 454 379 q 383 349 393 354 q 345 331 374 344 q 305 308 317 317 q 273 282 293 299 q 244 250 253 265 q 219 171 219 208 z "},"À":{"ha":768,"x_min":-6,"x_max":774,"o":"m 419 1044 l 397 1031 l 189 1218 l 189 1231 q 263 1268 215 1256 l 419 1044 m 228 456 l 519 456 l 371 903 l 356 842 l 228 456 m 504 139 q 510 168 504 158 q 604 197 575 178 l 532 418 l 215 418 l 139 192 q 240 168 179 174 q 235 139 240 156 l -6 139 q 0 168 -6 154 q 106 242 85 178 l 356 981 q 410 992 374 992 l 657 244 q 774 168 678 176 q 767 139 771 147 l 504 139 z "},"Á":{"ha":768,"x_min":-6,"x_max":774,"o":"m 606 1218 l 397 1029 l 375 1043 l 532 1267 q 606 1229 575 1257 l 606 1218 m 228 456 l 519 456 l 371 903 l 356 842 l 228 456 m 504 139 q 510 168 504 158 q 604 197 575 178 l 532 418 l 215 418 l 139 192 q 240 168 179 174 q 235 139 240 156 l -6 139 q 0 168 -6 154 q 106 242 85 178 l 356 981 q 410 992 374 992 l 657 244 q 774 168 678 176 q 767 139 771 147 l 504 139 z "},"Â":{"ha":768,"x_min":-6,"x_max":774,"o":"m 383 1135 l 225 1035 l 204 1058 l 365 1204 l 403 1204 l 563 1058 l 543 1035 l 383 1135 m 228 456 l 519 456 l 371 903 l 356 842 l 228 456 m 504 139 q 510 168 504 158 q 604 197 575 178 l 532 418 l 215 418 l 139 192 q 240 168 179 174 q 235 139 240 156 l -6 139 q 0 168 -6 154 q 106 242 85 178 l 356 981 q 410 992 374 992 l 657 244 q 774 168 678 176 q 767 139 771 147 l 504 139 z "},"Ã":{"ha":768,"x_min":-6,"x_max":774,"o":"m 451 1071 q 374 1104 415 1071 q 315 1138 333 1138 q 254 1074 267 1138 l 219 1074 q 325 1196 244 1196 q 401 1163 358 1196 q 461 1129 443 1129 q 522 1193 510 1129 l 557 1193 q 451 1071 532 1071 m 228 456 l 519 456 l 371 903 l 356 842 l 228 456 m 504 139 q 510 168 504 158 q 604 197 575 178 l 532 418 l 215 418 l 139 192 q 240 168 179 174 q 235 139 240 156 l -6 139 q 0 168 -6 154 q 106 242 85 178 l 356 981 q 410 992 374 992 l 657 244 q 774 168 678 176 q 767 139 771 147 l 504 139 z "},"Ä":{"ha":768,"x_min":-6,"x_max":774,"o":"m 502 1078 q 495 1071 502 1078 q 465 1064 488 1064 q 429 1078 443 1064 q 415 1115 415 1093 q 429 1152 415 1138 q 465 1167 443 1167 q 502 1152 488 1167 q 517 1115 517 1138 q 502 1078 517 1093 m 335 1078 q 328 1071 335 1078 q 299 1064 321 1064 q 263 1078 276 1064 q 249 1115 249 1093 q 263 1152 249 1138 q 299 1167 276 1167 q 335 1152 321 1167 q 350 1115 350 1138 q 335 1078 350 1093 m 228 456 l 519 456 l 371 903 l 356 842 l 228 456 m 504 139 q 510 168 504 158 q 604 197 575 178 l 532 418 l 215 418 l 139 192 q 240 168 179 174 q 235 139 240 156 l -6 139 q 0 168 -6 154 q 106 242 85 178 l 356 981 q 410 992 374 992 l 657 244 q 774 168 678 176 q 767 139 771 147 l 504 139 z "},"Å":{"ha":768,"x_min":-6,"x_max":774,"o":"m 438 1120 q 438 1136 438 1120 q 422 1167 438 1151 q 384 1182 407 1182 q 345 1167 361 1182 q 329 1120 329 1151 q 345 1074 329 1089 q 383 1058 361 1058 q 422 1074 406 1058 q 438 1120 438 1089 m 459 1054 q 443 1042 459 1054 q 383 1029 428 1029 q 308 1054 339 1029 q 276 1120 276 1079 q 308 1186 276 1161 q 383 1211 339 1211 q 459 1186 428 1211 q 490 1120 490 1161 q 459 1054 490 1079 m 228 456 l 519 456 l 371 903 l 356 842 l 228 456 m 504 139 q 510 168 504 158 q 604 197 575 178 l 532 418 l 215 418 l 139 192 q 240 168 179 174 q 235 139 240 156 l -6 139 q 0 168 -6 154 q 106 242 85 178 l 356 981 q 410 992 374 992 l 657 244 q 774 168 678 176 q 767 139 771 147 l 504 139 z "},"Æ":{"ha":1097,"x_min":8,"x_max":1024,"o":"m 546 386 l 546 810 l 511 744 l 297 386 l 546 386 m 613 108 l 867 108 q 960 137 935 108 q 993 239 986 165 q 1019 238 1011 239 q 1024 140 1024 182 q 1022 69 1024 99 l 454 69 q 458 99 451 88 q 528 118 510 106 q 546 161 546 131 l 546 349 l 275 349 l 143 128 q 231 99 185 104 q 225 69 231 86 l 8 69 q 14 99 8 85 q 97 139 72 106 q 119 172 106 149 l 528 861 q 450 875 493 872 q 454 904 450 896 l 999 904 q 1000 835 1000 878 q 993 739 1000 792 q 969 736 988 736 q 938 839 963 810 q 844 868 913 868 l 613 868 l 613 517 l 811 524 l 847 524 l 847 471 l 811 471 l 613 475 l 613 108 z "},"Ç":{"ha":788,"x_min":78,"x_max":725,"o":"m 472 39 q 553 15 525 39 q 582 -49 582 -8 q 540 -124 582 -89 q 423 -158 497 -158 q 269 -119 349 -158 l 288 -99 q 413 -126 351 -126 q 514 -51 514 -126 q 431 7 514 7 q 382 3 408 7 l 407 126 q 172 261 265 147 q 78 558 78 375 q 201 866 78 740 q 501 992 324 992 q 704 951 611 992 q 685 800 704 875 q 665 801 669 800 q 619 906 665 869 q 503 942 572 942 q 251 835 344 942 q 157 555 157 728 q 248 280 157 382 q 468 178 339 178 q 707 249 597 178 l 725 232 q 475 122 619 126 l 457 39 l 472 39 z "},"È":{"ha":690,"x_min":43,"x_max":617,"o":"m 397 1044 l 375 1031 l 167 1218 l 167 1231 q 240 1268 193 1256 l 397 1044 m 206 178 l 460 178 q 553 206 528 178 q 586 308 579 235 q 613 307 604 308 q 617 210 617 251 q 615 139 617 168 l 47 139 q 51 168 44 157 q 121 188 103 175 q 139 231 139 200 l 139 922 q 43 944 97 942 q 47 974 43 965 l 592 974 q 593 904 593 947 q 586 808 593 861 q 563 806 581 806 q 531 908 556 879 q 438 938 506 938 l 206 938 l 206 586 l 446 593 l 482 593 l 482 540 l 446 540 l 206 546 l 206 178 z "},"É":{"ha":690,"x_min":43,"x_max":617,"o":"m 583 1217 l 375 1028 l 353 1042 l 510 1265 q 583 1228 553 1256 l 583 1217 m 206 178 l 460 178 q 553 206 528 178 q 586 308 579 235 q 613 307 604 308 q 617 210 617 251 q 615 139 617 168 l 47 139 q 51 168 44 157 q 121 188 103 175 q 139 231 139 200 l 139 922 q 43 944 97 942 q 47 974 43 965 l 592 974 q 593 904 593 947 q 586 808 593 861 q 563 806 581 806 q 531 908 556 879 q 438 938 506 938 l 206 938 l 206 586 l 446 593 l 482 593 l 482 540 l 446 540 l 206 546 l 206 178 z "},"Ê":{"ha":690,"x_min":43,"x_max":617,"o":"m 360 1135 l 201 1035 l 181 1058 l 342 1204 l 379 1204 l 539 1058 l 519 1035 l 360 1135 m 206 178 l 460 178 q 553 206 528 178 q 586 308 579 235 q 613 307 604 308 q 617 210 617 251 q 615 139 617 168 l 47 139 q 51 168 44 157 q 121 188 103 175 q 139 231 139 200 l 139 922 q 43 944 97 942 q 47 974 43 965 l 592 974 q 593 904 593 947 q 586 808 593 861 q 563 806 581 806 q 531 908 556 879 q 438 938 506 938 l 206 938 l 206 586 l 446 593 l 482 593 l 482 540 l 446 540 l 206 546 l 206 178 z "},"Ë":{"ha":690,"x_min":43,"x_max":617,"o":"m 470 1078 q 463 1071 470 1078 q 433 1064 456 1064 q 397 1078 411 1064 q 383 1115 383 1093 q 397 1152 383 1138 q 433 1167 411 1167 q 470 1152 456 1167 q 485 1115 485 1138 q 470 1078 485 1093 m 303 1078 q 296 1071 303 1078 q 267 1064 289 1064 q 231 1078 244 1064 q 217 1115 217 1093 q 231 1152 217 1138 q 267 1167 244 1167 q 303 1152 289 1167 q 318 1115 318 1138 q 303 1078 318 1093 m 206 178 l 460 178 q 553 206 528 178 q 586 308 579 235 q 613 307 604 308 q 617 210 617 251 q 615 139 617 168 l 47 139 q 51 168 44 157 q 121 188 103 175 q 139 231 139 200 l 139 922 q 43 944 97 942 q 47 974 43 965 l 592 974 q 593 904 593 947 q 586 808 593 861 q 563 806 581 806 q 531 908 556 879 q 438 938 506 938 l 206 938 l 206 586 l 446 593 l 482 593 l 482 540 l 446 540 l 206 546 l 206 178 z "},"Ì":{"ha":343,"x_min":-22,"x_max":299,"o":"m 208 1044 l 186 1031 l -22 1218 l -22 1231 q 51 1268 4 1256 l 208 1044 m 206 885 l 206 190 q 299 168 254 169 q 294 139 299 151 l 47 139 q 51 168 44 157 q 121 188 103 175 q 139 231 139 200 l 139 922 q 43 944 96 940 q 47 974 43 965 l 294 974 q 292 944 294 953 q 224 926 242 939 q 206 885 206 914 z "},"Í":{"ha":343,"x_min":43,"x_max":394,"o":"m 206 885 l 206 190 q 299 168 254 169 q 294 139 299 151 l 47 139 q 51 168 44 157 q 121 188 103 175 q 139 231 139 200 l 139 922 q 43 944 96 940 q 47 974 43 965 l 294 974 q 292 944 294 953 q 224 926 242 939 q 206 885 206 914 m 164 1043 l 321 1267 q 394 1229 364 1257 l 394 1218 l 186 1029 l 164 1043 z "},"Î":{"ha":343,"x_min":-7,"x_max":351,"o":"m 206 885 l 206 190 q 299 168 254 169 q 294 139 299 151 l 47 139 q 51 168 44 157 q 121 188 103 175 q 139 231 139 200 l 139 922 q 43 944 96 940 q 47 974 43 965 l 294 974 q 292 944 294 953 q 224 926 242 939 q 206 885 206 914 m 192 1204 l 351 1058 l 332 1035 l 172 1135 l 14 1035 l -7 1058 l 154 1204 l 192 1204 z "},"Ï":{"ha":343,"x_min":38,"x_max":306,"o":"m 291 1078 q 284 1071 291 1078 q 254 1064 276 1064 q 218 1078 232 1064 q 204 1115 204 1093 q 218 1152 204 1138 q 254 1167 232 1167 q 291 1152 276 1167 q 306 1115 306 1138 q 291 1078 306 1093 m 124 1078 q 117 1071 124 1078 q 88 1064 110 1064 q 51 1078 65 1064 q 38 1115 38 1093 q 51 1152 38 1138 q 88 1167 65 1167 q 124 1152 110 1167 q 139 1115 139 1138 q 124 1078 139 1093 m 206 885 l 206 190 q 299 168 254 169 q 294 139 299 151 l 47 139 q 51 168 44 157 q 121 188 103 175 q 139 231 139 200 l 139 922 q 43 944 96 940 q 47 974 43 965 l 294 974 q 292 944 294 953 q 224 926 242 939 q 206 885 206 914 z "},"Ð":{"ha":775,"x_min":28,"x_max":747,"o":"m 203 178 l 328 178 q 580 281 492 178 q 668 557 668 385 q 580 833 668 729 q 328 938 492 938 l 203 938 l 203 511 l 386 511 q 386 469 390 490 l 203 469 l 203 178 m 329 974 q 633 864 519 974 q 747 557 747 754 q 634 249 747 360 q 331 139 521 139 l 46 139 q 49 168 43 156 q 118 188 100 175 q 136 231 136 200 l 136 469 l 31 469 q 28 490 28 481 q 31 511 28 500 l 136 511 l 136 924 q 42 944 93 943 q 44 974 42 963 l 329 974 z "},"Ñ":{"ha":876,"x_min":43,"x_max":850,"o":"m 526 1071 q 449 1104 490 1071 q 390 1138 408 1138 q 329 1074 342 1138 l 294 1074 q 400 1196 319 1196 q 476 1163 433 1196 q 536 1129 518 1129 q 597 1193 585 1129 l 632 1193 q 526 1071 607 1071 m 850 974 q 847 944 850 953 q 749 872 749 935 l 749 139 l 718 139 l 254 804 l 192 901 l 192 192 q 299 168 236 174 q 294 139 299 151 l 44 139 q 43 152 43 144 q 47 168 43 160 q 144 240 144 181 l 144 924 q 53 944 99 943 q 56 974 53 963 l 217 974 l 581 453 l 701 272 l 701 922 q 593 944 663 939 q 597 974 593 965 l 850 974 z "},"Ò":{"ha":896,"x_min":79,"x_max":818,"o":"m 328 1268 l 485 1044 l 463 1031 l 254 1218 l 254 1231 q 328 1268 281 1256 m 658 842 q 615 893 658 842 q 439 944 572 944 q 229 837 306 944 q 153 576 153 729 q 153 554 153 565 q 239 263 157 357 q 457 168 321 168 q 669 270 593 168 q 744 538 744 372 q 658 842 744 739 m 818 554 q 818 458 818 554 q 718 242 818 363 q 448 121 618 121 q 178 242 278 121 q 79 554 79 363 q 178 869 79 746 q 447 992 276 992 q 718 869 618 992 q 818 554 818 746 z "},"Ó":{"ha":896,"x_min":79,"x_max":818,"o":"m 658 842 q 615 893 658 842 q 439 944 572 944 q 229 837 306 944 q 153 576 153 729 q 153 554 153 565 q 239 263 157 357 q 457 168 321 168 q 669 270 593 168 q 744 538 744 372 q 658 842 744 739 m 818 554 q 818 458 818 554 q 718 242 818 363 q 448 121 618 121 q 178 242 278 121 q 79 554 79 363 q 178 869 79 746 q 447 992 276 992 q 718 869 618 992 q 818 554 818 746 m 439 1042 l 596 1265 q 669 1228 639 1256 l 669 1217 l 461 1028 l 439 1042 z "},"Ô":{"ha":896,"x_min":79,"x_max":818,"o":"m 658 842 q 615 893 658 842 q 439 944 572 944 q 229 837 306 944 q 153 576 153 729 q 153 554 153 565 q 239 263 157 357 q 457 168 321 168 q 669 270 593 168 q 744 538 744 372 q 658 842 744 739 m 818 554 q 818 458 818 554 q 718 242 818 363 q 448 121 618 121 q 178 242 278 121 q 79 554 79 363 q 178 869 79 746 q 447 992 276 992 q 718 869 618 992 q 818 554 818 746 m 625 1058 l 606 1035 l 446 1135 l 288 1035 l 267 1058 l 428 1204 l 465 1204 l 625 1058 z "},"Õ":{"ha":896,"x_min":79,"x_max":818,"o":"m 390 1196 q 466 1163 424 1196 q 526 1129 508 1129 q 588 1193 575 1129 l 622 1193 q 517 1071 597 1071 q 440 1104 481 1071 q 381 1138 399 1138 q 319 1074 332 1138 l 285 1074 q 390 1196 310 1196 m 658 842 q 615 893 658 842 q 439 944 572 944 q 229 837 306 944 q 153 576 153 729 q 153 554 153 565 q 239 263 157 357 q 457 168 321 168 q 669 270 593 168 q 744 538 744 372 q 658 842 744 739 m 818 554 q 818 458 818 554 q 718 242 818 363 q 448 121 618 121 q 178 242 278 121 q 79 554 79 363 q 178 869 79 746 q 447 992 276 992 q 718 869 618 992 q 818 554 818 746 z "},"Ö":{"ha":896,"x_min":79,"x_max":818,"o":"m 658 842 q 615 893 658 842 q 439 944 572 944 q 229 837 306 944 q 153 576 153 729 q 153 554 153 565 q 239 263 157 357 q 457 168 321 168 q 669 270 593 168 q 744 538 744 372 q 658 842 744 739 m 818 554 q 818 458 818 554 q 718 242 818 363 q 448 121 618 121 q 178 242 278 121 q 79 554 79 363 q 178 869 79 746 q 447 992 276 992 q 718 869 618 992 q 818 554 818 746 m 556 1152 q 564 1145 556 1152 q 571 1115 571 1138 q 556 1078 571 1093 q 519 1064 542 1064 q 483 1078 497 1064 q 469 1115 469 1093 q 483 1152 469 1138 q 519 1167 497 1167 q 556 1152 542 1167 m 390 1152 q 397 1145 390 1152 q 404 1115 404 1138 q 390 1078 404 1093 q 353 1064 375 1064 q 317 1078 331 1064 q 303 1115 303 1093 q 317 1152 303 1138 q 353 1167 331 1167 q 390 1152 375 1167 z "},"×":{"ha":719,"x_min":129,"x_max":592,"o":"m 592 733 l 403 531 l 592 326 l 551 292 l 367 492 l 183 296 l 129 335 l 324 539 l 132 746 l 176 775 l 360 578 l 547 775 l 592 733 z "},"Ø":{"ha":896,"x_min":78,"x_max":838,"o":"m 251 190 q 469 99 331 99 q 676 197 607 99 q 746 446 746 296 q 744 486 746 465 q 681 725 735 631 l 251 190 m 651 768 q 428 875 565 875 q 217 764 292 875 q 151 528 151 668 q 153 485 151 507 q 221 231 161 329 l 651 768 m 729 786 q 818 479 818 665 q 718 172 818 293 q 449 51 618 51 q 210 139 306 51 l 139 51 l 78 51 l 176 175 q 79 485 79 294 q 178 799 79 676 q 438 922 276 922 q 696 824 600 922 l 775 921 l 838 921 l 729 786 z "},"Ù":{"ha":879,"x_min":58,"x_max":822,"o":"m 479 1044 l 457 1031 l 249 1218 l 249 1231 q 322 1268 275 1256 l 479 1044 m 821 974 q 822 963 822 969 q 818 944 822 956 q 749 927 767 939 q 731 885 731 915 l 731 428 q 651 197 731 272 q 443 122 572 122 q 234 197 314 122 q 154 428 154 272 l 154 922 q 60 944 111 940 q 63 974 58 956 l 310 974 q 307 944 310 953 q 239 926 257 939 q 221 885 221 914 l 221 417 q 281 231 221 293 q 443 169 342 169 q 603 232 544 169 q 663 417 663 294 l 663 922 q 569 944 614 943 q 574 974 569 965 l 821 974 z "},"Ú":{"ha":900,"x_min":58,"x_max":822,"o":"m 640 1217 l 432 1028 l 410 1042 l 567 1265 q 640 1228 610 1256 l 640 1217 m 821 974 q 822 963 822 969 q 818 944 822 956 q 749 927 767 939 q 731 885 731 915 l 731 428 q 651 197 731 272 q 443 122 572 122 q 234 197 314 122 q 154 428 154 272 l 154 922 q 60 944 111 940 q 63 974 58 956 l 310 974 q 307 944 310 953 q 239 926 257 939 q 221 885 221 914 l 221 417 q 281 231 221 293 q 443 169 342 169 q 603 232 544 169 q 663 417 663 294 l 663 922 q 569 944 614 943 q 574 974 569 965 l 821 974 z "},"Û":{"ha":900,"x_min":58,"x_max":822,"o":"m 417 1135 l 258 1035 l 238 1058 l 399 1204 l 436 1204 l 596 1058 l 576 1035 l 417 1135 m 821 974 q 822 963 822 969 q 818 944 822 956 q 749 927 767 939 q 731 885 731 915 l 731 428 q 651 197 731 272 q 443 122 572 122 q 234 197 314 122 q 154 428 154 272 l 154 922 q 60 944 111 940 q 63 974 58 956 l 310 974 q 307 944 310 953 q 239 926 257 939 q 221 885 221 914 l 221 417 q 281 231 221 293 q 443 169 342 169 q 603 232 544 169 q 663 417 663 294 l 663 922 q 569 944 614 943 q 574 974 569 965 l 821 974 z "},"Ü":{"ha":900,"x_min":58,"x_max":822,"o":"m 526 1078 q 518 1071 526 1078 q 489 1064 511 1064 q 453 1078 467 1064 q 439 1115 439 1093 q 453 1152 439 1138 q 489 1167 467 1167 q 526 1152 511 1167 q 540 1115 540 1138 q 526 1078 540 1093 m 359 1078 q 352 1071 359 1078 q 322 1064 344 1064 q 286 1078 300 1064 q 272 1115 272 1093 q 286 1152 272 1138 q 322 1167 300 1167 q 359 1152 344 1167 q 374 1115 374 1138 q 359 1078 374 1093 m 821 974 q 822 963 822 969 q 818 944 822 956 q 749 927 767 939 q 731 885 731 915 l 731 428 q 651 197 731 272 q 443 122 572 122 q 234 197 314 122 q 154 428 154 272 l 154 922 q 60 944 111 940 q 63 974 58 956 l 310 974 q 307 944 310 953 q 239 926 257 939 q 221 885 221 914 l 221 417 q 281 231 221 293 q 443 169 342 169 q 603 232 544 169 q 663 417 663 294 l 663 922 q 569 944 614 943 q 574 974 569 965 l 821 974 z "},"Ý":{"ha":744,"x_min":-8,"x_max":753,"o":"m 590 1218 l 382 1029 l 360 1043 l 517 1267 q 590 1229 560 1257 l 590 1218 m -4 943 l -8 974 l 228 974 q 233 943 233 961 q 169 928 178 938 q 160 909 160 919 q 171 878 160 899 l 375 510 l 376 510 q 404 567 388 540 l 631 924 q 543 943 586 940 q 546 974 543 957 l 751 974 q 749 943 753 961 q 692 925 711 938 q 651 876 674 913 l 400 479 l 400 192 q 494 168 447 172 q 490 139 494 151 l 242 139 q 244 168 239 156 q 314 188 296 175 q 332 231 332 200 l 332 461 l 68 926 q -4 943 33 938 z "},"Þ":{"ha":688,"x_min":43,"x_max":619,"o":"m 206 324 l 349 324 q 490 369 440 324 q 539 495 539 414 q 490 622 539 576 q 349 668 442 668 l 206 668 l 206 324 m 206 706 l 368 706 q 553 647 486 706 q 619 494 619 588 q 553 343 619 401 q 368 285 486 285 l 206 285 l 206 121 q 299 99 254 100 q 294 69 299 82 l 47 69 q 51 99 44 88 q 121 118 103 106 q 139 161 139 131 l 139 853 q 43 875 96 871 q 47 904 43 896 l 294 904 q 292 875 294 883 q 224 857 242 869 q 206 815 206 844 l 206 706 z "},"ß":{"ha":732,"x_min":40,"x_max":663,"o":"m 135 165 l 135 664 q 203 836 135 768 q 383 904 271 904 q 558 841 494 904 q 622 701 622 778 q 584 575 622 624 q 485 504 546 526 q 615 428 568 489 q 663 286 663 368 q 598 137 663 204 q 415 69 533 69 q 301 89 368 69 q 299 128 294 106 q 413 108 361 108 q 540 162 497 108 q 583 294 583 215 q 535 426 583 374 q 385 479 488 479 l 326 479 q 319 517 319 493 l 415 517 q 544 692 544 558 q 497 821 544 774 q 369 868 450 868 q 246 811 288 868 q 204 664 204 754 l 204 69 l 40 69 q 40 81 40 74 q 42 101 40 89 q 115 120 96 107 q 135 165 135 133 z "},"à":{"ha":629,"x_min":69,"x_max":581,"o":"m 339 839 l 317 825 l 108 1013 l 108 1025 q 182 1063 135 1050 l 339 839 m 143 300 q 176 213 143 243 q 267 182 210 182 q 410 242 351 182 l 410 489 l 294 460 q 143 300 143 421 m 492 122 q 439 142 461 122 q 411 199 417 163 q 256 122 340 122 q 120 171 171 122 q 69 297 69 219 q 122 425 69 375 q 286 500 174 475 l 410 529 l 410 596 q 385 693 410 661 q 286 725 360 725 q 115 689 213 725 l 103 707 q 318 785 200 785 q 437 738 393 785 q 481 608 481 690 l 481 257 q 490 198 481 215 q 522 181 500 181 q 576 188 544 181 l 581 178 q 492 122 543 122 z "},"á":{"ha":629,"x_min":69,"x_max":581,"o":"m 525 1011 l 317 822 l 294 836 l 451 1060 q 525 1022 494 1050 l 525 1011 m 143 300 q 176 213 143 243 q 267 182 210 182 q 410 242 351 182 l 410 489 l 294 460 q 143 300 143 421 m 492 122 q 439 142 461 122 q 411 199 417 163 q 256 122 340 122 q 120 171 171 122 q 69 297 69 219 q 122 425 69 375 q 286 500 174 475 l 410 529 l 410 596 q 385 693 410 661 q 286 725 360 725 q 115 689 213 725 l 103 707 q 318 785 200 785 q 437 738 393 785 q 481 608 481 690 l 481 257 q 490 198 481 215 q 522 181 500 181 q 576 188 544 181 l 581 178 q 492 122 543 122 z "},"â":{"ha":629,"x_min":69,"x_max":581,"o":"m 303 929 l 144 829 l 124 853 l 285 999 l 322 999 l 482 853 l 463 829 l 303 929 m 143 300 q 176 213 143 243 q 267 182 210 182 q 410 242 351 182 l 410 489 l 294 460 q 143 300 143 421 m 492 122 q 439 142 461 122 q 411 199 417 163 q 256 122 340 122 q 120 171 171 122 q 69 297 69 219 q 122 425 69 375 q 286 500 174 475 l 410 529 l 410 596 q 385 693 410 661 q 286 725 360 725 q 115 689 213 725 l 103 707 q 318 785 200 785 q 437 738 393 785 q 481 608 481 690 l 481 257 q 490 198 481 215 q 522 181 500 181 q 576 188 544 181 l 581 178 q 492 122 543 122 z "},"ã":{"ha":629,"x_min":69,"x_max":581,"o":"m 371 865 q 294 899 335 865 q 235 932 253 932 q 174 868 186 932 l 139 868 q 244 990 164 990 q 320 957 278 990 q 381 924 363 924 q 442 988 429 924 l 476 988 q 371 865 451 865 m 143 300 q 176 213 143 243 q 267 182 210 182 q 410 242 351 182 l 410 489 l 294 460 q 143 300 143 421 m 492 122 q 439 142 461 122 q 411 199 417 163 q 256 122 340 122 q 120 171 171 122 q 69 297 69 219 q 122 425 69 375 q 286 500 174 475 l 410 529 l 410 596 q 385 693 410 661 q 286 725 360 725 q 115 689 213 725 l 103 707 q 318 785 200 785 q 437 738 393 785 q 481 608 481 690 l 481 257 q 490 198 481 215 q 522 181 500 181 q 576 188 544 181 l 581 178 q 492 122 543 122 z "},"ä":{"ha":629,"x_min":69,"x_max":581,"o":"m 422 873 q 414 866 422 873 q 385 858 407 858 q 349 873 363 858 q 335 910 335 888 q 349 947 335 932 q 385 961 363 961 q 422 947 407 961 q 436 910 436 932 q 422 873 436 888 m 255 873 q 248 866 255 873 q 218 858 240 858 q 182 873 196 858 q 168 910 168 888 q 182 947 168 932 q 218 961 196 961 q 255 947 240 961 q 269 910 269 932 q 255 873 269 888 m 143 300 q 176 213 143 243 q 267 182 210 182 q 410 242 351 182 l 410 489 l 294 460 q 143 300 143 421 m 492 122 q 439 142 461 122 q 411 199 417 163 q 256 122 340 122 q 120 171 171 122 q 69 297 69 219 q 122 425 69 375 q 286 500 174 475 l 410 529 l 410 596 q 385 693 410 661 q 286 725 360 725 q 115 689 213 725 l 103 707 q 318 785 200 785 q 437 738 393 785 q 481 608 481 690 l 481 257 q 490 198 481 215 q 522 181 500 181 q 576 188 544 181 l 581 178 q 492 122 543 122 z "},"å":{"ha":629,"x_min":69,"x_max":581,"o":"m 357 915 q 357 930 357 915 q 342 961 357 946 q 303 976 326 976 q 265 961 281 976 q 249 915 249 946 q 265 868 249 883 q 303 853 281 853 q 341 868 325 853 q 357 915 357 883 m 378 849 q 363 836 378 849 q 303 824 347 824 q 227 849 258 824 q 196 915 196 874 q 227 981 196 956 q 303 1006 258 1006 q 378 981 347 1006 q 410 915 410 956 q 378 849 410 874 m 143 300 q 176 213 143 243 q 267 182 210 182 q 410 242 351 182 l 410 489 l 294 460 q 143 300 143 421 m 492 122 q 439 142 461 122 q 411 199 417 163 q 256 122 340 122 q 120 171 171 122 q 69 297 69 219 q 122 425 69 375 q 286 500 174 475 l 410 529 l 410 596 q 385 693 410 661 q 286 725 360 725 q 115 689 213 725 l 103 707 q 318 785 200 785 q 437 738 393 785 q 481 608 481 690 l 481 257 q 490 198 481 215 q 522 181 500 181 q 576 188 544 181 l 581 178 q 492 122 543 122 z "},"æ":{"ha":989,"x_min":69,"x_max":928,"o":"m 143 231 q 176 143 143 174 q 267 113 210 113 q 443 211 371 113 q 410 374 410 282 l 410 419 l 294 390 q 143 231 143 351 m 851 485 q 803 626 850 581 q 689 672 756 672 q 565 622 622 672 q 490 474 507 572 l 667 485 l 851 485 m 483 396 q 540 188 483 264 q 704 113 597 113 q 913 185 811 113 l 919 167 q 681 53 819 53 q 557 85 617 53 q 460 179 497 117 q 251 53 367 53 q 120 101 171 53 q 69 228 69 150 q 122 356 69 306 q 286 431 174 406 l 410 460 l 410 526 q 385 624 410 592 q 286 656 360 656 q 115 619 213 656 l 103 638 q 318 715 200 715 q 420 683 379 715 q 475 593 461 651 q 578 684 517 653 q 697 715 640 715 q 864 645 800 715 q 928 451 928 575 q 917 436 919 439 l 485 436 q 483 396 483 424 z "},"ç":{"ha":629,"x_min":64,"x_max":569,"o":"m 356 39 q 437 15 408 39 q 465 -49 465 -8 q 423 -124 465 -89 q 306 -158 381 -158 q 153 -119 232 -158 l 171 -99 q 296 -126 235 -126 q 397 -51 397 -126 q 314 7 397 7 q 265 3 292 7 l 290 126 q 127 231 190 146 q 64 456 64 317 q 149 690 64 596 q 364 785 235 785 q 564 726 493 785 q 553 590 564 654 l 531 594 q 485 701 532 661 q 365 740 439 740 q 201 660 263 740 q 139 453 139 579 q 198 249 139 326 q 358 171 257 171 q 556 233 458 171 l 569 219 q 471 148 518 171 q 358 122 424 125 l 340 39 l 356 39 z "},"è":{"ha":644,"x_min":65,"x_max":583,"o":"m 389 839 l 367 825 l 158 1013 l 158 1025 q 232 1063 185 1050 l 389 839 m 507 554 q 458 696 506 650 q 344 742 411 742 q 220 692 278 742 q 146 543 163 642 l 322 554 l 507 554 m 139 465 q 196 258 139 333 q 360 182 253 182 q 568 254 467 182 l 575 236 q 336 122 475 122 q 148 206 231 122 q 65 443 65 289 q 93 597 65 528 q 165 704 121 665 q 356 785 257 785 q 519 715 456 785 q 583 521 583 644 q 572 506 575 508 l 140 506 q 139 465 139 493 z "},"é":{"ha":644,"x_min":65,"x_max":583,"o":"m 575 1013 l 367 824 l 344 838 l 501 1061 q 575 1024 544 1051 l 575 1013 m 507 554 q 458 696 506 650 q 344 742 411 742 q 220 692 278 742 q 146 543 163 642 l 322 554 l 507 554 m 139 465 q 196 258 139 333 q 360 182 253 182 q 568 254 467 182 l 575 236 q 336 122 475 122 q 148 206 231 122 q 65 443 65 289 q 93 597 65 528 q 165 704 121 665 q 356 785 257 785 q 519 715 456 785 q 583 521 583 644 q 572 506 575 508 l 140 506 q 139 465 139 493 z "},"ê":{"ha":644,"x_min":65,"x_max":583,"o":"m 351 929 l 193 829 l 172 853 l 333 999 l 371 999 l 531 853 l 511 829 l 351 929 m 507 554 q 458 696 506 650 q 344 742 411 742 q 220 692 278 742 q 146 543 163 642 l 322 554 l 507 554 m 139 465 q 196 258 139 333 q 360 182 253 182 q 568 254 467 182 l 575 236 q 336 122 475 122 q 148 206 231 122 q 65 443 65 289 q 93 597 65 528 q 165 704 121 665 q 356 785 257 785 q 519 715 456 785 q 583 521 583 644 q 572 506 575 508 l 140 506 q 139 465 139 493 z "},"ë":{"ha":644,"x_min":65,"x_max":583,"o":"m 460 873 q 453 866 460 873 q 424 858 446 858 q 388 873 401 858 q 374 910 374 888 q 388 947 374 932 q 424 961 401 961 q 460 947 446 961 q 475 910 475 932 q 460 873 475 888 m 294 873 q 286 866 294 873 q 257 858 279 858 q 221 873 235 858 q 207 910 207 888 q 221 947 207 932 q 257 961 235 961 q 294 947 279 961 q 308 910 308 932 q 294 873 308 888 m 507 554 q 458 696 506 650 q 344 742 411 742 q 220 692 278 742 q 146 543 163 642 l 322 554 l 507 554 m 139 465 q 196 258 139 333 q 360 182 253 182 q 568 254 467 182 l 575 236 q 336 122 475 122 q 148 206 231 122 q 65 443 65 289 q 93 597 65 528 q 165 704 121 665 q 356 785 257 785 q 519 715 456 785 q 583 521 583 644 q 572 506 575 508 l 140 506 q 139 465 139 493 z "},"ì":{"ha":361,"x_min":-19,"x_max":308,"o":"m 211 839 l 189 825 l -19 1013 l -19 1025 q 54 1063 7 1050 l 211 839 m 140 235 l 140 696 q 77 697 100 697 q 42 697 54 697 q 46 725 42 711 q 210 776 122 757 l 210 194 q 308 171 253 175 q 304 139 308 151 l 46 139 q 47 171 44 151 q 121 190 101 176 q 140 235 140 203 z "},"í":{"ha":361,"x_min":42,"x_max":397,"o":"m 140 235 l 140 696 q 77 697 100 697 q 42 697 54 697 q 46 725 42 711 q 210 776 122 757 l 210 194 q 308 171 253 175 q 304 139 308 151 l 46 139 q 47 171 44 151 q 121 190 101 176 q 140 235 140 203 m 167 838 l 324 1061 q 397 1024 367 1051 l 397 1013 l 189 824 l 167 838 z "},"î":{"ha":361,"x_min":-4,"x_max":354,"o":"m 140 235 l 140 696 q 77 697 100 697 q 42 697 54 697 q 46 725 42 711 q 210 776 122 757 l 210 194 q 308 171 253 175 q 304 139 308 151 l 46 139 q 47 171 44 151 q 121 190 101 176 q 140 235 140 203 m 194 999 l 354 853 l 335 829 l 175 929 l 17 829 l -4 853 l 157 999 l 194 999 z "},"ï":{"ha":361,"x_min":31,"x_max":308,"o":"m 284 873 q 277 866 284 873 q 247 858 269 858 q 211 873 225 858 q 197 910 197 888 q 211 947 197 932 q 247 961 225 961 q 284 947 269 961 q 299 910 299 932 q 284 873 299 888 m 117 873 q 110 866 117 873 q 81 858 103 858 q 44 873 58 858 q 31 910 31 888 q 44 947 31 932 q 81 961 58 961 q 117 947 103 961 q 132 910 132 932 q 117 873 132 888 m 140 235 l 140 696 q 77 697 100 697 q 42 697 54 697 q 46 725 42 711 q 210 776 122 757 l 210 194 q 308 171 253 175 q 304 139 308 151 l 46 139 q 47 171 44 151 q 121 190 101 176 q 140 235 140 203 z "},"ð":{"ha":678,"x_min":65,"x_max":594,"o":"m 328 100 q 419 129 381 100 q 481 208 458 158 q 521 428 521 306 q 493 650 521 551 q 394 663 447 663 q 207 589 275 663 q 139 369 139 515 q 191 179 139 258 q 328 100 243 100 m 594 444 q 520 169 594 286 q 329 53 446 53 q 139 141 213 53 q 65 372 65 229 q 162 615 65 515 q 410 715 258 715 q 472 713 436 715 q 393 867 440 797 l 240 793 q 218 832 222 808 l 367 904 q 261 1029 321 969 l 292 1057 q 410 925 369 978 l 565 1000 q 589 963 582 989 l 438 889 q 594 444 594 679 z "},"ñ":{"ha":736,"x_min":42,"x_max":701,"o":"m 453 867 q 376 900 417 867 q 317 933 335 933 q 256 869 268 933 l 221 869 q 326 992 246 992 q 402 958 360 992 q 463 925 444 925 q 524 989 511 925 l 558 989 q 453 867 533 867 m 603 581 l 603 194 q 701 171 649 175 q 699 139 701 156 l 440 139 q 442 171 439 151 q 514 190 494 176 q 533 235 533 203 l 533 578 q 499 688 533 650 q 404 726 465 726 q 210 581 272 726 l 210 194 q 308 171 253 175 q 304 139 308 151 l 46 139 q 47 171 44 151 q 121 190 101 176 q 140 235 140 203 l 140 699 q 77 700 100 700 q 42 700 54 700 q 46 726 42 714 q 200 776 138 763 q 210 639 207 722 q 424 785 282 785 q 552 733 501 785 q 603 581 603 681 z "},"ò":{"ha":692,"x_min":65,"x_max":626,"o":"m 239 1063 l 396 839 l 374 825 l 165 1013 l 165 1025 q 239 1063 192 1050 m 196 246 q 223 208 196 246 q 351 169 250 169 q 502 244 453 169 q 551 439 551 318 q 497 662 551 581 q 341 743 442 743 q 189 664 240 743 q 140 453 138 585 q 196 246 142 322 m 348 785 q 412 785 348 785 q 551 693 476 785 q 626 455 626 601 q 549 215 626 308 q 342 122 472 122 q 138 214 211 122 q 65 452 65 306 q 142 692 65 599 q 348 785 219 785 z "},"ó":{"ha":719,"x_min":65,"x_max":626,"o":"m 196 246 q 223 208 196 246 q 351 169 250 169 q 502 244 453 169 q 551 439 551 318 q 497 662 551 581 q 341 743 442 743 q 189 664 240 743 q 140 453 138 585 q 196 246 142 322 m 348 785 q 412 785 348 785 q 551 693 476 785 q 626 455 626 601 q 549 215 626 308 q 342 122 472 122 q 138 214 211 122 q 65 452 65 306 q 142 692 65 599 q 348 785 219 785 m 350 838 l 507 1061 q 581 1024 550 1051 l 581 1013 l 372 824 l 350 838 z "},"ô":{"ha":719,"x_min":65,"x_max":626,"o":"m 196 246 q 223 208 196 246 q 351 169 250 169 q 502 244 453 169 q 551 439 551 318 q 497 662 551 581 q 341 743 442 743 q 189 664 240 743 q 140 453 138 585 q 196 246 142 322 m 348 785 q 412 785 348 785 q 551 693 476 785 q 626 455 626 601 q 549 215 626 308 q 342 122 472 122 q 138 214 211 122 q 65 452 65 306 q 142 692 65 599 q 348 785 219 785 m 536 853 l 517 829 l 357 929 l 199 829 l 178 853 l 339 999 l 376 999 l 536 853 z "},"õ":{"ha":692,"x_min":65,"x_max":626,"o":"m 301 990 q 377 957 335 990 q 438 924 419 924 q 499 988 486 924 l 533 988 q 428 865 508 865 q 351 899 392 865 q 292 932 310 932 q 231 868 243 932 l 196 868 q 301 990 221 990 m 196 246 q 223 208 196 246 q 351 169 250 169 q 502 244 453 169 q 551 439 551 318 q 497 662 551 581 q 341 743 442 743 q 189 664 240 743 q 140 453 138 585 q 196 246 142 322 m 348 785 q 412 785 348 785 q 551 693 476 785 q 626 455 626 601 q 549 215 626 308 q 342 122 472 122 q 138 214 211 122 q 65 452 65 306 q 142 692 65 599 q 348 785 219 785 z "},"ö":{"ha":719,"x_min":65,"x_max":626,"o":"m 196 246 q 223 208 196 246 q 351 169 250 169 q 502 244 453 169 q 551 439 551 318 q 497 662 551 581 q 341 743 442 743 q 189 664 240 743 q 140 453 138 585 q 196 246 142 322 m 348 785 q 412 785 348 785 q 551 693 476 785 q 626 455 626 601 q 549 215 626 308 q 342 122 472 122 q 138 214 211 122 q 65 452 65 306 q 142 692 65 599 q 348 785 219 785 m 467 947 q 475 939 467 947 q 482 910 482 932 q 467 873 482 888 q 431 858 453 858 q 394 873 408 858 q 381 910 381 888 q 394 947 381 932 q 431 961 408 961 q 467 947 453 961 m 301 947 q 308 939 301 947 q 315 910 315 932 q 301 873 315 888 q 264 858 286 858 q 228 873 242 858 q 214 910 214 888 q 228 947 214 932 q 264 961 242 961 q 301 947 286 961 z "},"÷":{"ha":808,"x_min":78,"x_max":731,"o":"m 731 499 l 108 499 l 78 561 l 78 565 l 699 565 l 731 503 l 731 499 m 471 274 q 471 261 471 274 q 452 230 471 247 q 406 213 433 213 q 362 230 379 213 q 344 274 344 247 q 362 320 344 301 q 406 339 379 339 q 452 320 433 339 q 471 274 471 301 m 471 790 q 471 776 471 790 q 452 745 471 763 q 406 728 433 728 q 362 745 379 728 q 344 790 344 763 q 362 835 344 817 q 406 853 379 853 q 452 835 433 853 q 471 790 471 817 z "},"ø":{"ha":719,"x_min":65,"x_max":654,"o":"m 211 164 q 369 100 268 100 q 525 175 471 100 q 579 371 579 250 q 536 568 579 490 l 211 164 m 510 606 q 349 674 450 674 q 193 594 249 674 q 140 394 138 515 q 183 200 142 274 l 510 606 m 576 618 q 654 385 654 528 q 571 147 654 242 q 369 53 488 53 q 172 117 250 53 l 121 53 l 65 53 l 142 149 q 65 383 65 238 q 149 622 65 528 q 350 715 232 715 q 544 650 468 715 l 597 715 l 654 715 l 576 618 z "},"ù":{"ha":721,"x_min":28,"x_max":668,"o":"m 378 839 l 356 825 l 147 1013 l 147 1025 q 221 1063 174 1050 l 378 839 m 574 663 l 574 210 q 635 208 614 208 q 667 208 656 208 q 668 191 668 197 q 668 181 668 185 q 515 132 599 144 q 504 276 504 188 q 290 122 411 122 q 163 177 215 122 q 111 335 111 232 l 111 699 q 74 700 94 700 q 28 699 53 700 q 32 725 28 713 q 181 776 122 767 l 181 338 q 215 224 181 265 q 307 182 250 182 q 415 221 364 182 q 504 329 467 260 l 504 660 q 474 743 504 717 q 478 757 476 754 q 579 776 521 776 q 574 663 574 726 z "},"ú":{"ha":735,"x_min":28,"x_max":668,"o":"m 592 1013 l 383 824 l 361 838 l 518 1061 q 592 1024 561 1051 l 592 1013 m 574 663 l 574 210 q 635 208 614 208 q 667 208 656 208 q 668 191 668 197 q 668 181 668 185 q 515 132 599 144 q 504 276 504 188 q 290 122 411 122 q 163 177 215 122 q 111 335 111 232 l 111 699 q 74 700 94 700 q 28 699 53 700 q 32 725 28 713 q 181 776 122 767 l 181 338 q 215 224 181 265 q 307 182 250 182 q 415 221 364 182 q 504 329 467 260 l 504 660 q 474 743 504 717 q 478 757 476 754 q 579 776 521 776 q 574 663 574 726 z "},"û":{"ha":735,"x_min":28,"x_max":668,"o":"m 368 929 l 210 829 l 189 853 l 350 999 l 388 999 l 547 853 l 528 829 l 368 929 m 574 663 l 574 210 q 635 208 614 208 q 667 208 656 208 q 668 191 668 197 q 668 181 668 185 q 515 132 599 144 q 504 276 504 188 q 290 122 411 122 q 163 177 215 122 q 111 335 111 232 l 111 699 q 74 700 94 700 q 28 699 53 700 q 32 725 28 713 q 181 776 122 767 l 181 338 q 215 224 181 265 q 307 182 250 182 q 415 221 364 182 q 504 329 467 260 l 504 660 q 474 743 504 717 q 478 757 476 754 q 579 776 521 776 q 574 663 574 726 z "},"ü":{"ha":735,"x_min":28,"x_max":668,"o":"m 478 873 q 471 866 478 873 q 442 858 464 858 q 406 873 419 858 q 392 910 392 888 q 406 947 392 932 q 442 961 419 961 q 478 947 464 961 q 493 910 493 932 q 478 873 493 888 m 312 873 q 305 866 312 873 q 275 858 297 858 q 239 873 253 858 q 225 910 225 888 q 239 947 225 932 q 275 961 253 961 q 312 947 297 961 q 326 910 326 932 q 312 873 326 888 m 574 663 l 574 210 q 635 208 614 208 q 667 208 656 208 q 668 191 668 197 q 668 181 668 185 q 515 132 599 144 q 504 276 504 188 q 290 122 411 122 q 163 177 215 122 q 111 335 111 232 l 111 699 q 74 700 94 700 q 28 699 53 700 q 32 725 28 713 q 181 776 122 767 l 181 338 q 215 224 181 265 q 307 182 250 182 q 415 221 364 182 q 504 329 467 260 l 504 660 q 474 743 504 717 q 478 757 476 754 q 579 776 521 776 q 574 663 574 726 z "},"ý":{"ha":688,"x_min":7,"x_max":682,"o":"m 588 1011 l 379 822 l 357 836 l 514 1060 q 588 1022 557 1050 l 588 1011 m 681 768 q 682 756 682 764 q 676 736 682 749 q 614 722 654 733 l 317 -7 q 244 -132 281 -96 q 154 -168 208 -168 l 139 -168 q 128 -126 128 -143 q 129 -97 128 -108 l 151 -97 q 209 -81 188 -97 q 256 -18 231 -65 l 326 132 l 113 663 q 77 717 97 703 q 8 736 57 732 q 7 756 7 749 q 7 768 7 764 l 268 768 q 272 736 272 753 q 169 711 217 732 l 361 213 q 374 251 365 233 l 529 651 q 538 687 538 671 q 528 713 538 703 q 436 736 508 732 q 433 768 431 753 l 681 768 z "},"þ":{"ha":713,"x_min":42,"x_max":644,"o":"m 210 263 q 394 106 251 106 q 514 172 463 106 q 565 383 565 238 q 514 596 565 529 q 394 663 463 663 q 210 506 251 663 l 210 263 m 392 715 q 569 632 493 715 q 644 383 644 549 q 569 135 644 218 q 392 51 493 53 q 210 181 261 51 l 210 -183 q 308 -206 250 -201 q 304 -237 308 -225 l 46 -237 q 47 -206 44 -225 q 121 -187 101 -200 q 140 -142 140 -174 l 140 982 q 92 983 117 983 q 42 982 68 983 q 46 1010 42 997 q 210 1061 122 1044 l 210 588 q 392 715 261 715 z "},"ÿ":{"ha":688,"x_min":7,"x_max":682,"o":"m 484 873 q 477 866 484 873 q 447 858 469 858 q 411 873 425 858 q 397 910 397 888 q 411 947 397 932 q 447 961 425 961 q 484 947 469 961 q 499 910 499 932 q 484 873 499 888 m 317 873 q 310 866 317 873 q 281 858 303 858 q 244 873 258 858 q 231 910 231 888 q 244 947 231 932 q 281 961 258 961 q 317 947 303 961 q 332 910 332 932 q 317 873 332 888 m 681 768 q 682 756 682 764 q 676 736 682 749 q 614 722 654 733 l 317 -7 q 244 -132 281 -96 q 154 -168 208 -168 l 139 -168 q 128 -126 128 -143 q 129 -97 128 -108 l 151 -97 q 209 -81 188 -97 q 256 -18 231 -65 l 326 132 l 113 663 q 77 717 97 703 q 8 736 57 732 q 7 756 7 749 q 7 768 7 764 l 268 768 q 272 736 272 753 q 169 711 217 732 l 361 213 q 374 251 365 233 l 529 651 q 538 687 538 671 q 528 713 538 703 q 436 736 508 732 q 433 768 431 753 l 681 768 z "},"ı":{"ha":361,"x_min":42,"x_max":308,"o":"m 140 165 l 140 626 q 77 628 100 628 q 42 628 54 628 q 46 656 42 642 q 210 707 122 688 l 210 125 q 308 101 253 106 q 304 69 308 82 l 46 69 q 47 101 44 82 q 121 120 101 107 q 140 165 140 133 z "},"Ł":{"ha":664,"x_min":19,"x_max":631,"o":"m 203 178 l 475 178 q 568 206 543 178 q 600 307 593 235 q 624 306 618 307 q 631 206 631 247 q 629 139 631 165 l 46 139 q 49 168 43 156 q 118 188 100 175 q 136 231 136 200 l 136 451 l 33 418 q 19 457 24 429 l 136 497 l 136 922 q 42 944 88 943 q 44 974 42 963 l 292 974 q 289 944 294 961 q 221 926 239 939 q 203 885 203 914 l 203 519 l 331 564 q 344 521 339 554 l 203 474 l 203 178 z "},"ł":{"ha":367,"x_min":21,"x_max":346,"o":"m 142 235 l 142 533 l 35 497 q 21 540 26 507 l 142 582 l 142 1051 q 94 1053 119 1053 q 43 1051 69 1053 q 47 1079 43 1067 q 211 1131 124 1114 l 211 606 l 332 647 q 346 604 340 638 l 211 558 l 211 194 q 310 171 254 175 q 306 139 310 151 l 47 139 q 49 171 46 151 q 122 190 103 176 q 142 235 142 203 z "},"Œ":{"ha":1149,"x_min":79,"x_max":1075,"o":"m 422 875 q 217 764 292 875 q 151 528 151 668 q 153 485 151 507 q 249 193 164 288 q 474 99 335 99 q 597 125 543 99 l 597 850 q 422 875 518 875 m 664 108 l 918 108 q 1012 137 986 108 q 1044 239 1038 165 q 1071 238 1063 239 q 1075 140 1075 182 q 1074 69 1075 99 l 622 69 q 449 51 526 51 q 178 172 278 51 q 79 485 79 293 q 178 799 79 676 q 447 922 276 922 q 615 904 522 922 l 1050 904 q 1053 830 1053 872 q 1044 739 1053 788 q 1021 736 1039 736 q 989 839 1014 810 q 896 868 964 868 l 664 868 l 664 517 l 863 524 l 899 524 l 899 471 l 863 471 l 664 475 l 664 108 z "},"œ":{"ha":1158,"x_min":65,"x_max":1069,"o":"m 993 485 q 945 626 992 581 q 832 672 899 672 q 708 622 765 672 q 633 474 650 572 l 810 485 l 993 485 m 196 176 q 223 138 196 176 q 351 100 250 100 q 502 174 453 100 q 551 369 551 249 q 497 592 551 511 q 341 674 442 674 q 189 594 240 674 q 140 384 138 515 q 196 176 142 253 m 626 396 q 683 188 626 264 q 847 113 740 113 q 1056 185 954 113 l 1063 167 q 824 53 963 53 q 687 93 751 53 q 586 210 622 133 q 346 53 515 53 q 138 144 211 53 q 65 383 65 236 q 142 622 65 529 q 346 715 219 715 q 592 550 524 715 q 702 673 632 631 q 840 715 772 715 q 1006 645 943 715 q 1069 451 1069 575 q 1060 436 1067 443 l 628 436 q 626 396 626 424 z "},"Š":{"ha":700,"x_min":76,"x_max":571,"o":"m 571 356 q 496 192 571 254 q 301 129 421 129 q 78 190 182 129 q 76 255 76 210 q 89 374 76 300 q 110 371 101 374 q 110 363 110 367 q 311 169 110 169 q 448 218 393 169 q 503 340 503 267 q 422 485 503 429 q 343 531 386 510 q 256 576 300 553 q 176 625 213 599 q 96 781 96 686 q 164 931 96 876 q 336 986 232 986 q 547 943 440 986 q 533 800 546 865 q 513 803 517 800 q 326 943 486 943 q 205 903 249 943 q 161 801 161 864 q 203 694 161 738 q 306 624 246 651 q 426 565 365 596 q 528 482 486 535 q 571 356 571 429 m 553 1196 l 408 1038 l 342 1038 l 194 1196 l 215 1219 l 374 1100 l 533 1219 l 553 1196 z "},"š":{"ha":578,"x_min":82,"x_max":513,"o":"m 280 164 q 318 164 280 164 q 399 197 356 164 q 443 279 443 229 q 390 366 443 329 q 273 426 336 403 q 156 497 210 449 q 103 621 103 544 q 164 741 103 697 q 307 785 225 785 q 471 758 389 785 q 472 699 472 738 q 464 608 472 661 q 442 611 450 608 q 443 635 443 624 q 408 719 443 693 q 309 744 374 744 q 206 712 244 744 q 167 632 167 679 q 202 553 167 585 q 288 499 238 521 q 390 453 339 476 q 477 392 442 431 q 513 301 513 353 q 443 169 513 215 q 275 122 374 122 q 85 153 176 122 q 82 228 82 186 q 92 313 82 269 q 113 311 106 313 q 111 292 111 301 q 158 195 111 226 q 280 164 204 164 m 499 990 l 354 832 l 288 832 l 140 990 l 161 1014 l 319 894 l 479 1014 l 499 990 z "},"Ÿ":{"ha":744,"x_min":-8,"x_max":753,"o":"m 487 1078 q 480 1071 487 1078 q 450 1064 472 1064 q 414 1078 428 1064 q 400 1115 400 1093 q 414 1152 400 1138 q 450 1167 428 1167 q 487 1152 472 1167 q 501 1115 501 1138 q 487 1078 501 1093 m 320 1078 q 313 1071 320 1078 q 283 1064 306 1064 q 247 1078 261 1064 q 233 1115 233 1093 q 247 1152 233 1138 q 283 1167 261 1167 q 320 1152 306 1167 q 335 1115 335 1138 q 320 1078 335 1093 m -4 943 l -8 974 l 228 974 q 233 943 233 961 q 169 928 178 938 q 160 909 160 919 q 171 878 160 899 l 375 510 l 376 510 q 404 567 388 540 l 631 924 q 543 943 586 940 q 546 974 543 957 l 751 974 q 749 943 753 961 q 692 925 711 938 q 651 876 674 913 l 400 479 l 400 192 q 494 168 447 172 q 490 139 494 151 l 242 139 q 244 168 239 156 q 314 188 296 175 q 332 231 332 200 l 332 461 l 68 926 q -4 943 33 938 z "},"Ž":{"ha":736,"x_min":74,"x_max":653,"o":"m 451 1038 l 385 1038 l 238 1196 l 258 1219 l 417 1100 l 576 1219 l 596 1196 l 451 1038 m 493 179 q 589 207 561 179 q 628 307 617 235 q 649 303 640 307 q 636 139 649 210 l 83 139 q 74 174 74 153 l 576 936 l 261 936 q 166 907 194 936 q 126 806 138 878 q 104 811 115 806 q 119 974 104 890 l 647 974 q 653 939 653 961 l 153 179 l 493 179 z "},"ž":{"ha":614,"x_min":63,"x_max":560,"o":"m 353 832 l 286 832 l 139 990 l 160 1014 l 318 894 l 478 1014 l 497 990 l 353 832 m 386 181 q 490 211 460 181 q 532 319 521 242 q 556 314 544 319 q 540 139 556 233 l 64 139 q 69 178 63 156 l 468 728 l 256 728 q 153 697 183 728 q 110 588 122 665 q 86 594 97 588 q 101 768 86 676 l 553 768 q 549 726 560 742 l 160 181 l 386 181 z "},"ƒ":{"ha":531,"x_min":-125,"x_max":489,"o":"m 401 715 q 489 696 442 715 q 469 650 486 669 q 390 668 424 668 q 289 628 328 668 q 233 494 250 589 l 208 351 q 403 358 319 351 q 385 307 397 328 l 200 307 l 138 -56 q 72 -201 121 -150 q -37 -253 22 -253 q -125 -233 -78 -253 q -106 -187 -122 -207 q -25 -206 -60 -206 q 31 -181 10 -206 q 63 -96 53 -157 l 135 307 q 42 313 94 313 q 47 331 42 315 q 142 351 93 344 l 160 450 q 253 650 182 585 q 401 715 325 715 z "},"ˆ":{"ha":386,"x_min":14,"x_max":372,"o":"m 372 783 l 353 760 l 193 860 l 35 760 l 14 783 l 175 929 l 213 929 l 372 783 z "},"ˇ":{"ha":386,"x_min":14,"x_max":372,"o":"m 372 921 l 228 763 l 161 763 l 14 921 l 35 944 l 193 825 l 353 944 l 372 921 z "},"˘":{"ha":339,"x_min":14,"x_max":325,"o":"m 294 951 l 322 951 q 325 919 325 942 q 286 822 325 863 q 169 781 247 781 q 53 822 92 781 q 14 918 14 863 q 17 951 14 942 l 43 951 q 169 844 43 844 q 294 951 294 844 z "},"˙":{"ha":135,"x_min":14,"x_max":121,"o":"m 105 917 q 97 909 105 917 q 67 901 89 901 q 29 917 44 901 q 14 956 14 932 q 29 994 14 979 q 67 1010 44 1010 q 105 994 89 1010 q 121 956 121 978 q 105 917 121 933 z "},"˚":{"ha":239,"x_min":13,"x_max":226,"o":"m 119 936 q 142 936 119 936 q 195 911 164 936 q 226 845 226 886 q 195 779 226 804 q 119 754 164 754 q 44 779 75 754 q 13 845 13 804 q 44 911 13 886 q 119 936 75 936 m 120 907 q 109 907 120 907 q 81 892 97 907 q 65 845 65 876 q 81 799 65 814 q 119 783 97 783 q 158 799 142 783 q 174 845 174 814 q 158 892 174 876 q 120 907 143 907 z "},"˛":{"ha":254,"x_min":14,"x_max":240,"o":"m 81 -62 q 97 -115 81 -94 q 140 -136 114 -136 q 236 -112 194 -136 l 240 -122 q 191 -167 224 -147 q 119 -186 158 -186 q 47 -157 79 -186 q 14 -76 14 -128 q 52 23 14 -25 q 163 100 90 71 l 183 82 q 81 -62 81 31 z "},"˜":{"ha":386,"x_min":28,"x_max":365,"o":"m 133 921 q 209 888 167 921 q 269 854 251 854 q 331 918 318 854 l 365 918 q 260 796 340 796 q 183 829 224 796 q 124 863 142 863 q 63 799 75 863 l 28 799 q 133 921 53 921 z "},"˝":{"ha":349,"x_min":14,"x_max":335,"o":"m 14 768 l 118 985 q 182 957 160 975 l 182 946 l 36 754 l 14 768 m 153 769 l 274 978 q 335 946 308 969 l 333 935 l 174 754 l 153 769 z "},"ँ":{"ha":0,"x_min":-442,"x_max":47,"o":"m -261 1308 l -197 1372 l -131 1308 l -197 1243 l -261 1308 m -206 1111 q -3 1274 -90 1111 l 47 1232 q -175 1060 -46 1060 q -290 1093 -233 1060 q -376 1160 -346 1126 q -442 1243 -407 1194 l -407 1268 q -206 1111 -304 1111 z "},"ं":{"ha":0,"x_min":-242,"x_max":-111,"o":"m -242 1197 l -178 1261 l -111 1197 l -178 1132 l -242 1197 z "},"ः":{"ha":433,"x_min":201,"x_max":314,"o":"m 201 546 l 257 601 l 314 546 l 257 490 l 201 546 m 201 175 l 257 231 l 314 175 l 257 119 l 201 175 z "},"अ":{"ha":1079,"x_min":72,"x_max":1147,"o":"m 436 126 q 326 152 379 126 q 236 215 274 178 q 164 306 199 253 q 72 483 113 385 l 113 504 q 408 190 249 190 q 544 237 494 190 q 594 356 594 283 q 496 550 594 471 q 365 483 439 511 l 328 544 q 561 757 561 629 q 519 850 561 814 q 426 886 478 886 q 239 799 328 886 l 189 850 q 408 951 283 951 q 558 878 497 951 q 619 726 619 804 q 535 581 619 647 q 629 532 572 550 q 725 514 686 514 q 805 532 764 514 q 863 581 846 550 l 863 871 l 747 871 q 703 938 738 886 l 1103 938 l 1147 871 l 940 871 l 940 0 l 863 51 l 869 488 q 763 451 821 451 q 603 493 704 451 q 654 333 654 419 q 597 186 654 246 q 436 126 540 126 z "},"आ":{"ha":1369,"x_min":28,"x_max":1442,"o":"m 1231 871 l 1231 0 l 1153 61 l 1153 871 l 896 871 l 896 0 l 818 51 l 825 488 q 718 451 776 451 q 558 493 660 451 q 610 333 610 419 q 553 186 610 246 q 392 126 496 126 q 282 152 335 126 q 192 215 229 178 q 119 306 154 253 q 28 483 68 385 l 68 504 q 364 190 204 190 q 500 237 450 190 q 550 356 550 283 q 451 550 550 471 q 321 483 394 511 l 283 544 q 517 757 517 629 q 475 850 517 814 q 382 886 433 886 q 194 799 283 886 l 144 850 q 364 951 239 951 q 514 878 453 951 q 575 726 575 804 q 490 581 575 647 q 585 532 528 550 q 681 514 642 514 q 760 532 719 514 q 818 581 801 550 l 818 871 l 703 871 q 658 938 693 886 l 1397 938 l 1442 871 l 1231 871 z "},"इ":{"ha":756,"x_min":-56,"x_max":817,"o":"m 654 253 q 552 97 654 157 q 349 36 450 36 l 556 -175 l 504 -211 l 285 46 q 157 113 213 67 q 101 203 101 158 q 119 231 101 219 q 160 243 138 243 q 217 207 183 243 q 304 99 250 171 q 344 97 317 97 q 428 113 371 97 q 541 174 486 129 q 596 269 596 219 q 568 346 596 319 q 508 372 540 372 q 406 347 475 372 q 293 321 336 321 q 167 390 229 321 q 104 537 104 460 q 156 658 104 614 q 283 701 208 701 l 506 701 l 506 871 l -10 871 l -56 938 l 774 938 l 817 871 l 583 871 l 583 629 l 304 629 q 204 599 247 629 q 161 513 161 569 q 191 421 161 456 q 261 386 221 386 q 374 413 301 386 q 474 439 447 439 q 599 376 543 439 q 654 253 654 314 z "},"ई":{"ha":756,"x_min":-56,"x_max":817,"o":"m 629 1225 q 531 1190 568 1225 q 493 1076 493 1156 q 563 938 493 996 l 774 938 l 817 871 l 583 871 l 583 629 l 304 629 q 204 599 247 629 q 161 513 161 569 q 191 421 161 456 q 261 386 221 386 q 374 413 301 386 q 474 439 447 439 q 599 376 543 439 q 654 253 654 314 q 552 97 654 157 q 349 36 450 36 l 556 -175 l 504 -211 l 285 46 q 157 113 213 67 q 101 203 101 158 q 119 231 101 219 q 160 243 138 243 q 217 207 183 243 q 304 99 250 171 q 344 97 317 97 q 428 113 371 97 q 541 174 486 129 q 596 269 596 219 q 568 346 596 319 q 508 372 540 372 q 406 347 475 372 q 293 321 336 321 q 167 390 229 321 q 104 537 104 460 q 156 658 104 614 q 283 701 208 701 l 506 701 l 506 871 l -10 871 l -56 938 l 501 938 q 429 1102 429 1011 q 476 1237 429 1193 q 590 1281 524 1281 q 710 1254 657 1281 l 686 1217 q 629 1225 657 1225 z "},"उ":{"ha":756,"x_min":-92,"x_max":826,"o":"m 426 190 q 541 238 493 190 q 589 356 589 286 q 499 556 589 481 q 319 496 426 514 l 281 558 q 556 749 556 607 q 536 819 556 785 q 485 871 517 853 l -46 871 l -92 938 l 781 938 l 826 871 l 554 871 q 615 722 615 804 q 539 582 615 640 q 613 480 578 546 q 649 331 649 414 q 593 187 649 247 q 439 126 538 126 q 65 483 210 126 l 107 504 q 222 297 156 386 q 426 190 301 190 z "},"ऊ":{"ha":1013,"x_min":-54,"x_max":1099,"o":"m 967 381 q 778 174 967 254 l 736 225 q 913 413 913 286 q 870 524 913 474 q 774 574 828 574 q 610 488 685 574 q 649 331 649 415 q 590 186 649 246 q 431 126 532 126 q 321 152 374 126 q 231 215 268 178 q 158 306 193 253 q 67 483 107 385 l 107 504 q 403 190 232 190 q 538 237 486 190 q 589 356 589 283 q 501 553 589 479 q 346 499 439 517 l 308 560 q 556 749 556 604 q 536 819 556 785 q 485 871 517 853 l -8 871 l -54 938 l 1053 938 l 1099 871 l 554 871 q 615 721 615 804 q 542 579 615 638 l 568 551 q 749 638 663 638 q 901 554 835 638 q 967 381 967 471 z "},"ऋ":{"ha":1211,"x_min":-31,"x_max":1246,"o":"m 676 871 l 676 536 q 753 524 701 524 q 869 554 806 524 q 840 642 840 610 q 865 695 840 674 q 927 717 890 717 q 997 676 964 717 q 1029 597 1029 636 q 957 519 1029 557 l 1040 381 l 890 250 q 849 178 849 213 q 881 118 849 143 q 951 93 913 93 q 1140 226 1060 93 l 1182 179 q 1113 84 1164 132 q 994 36 1063 36 q 848 83 925 36 q 771 200 771 129 q 819 289 771 251 l 967 407 l 914 500 q 792 471 857 471 q 676 494 726 471 l 676 0 l 599 57 l 599 450 l 253 165 l 196 211 l 565 503 q 419 643 485 613 q 350 658 386 658 q 147 585 251 658 l 100 643 q 313 718 197 718 q 599 531 453 718 l 599 871 l 14 871 l -31 938 l 1201 938 l 1246 871 l 676 871 z "},"ऌ":{"ha":1075,"x_min":-78,"x_max":1150,"o":"m 754 579 q 634 526 671 579 q 597 406 597 474 q 611 257 597 338 l 544 275 q 522 410 522 339 q 543 528 522 481 q 412 583 488 583 q 288 532 336 583 q 240 394 240 481 q 475 29 240 231 l 433 0 q 171 431 171 225 q 235 587 171 524 q 392 650 300 650 q 491 626 443 650 q 567 569 539 601 q 708 646 619 646 q 858 607 797 646 l 858 871 l -33 871 l -78 938 l 1106 938 l 1150 871 l 936 871 l 936 111 q 784 57 856 96 q 713 -31 713 18 q 746 -100 713 -79 q 821 -121 779 -121 q 1015 -37 915 -121 l 1068 -83 q 971 -149 1036 -117 q 853 -181 906 -181 q 713 -132 774 -181 q 653 -3 653 -83 q 683 67 653 33 q 747 119 714 100 q 819 154 781 138 q 858 172 857 171 l 858 561 q 754 579 807 579 z "},"ऍ":{"ha":793,"x_min":-76,"x_max":882,"o":"m 665 871 l 665 575 q 640 450 665 497 q 558 363 615 403 l 503 418 q 567 485 547 449 q 588 585 588 522 l 588 871 l 225 871 l 225 443 q 240 364 225 379 q 260 344 254 349 q 285 325 265 340 q 317 301 306 310 l 597 97 q 668 -24 668 47 q 626 -122 668 -75 l 563 -75 q 596 2 596 -39 q 467 139 596 43 q 353 221 460 144 q 179 349 247 297 q 149 404 153 368 q 147 446 147 417 l 147 871 l -31 871 l -76 938 l 838 938 l 882 871 l 665 871 m 371 1111 q 572 1274 485 1111 l 622 1232 q 396 1060 529 1060 q 240 1115 307 1060 q 133 1243 172 1171 l 168 1268 q 253 1160 200 1208 q 371 1111 307 1111 z "},"ऎ":{"ha":793,"x_min":-76,"x_max":882,"o":"m 665 871 l 665 575 q 640 450 665 497 q 558 363 615 403 l 503 418 q 567 485 547 449 q 588 585 588 522 l 588 871 l 225 871 l 225 443 q 240 364 225 379 q 260 344 254 349 q 285 325 265 340 q 317 301 306 310 l 597 97 q 668 -24 668 47 q 626 -122 668 -75 l 563 -75 q 596 2 596 -39 q 467 139 596 43 q 353 221 460 144 q 179 349 247 297 q 149 404 153 368 q 147 446 147 417 l 147 871 l -31 871 l -76 938 l 600 938 q 421 1069 532 1069 l 357 1069 q 181 1133 235 1069 q 143 1185 154 1165 q 117 1239 132 1204 l 151 1268 q 166 1240 156 1261 q 181 1212 176 1219 q 198 1189 186 1204 q 222 1167 210 1174 q 253 1153 233 1161 q 351 1138 282 1138 l 410 1138 q 495 1121 456 1138 q 558 1083 535 1104 q 606 1029 582 1063 q 654 938 629 994 l 838 938 l 882 871 l 665 871 z "},"ए":{"ha":793,"x_min":-76,"x_max":882,"o":"m 665 871 l 665 575 q 640 450 665 497 q 558 363 615 403 l 503 418 q 567 485 547 449 q 588 585 588 522 l 588 871 l 225 871 l 225 443 q 240 364 225 379 q 260 344 254 349 q 285 325 265 340 q 317 301 306 310 l 597 97 q 668 -24 668 47 q 626 -122 668 -75 l 563 -75 q 596 2 596 -39 q 467 139 596 43 q 353 221 460 144 q 179 349 247 297 q 149 404 153 368 q 147 446 147 417 l 147 871 l -31 871 l -76 938 l 838 938 l 882 871 l 665 871 z "},"ऐ":{"ha":793,"x_min":-76,"x_max":882,"o":"m 239 1243 q 319 1264 269 1264 q 417 1240 368 1264 q 498 1187 465 1217 q 564 1104 531 1157 q 656 938 610 1033 l 838 938 l 882 871 l 665 871 l 665 575 q 640 450 665 497 q 558 363 615 403 l 503 418 q 567 485 547 449 q 588 585 588 522 l 588 871 l 225 871 l 225 443 q 240 364 225 379 q 260 344 254 349 q 285 325 265 340 q 317 301 306 310 l 597 97 q 668 -24 668 47 q 626 -122 668 -75 l 563 -75 q 596 2 596 -39 q 467 139 596 43 q 353 221 460 144 q 179 349 247 297 q 149 404 153 368 q 147 446 147 417 l 147 871 l -31 871 l -76 938 l 604 938 q 344 1193 475 1193 q 276 1179 314 1193 l 239 1243 z "},"ऑ":{"ha":1429,"x_min":128,"x_max":1522,"o":"m 1269 871 l 1269 0 l 1192 61 l 1192 871 l 996 871 l 996 0 l 918 51 l 925 488 q 818 451 876 451 q 658 493 760 451 q 710 333 710 419 q 653 186 710 246 q 492 126 596 126 q 382 152 435 126 q 292 215 329 178 q 219 306 254 253 q 128 483 168 385 l 168 504 q 464 190 304 190 q 600 237 550 190 q 650 356 650 283 q 551 550 650 471 q 421 483 494 511 l 383 544 q 617 757 617 629 q 575 850 617 814 q 482 886 533 886 q 294 799 383 886 l 244 850 q 464 951 339 951 q 614 878 553 951 q 675 726 675 804 q 590 581 675 647 q 685 532 628 550 q 781 514 742 514 q 860 532 819 514 q 918 581 901 550 l 918 871 l 803 871 q 758 938 793 886 l 1478 938 l 1522 871 l 1269 871 m 1086 1111 q 1288 1274 1200 1111 l 1338 1232 q 1111 1060 1244 1060 q 955 1115 1022 1060 q 849 1243 888 1171 l 883 1268 q 969 1160 915 1208 q 1086 1111 1022 1111 z "},"ऒ":{"ha":1429,"x_min":128,"x_max":1525,"o":"m 1272 871 l 1272 0 l 1194 61 l 1194 871 l 996 871 l 996 0 l 918 51 l 925 488 q 818 451 876 451 q 658 493 760 451 q 710 333 710 419 q 653 186 710 246 q 492 126 596 126 q 382 152 435 126 q 292 215 329 178 q 219 306 254 253 q 128 483 168 385 l 168 504 q 464 190 304 190 q 600 237 550 190 q 650 356 650 283 q 551 550 650 471 q 421 483 494 511 l 383 544 q 617 757 617 629 q 575 850 617 814 q 482 886 533 886 q 294 799 383 886 l 244 850 q 464 951 339 951 q 614 878 553 951 q 675 726 675 804 q 590 581 675 647 q 685 532 628 550 q 781 514 742 514 q 860 532 819 514 q 918 581 901 550 l 918 871 l 803 871 q 758 938 793 886 l 1210 938 q 1031 1069 1142 1069 l 967 1069 q 792 1133 844 1069 q 753 1185 764 1165 q 726 1239 742 1204 l 761 1268 q 776 1240 765 1261 q 791 1212 786 1219 q 808 1189 796 1204 q 831 1167 819 1174 q 861 1153 843 1161 q 961 1138 892 1138 l 1019 1138 q 1105 1121 1065 1138 q 1168 1083 1144 1104 q 1214 1029 1192 1063 q 1264 938 1239 994 l 1481 938 l 1525 871 l 1272 871 z "},"ओ":{"ha":1429,"x_min":128,"x_max":1525,"o":"m 851 1243 q 931 1264 882 1264 q 1029 1240 981 1264 q 1110 1187 1078 1217 q 1178 1104 1143 1157 q 1268 938 1222 1033 l 1481 938 l 1525 871 l 1272 871 l 1272 0 l 1194 61 l 1194 871 l 996 871 l 996 0 l 918 51 l 925 488 q 818 451 876 451 q 658 493 760 451 q 710 333 710 419 q 653 186 710 246 q 492 126 596 126 q 382 152 435 126 q 292 215 329 178 q 219 306 254 253 q 128 483 168 385 l 168 504 q 464 190 304 190 q 600 237 550 190 q 650 356 650 283 q 551 550 650 471 q 421 483 494 511 l 383 544 q 617 757 617 629 q 575 850 617 814 q 482 886 533 886 q 294 799 383 886 l 244 850 q 464 951 339 951 q 614 878 553 951 q 675 726 675 804 q 590 581 675 647 q 685 532 628 550 q 781 514 742 514 q 860 532 819 514 q 918 581 901 550 l 918 871 l 803 871 q 758 938 793 886 l 1217 938 q 957 1193 1088 1193 q 889 1179 926 1193 l 851 1243 z "},"औ":{"ha":1457,"x_min":128,"x_max":1553,"o":"m 976 1346 q 1289 956 1149 1346 q 1296 938 1294 943 l 1508 938 l 1553 871 l 1300 871 l 1300 0 l 1222 61 l 1222 871 l 996 871 l 996 0 l 918 51 l 925 488 q 818 451 876 451 q 658 493 760 451 q 710 333 710 419 q 653 186 710 246 q 492 126 596 126 q 382 152 435 126 q 292 215 329 178 q 219 306 254 253 q 128 483 168 385 l 168 504 q 464 190 304 190 q 600 237 550 190 q 650 356 650 283 q 551 550 650 471 q 421 483 494 511 l 383 544 q 617 757 617 629 q 575 850 617 814 q 482 886 533 886 q 294 799 383 886 l 244 850 q 464 951 339 951 q 614 878 553 951 q 675 726 675 804 q 590 581 675 647 q 685 532 628 550 q 781 514 742 514 q 860 532 819 514 q 918 581 901 550 l 918 871 l 803 871 q 758 938 793 886 l 1206 938 q 1088 1047 1157 1006 q 947 1089 1019 1089 q 865 1069 908 1089 l 819 1128 q 925 1154 868 1154 q 1096 1100 1011 1154 q 1235 972 1181 1046 q 1210 1031 1229 983 q 1184 1094 1192 1078 q 1158 1147 1176 1110 q 1125 1201 1139 1185 q 1089 1238 1111 1217 q 1005 1275 1051 1275 q 933 1265 958 1275 l 901 1331 q 976 1346 936 1346 z "},"क":{"ha":1119,"x_min":-72,"x_max":1192,"o":"m 346 206 q 157 303 244 206 q 69 510 69 400 q 131 651 69 597 q 282 706 193 706 q 379 688 333 706 l 403 622 q 317 636 361 636 q 190 591 240 636 q 140 466 140 546 q 194 331 140 386 q 318 275 247 275 q 532 438 443 275 l 532 871 l -28 871 l -72 938 l 1147 938 l 1192 871 l 610 871 l 601 592 q 680 670 631 638 q 779 703 729 703 q 975 603 896 703 q 1054 403 1054 503 q 997 256 1054 304 q 851 208 939 208 q 760 222 803 208 l 735 288 q 833 274 790 274 q 992 424 992 274 q 944 567 992 501 q 822 633 897 633 q 699 592 747 633 q 610 469 651 550 l 610 0 l 532 57 l 540 331 q 451 238 503 271 q 346 206 399 206 z "},"ख":{"ha":1118,"x_min":-72,"x_max":1190,"o":"m 192 447 q 269 532 269 447 l 269 871 l -28 871 l -72 938 l 1146 938 l 1190 871 l 979 871 l 979 0 l 901 63 l 910 249 q 787 118 875 183 q 593 53 699 53 q 449 78 518 53 q 329 141 379 104 q 227 239 279 178 q 144 347 175 300 q 69 465 113 394 l 99 493 q 192 447 144 447 m 344 507 q 304 410 344 450 q 196 365 264 371 q 351 194 251 271 q 560 117 450 117 q 821 250 721 117 q 810 250 815 250 q 589 313 679 250 q 499 500 499 376 q 551 631 499 578 q 688 683 604 683 q 900 574 828 683 l 901 871 l 344 871 l 344 507 m 904 444 q 846 574 904 521 q 719 628 788 628 q 606 588 650 628 q 563 476 563 547 q 612 360 563 404 q 714 306 661 317 q 799 294 767 294 q 856 297 831 294 q 889 357 874 317 q 904 444 904 397 z "},"ग":{"ha":744,"x_min":-72,"x_max":817,"o":"m 606 871 l 606 0 l 528 63 l 528 871 l 258 871 l 258 411 q 226 344 258 344 q 139 401 189 344 q 89 499 89 457 q 181 533 89 533 l 181 871 l -28 871 l -72 938 l 772 938 l 817 871 l 606 871 z "},"घ":{"ha":864,"x_min":-72,"x_max":936,"o":"m 425 157 q 200 239 301 157 q 99 423 99 321 q 204 565 99 525 q 124 646 151 597 q 97 736 97 694 q 117 815 97 778 q 175 874 138 853 l 58 871 l -28 871 l -72 938 l 892 938 l 936 871 l 725 871 l 725 0 l 647 57 l 653 288 q 543 191 603 225 q 425 157 483 157 m 357 518 q 168 392 168 518 q 233 272 168 321 q 383 222 299 222 q 536 273 468 222 q 647 390 604 324 l 647 871 l 292 871 q 204 816 242 858 q 167 711 167 774 q 251 578 167 649 q 341 588 294 588 q 433 581 388 588 l 458 510 q 357 518 408 518 z "},"ङ":{"ha":821,"x_min":-74,"x_max":892,"o":"m 375 94 q 542 148 476 94 q 608 274 608 201 q 584 342 608 313 q 511 371 560 371 q 418 342 490 371 q 306 314 346 314 q 179 381 240 314 q 118 529 118 449 q 165 656 118 610 q 292 701 211 701 l 518 701 l 518 871 l -28 871 l -74 938 l 849 938 l 892 871 l 596 871 l 596 629 l 313 629 q 175 503 175 629 q 206 416 175 453 q 274 379 236 379 q 388 408 311 379 q 494 438 465 438 q 615 373 564 438 q 665 235 665 308 q 594 97 665 161 q 404 32 524 32 q 226 90 314 32 q 72 243 138 147 l 107 274 q 233 143 161 192 q 375 94 304 94 m 668 494 l 732 558 l 799 494 l 732 429 l 668 494 z "},"च":{"ha":949,"x_min":-72,"x_max":1021,"o":"m 738 319 q 624 211 682 249 q 477 174 567 174 q 293 257 388 174 q 199 443 199 340 q 230 532 199 488 q 304 593 261 576 l 58 590 l 13 660 l 561 660 l 607 590 l 467 590 q 326 530 382 576 q 271 411 271 483 q 325 290 271 339 q 450 240 379 240 q 732 429 615 240 l 732 871 l -28 871 l -72 938 l 976 938 l 1021 871 l 810 871 l 810 0 l 732 57 l 738 319 z "},"छ":{"ha":965,"x_min":-72,"x_max":1038,"o":"m 351 404 q 197 289 197 404 q 252 182 197 225 q 401 139 307 139 q 683 254 558 139 q 560 388 603 322 q 517 535 517 454 q 557 676 517 617 q 668 743 597 735 l 668 871 l -28 871 l -72 938 l 993 938 l 1038 871 l 746 871 l 746 736 q 844 646 810 714 q 878 503 878 578 q 775 243 878 363 q 953 128 835 199 l 913 81 q 740 207 813 149 q 442 78 604 78 q 217 152 310 78 q 124 336 124 226 q 194 444 124 408 q 85 608 85 524 q 147 731 85 692 q 303 769 210 769 q 406 758 353 769 l 431 688 q 329 696 379 696 q 161 581 161 696 q 243 461 161 525 q 341 474 293 474 q 417 468 389 474 l 443 396 q 351 404 389 404 m 581 506 q 717 288 581 396 q 818 540 818 403 q 795 646 818 603 q 715 689 772 689 q 619 633 657 689 q 581 506 581 578 z "},"ज":{"ha":1007,"x_min":-72,"x_max":1079,"o":"m 790 547 l 464 547 q 579 315 579 447 q 534 196 579 244 q 421 147 489 147 q 301 178 353 147 q 214 249 249 208 q 145 355 179 289 q 95 464 111 421 q 57 571 79 507 l 101 597 q 213 333 165 408 q 382 210 288 210 q 482 246 444 210 q 519 346 519 282 q 474 469 519 410 q 436 517 447 503 q 385 569 425 531 l 344 608 l 350 617 l 790 617 l 790 871 l -28 871 l -72 938 l 1035 938 l 1079 871 l 868 871 l 868 0 l 790 57 l 790 547 z "},"झ":{"ha":1040,"x_min":-74,"x_max":1111,"o":"m 696 375 q 597 390 650 375 q 646 272 646 333 q 592 158 646 210 q 471 82 539 106 q 342 58 403 58 l 550 -154 l 499 -190 l 275 69 q 148 135 203 90 q 93 225 93 181 q 111 253 93 242 q 149 265 129 265 q 194 243 169 265 q 294 124 226 213 q 319 122 307 122 q 497 168 406 122 q 588 300 588 214 q 560 368 588 342 q 499 394 532 394 q 394 369 465 394 q 285 343 322 343 q 158 413 221 343 q 96 559 96 482 q 148 680 96 636 q 275 724 200 724 l 497 724 l 497 871 l -28 871 l -74 938 l 1068 938 l 1111 871 l 901 871 l 901 0 l 825 57 l 829 425 q 696 375 772 375 m 824 871 l 575 871 l 575 651 l 296 651 q 196 622 239 651 q 153 535 153 592 q 183 443 153 478 q 253 408 213 408 q 369 435 294 408 q 467 461 443 461 q 553 445 490 461 q 651 429 617 429 q 824 514 760 429 l 824 871 z "},"ञ":{"ha":1036,"x_min":-74,"x_max":1108,"o":"m 356 282 q 507 334 449 282 q 565 481 565 386 q 522 589 565 544 q 400 633 478 633 q 322 615 361 633 q 264 574 283 596 l 214 628 q 374 699 289 699 q 626 488 549 699 q 692 467 665 467 q 819 544 765 467 l 819 871 l -28 871 l -74 938 l 1064 938 l 1108 871 l 897 871 l 897 0 l 819 81 l 825 443 q 722 399 769 399 q 629 433 674 399 q 548 275 613 329 q 392 221 483 221 q 176 322 276 221 q 97 410 126 374 q 25 507 68 446 l 57 536 q 201 357 143 411 q 356 282 283 282 z "},"ट":{"ha":713,"x_min":-72,"x_max":785,"o":"m 579 871 l 579 611 l 375 611 q 220 559 290 611 q 150 389 150 507 q 228 226 150 293 q 418 158 306 158 q 618 244 531 158 l 664 186 q 574 119 635 149 q 444 89 513 89 q 195 193 310 89 q 81 431 81 297 q 147 608 81 535 q 342 681 213 681 l 501 681 l 501 871 l -28 871 l -72 938 l 740 938 l 785 871 l 579 871 z "},"ठ":{"ha":797,"x_min":-72,"x_max":869,"o":"m 572 871 l 572 622 q 721 364 721 526 q 644 171 721 249 q 447 93 567 93 q 192 197 304 93 q 81 444 81 300 q 147 613 81 544 q 336 681 214 681 l 494 681 l 494 871 l -28 871 l -72 938 l 825 938 l 869 871 l 572 871 m 657 388 q 615 517 657 458 q 511 611 572 576 l 394 611 q 150 396 150 611 q 226 228 150 297 q 409 158 301 158 q 587 219 517 158 q 657 388 657 281 z "},"ड":{"ha":731,"x_min":-74,"x_max":801,"o":"m 375 94 q 542 148 476 94 q 608 274 608 201 q 584 342 608 313 q 511 371 560 371 q 418 342 490 371 q 306 314 346 314 q 179 381 240 314 q 118 529 118 449 q 165 656 118 610 q 292 701 211 701 l 518 701 l 518 871 l -28 871 l -74 938 l 758 938 l 801 871 l 596 871 l 596 629 l 313 629 q 175 503 175 629 q 206 416 175 453 q 274 379 236 379 q 388 408 311 379 q 494 438 465 438 q 615 373 564 438 q 665 235 665 308 q 594 97 665 161 q 404 32 524 32 q 226 90 314 32 q 72 243 138 147 l 107 274 q 233 143 161 192 q 375 94 304 94 z "},"ढ":{"ha":728,"x_min":-72,"x_max":800,"o":"m 568 871 l 568 615 l 390 615 q 146 400 146 615 q 222 231 146 301 q 404 158 299 160 q 366 217 385 178 q 347 312 347 256 q 389 415 347 368 q 500 461 431 461 q 624 410 569 461 q 678 280 678 358 q 603 149 678 201 q 440 97 528 97 q 188 200 296 97 q 81 449 81 303 q 145 617 81 550 q 332 685 210 685 l 490 685 l 490 871 l -28 871 l -72 938 l 756 938 l 800 871 l 568 871 m 520 403 q 496 403 520 403 q 441 366 472 403 q 410 269 410 329 q 453 161 410 208 q 569 211 521 172 q 617 314 617 250 q 592 378 617 354 q 520 403 568 403 z "},"ण":{"ha":997,"x_min":-72,"x_max":1071,"o":"m 858 871 l 858 0 l 781 57 l 781 871 l 538 871 l 538 486 q 489 355 538 407 q 360 303 440 303 q 190 381 279 303 q 101 588 101 458 l 101 871 l -28 871 l -72 938 l 1025 938 l 1071 871 l 858 871 m 176 564 q 216 419 176 472 q 327 365 256 365 q 431 404 399 365 q 463 528 463 443 l 463 871 l 176 871 l 176 564 z "},"त":{"ha":758,"x_min":-72,"x_max":831,"o":"m 619 871 l 619 0 l 542 57 l 542 542 l 328 542 q 194 497 240 542 q 149 372 149 453 q 300 28 149 231 l 263 0 q 83 414 83 236 q 143 558 83 504 q 311 611 203 611 l 542 611 l 542 871 l -28 871 l -72 938 l 786 938 l 831 871 l 619 871 z "},"थ":{"ha":874,"x_min":111,"x_max":946,"o":"m 430 647 q 400 624 430 647 q 311 565 371 600 q 238 521 251 529 q 186 456 186 489 q 247 353 186 396 q 378 310 307 310 q 537 374 449 310 q 657 494 625 438 l 657 871 l 542 871 l 497 938 l 901 938 l 946 871 l 735 871 l 735 0 l 657 57 l 663 390 q 533 284 604 322 q 404 246 461 246 q 203 329 294 246 q 111 501 111 413 q 143 549 111 528 q 216 589 157 557 q 315 646 275 621 q 392 710 356 671 q 429 788 429 749 q 398 858 429 826 q 317 890 367 890 q 231 860 267 890 q 196 783 196 829 q 246 696 196 736 l 215 669 q 135 815 135 738 q 178 908 135 867 q 295 949 222 949 q 428 887 368 949 q 489 760 489 825 q 430 647 489 694 z "},"द":{"ha":756,"x_min":-72,"x_max":828,"o":"m 574 611 l 393 611 q 151 401 151 611 q 222 244 151 314 q 375 175 292 175 q 449 186 417 175 q 494 208 482 197 l 506 218 q 461 319 461 283 q 490 377 461 354 q 555 400 519 400 q 622 358 590 400 q 653 274 653 317 q 590 181 653 232 l 736 10 l 686 -28 l 553 154 q 406 111 479 111 q 203 199 300 111 q 115 312 149 246 q 82 444 82 378 q 151 613 82 544 q 340 681 219 681 l 496 681 l 496 871 l -28 871 l -72 938 l 783 938 l 828 871 l 574 871 l 574 611 z "},"ध":{"ha":836,"x_min":-72,"x_max":908,"o":"m 697 871 l 697 0 l 619 57 l 622 290 q 516 209 575 240 q 406 178 457 178 q 199 258 292 178 q 107 439 107 338 q 213 578 107 540 q 135 651 168 608 q 101 743 101 694 q 176 872 101 828 l 4 871 l -28 871 l -72 938 l 332 938 l 376 871 l 303 871 q 211 817 247 857 q 175 726 175 776 q 264 592 176 656 q 326 596 289 596 q 413 588 364 596 l 438 515 q 347 524 371 524 q 228 496 276 524 q 179 401 179 468 q 231 290 179 333 q 366 247 282 247 q 515 293 450 247 q 619 396 579 339 l 619 871 l 542 871 l 497 938 l 864 938 l 908 871 l 697 871 z "},"न":{"ha":744,"x_min":-72,"x_max":818,"o":"m 528 488 l 244 488 l 244 354 q 217 324 244 324 q 124 392 176 324 q 71 514 71 460 q 136 563 71 563 l 528 563 l 528 871 l -28 871 l -72 938 l 772 938 l 818 871 l 606 871 l 606 0 l 528 57 l 528 488 z "},"ऩ":{"ha":763,"x_min":15,"x_max":890,"o":"m 600 488 l 317 488 l 317 354 q 289 324 317 324 q 196 392 249 324 q 143 514 143 460 q 208 563 143 563 l 600 563 l 600 871 l 60 871 l 15 938 l 844 938 l 890 871 l 678 871 l 678 0 l 600 57 l 600 488 m 360 76 l 283 0 l 204 76 l 281 154 l 360 76 z "},"प":{"ha":754,"x_min":-74,"x_max":825,"o":"m 615 871 l 615 0 l 538 57 l 547 394 q 470 338 517 364 q 378 313 424 313 q 206 400 293 313 q 119 590 119 488 l 119 871 l -28 871 l -74 938 l 782 938 l 825 871 l 615 871 m 197 547 q 240 428 197 475 q 343 382 283 382 q 457 417 403 382 q 538 499 511 451 l 538 871 l 197 871 l 197 547 z "},"फ":{"ha":1129,"x_min":-72,"x_max":1201,"o":"m 522 401 q 364 333 449 333 q 197 422 279 333 q 115 617 115 511 l 115 871 l -28 871 l -72 938 l 1157 938 l 1201 871 l 597 871 l 593 569 q 774 654 668 654 q 965 564 879 654 q 1051 373 1051 474 q 987 217 1051 272 q 826 161 922 161 q 763 168 797 161 l 739 235 q 813 226 776 226 q 940 269 892 226 q 989 390 989 311 q 939 527 989 468 q 814 586 889 586 q 597 453 667 586 l 597 0 l 517 57 l 522 401 m 332 403 q 521 507 439 403 l 521 871 l 193 871 l 193 568 q 232 451 193 499 q 332 403 271 403 z "},"ब":{"ha":793,"x_min":-74,"x_max":865,"o":"m 654 871 l 654 0 l 578 79 l 582 346 q 477 249 540 292 q 356 207 414 207 q 156 292 249 207 q 63 488 63 378 q 135 669 63 599 q 305 739 208 739 q 499 646 401 739 l 474 608 q 340 672 413 672 q 213 632 267 672 l 479 344 q 576 457 533 393 l 576 871 l -28 871 l -74 938 l 821 938 l 865 871 l 654 871 m 324 268 q 449 318 381 268 l 182 604 q 131 465 131 544 q 187 326 131 385 q 324 268 243 268 z "},"भ":{"ha":779,"x_min":-72,"x_max":851,"o":"m 640 871 l 640 0 l 563 61 l 563 413 l 254 413 l 254 307 q 226 276 254 276 q 133 332 185 276 q 81 436 81 388 q 99 474 81 464 q 176 485 118 485 l 176 744 q 148 835 176 800 q 67 871 119 871 l -28 871 l -72 938 l 22 938 q 153 890 99 938 l 188 858 q 254 710 254 794 l 254 485 l 563 485 l 563 871 l 374 871 l 329 938 l 807 938 l 851 871 l 640 871 z "},"म":{"ha":810,"x_min":-72,"x_max":882,"o":"m 146 485 l 176 485 l 176 871 l -28 871 l -72 938 l 838 938 l 882 871 l 671 871 l 671 0 l 593 61 l 593 413 l 254 413 l 254 307 q 226 276 254 276 q 133 332 185 276 q 81 436 81 388 q 146 485 81 485 m 254 871 l 254 485 l 593 485 l 593 871 l 254 871 z "},"य":{"ha":838,"x_min":-72,"x_max":910,"o":"m 699 871 l 699 0 l 621 61 l 622 369 q 404 244 519 244 q 190 338 289 244 q 90 524 90 431 q 115 557 90 544 q 324 732 324 661 q 294 805 324 767 q 214 871 264 843 l -28 871 l -72 938 l 865 938 l 910 871 l 699 871 m 169 467 q 235 358 169 407 q 378 310 301 310 q 520 361 454 310 q 621 481 586 413 l 621 871 l 289 871 q 368 789 343 836 q 393 713 393 742 q 384 664 393 683 q 352 625 375 644 q 315 595 329 606 q 265 563 301 585 q 224 537 229 540 q 210 527 219 533 q 199 519 201 521 q 188 510 196 517 q 178 497 181 503 q 169 467 169 481 z "},"र":{"ha":547,"x_min":-72,"x_max":619,"o":"m 363 871 l 363 500 q 329 416 363 453 q 225 375 296 379 q 507 39 294 271 l 447 0 q 83 468 174 332 l 121 503 q 214 454 172 454 q 288 539 288 454 l 288 871 l -28 871 l -72 938 l 575 938 l 619 871 l 363 871 z "},"ऱ":{"ha":547,"x_min":-72,"x_max":619,"o":"m 363 871 l 363 500 q 329 416 363 453 q 225 375 296 379 q 507 39 294 271 l 447 0 q 83 468 174 332 l 121 503 q 214 454 172 454 q 288 539 288 454 l 288 871 l -28 871 l -72 938 l 575 938 l 619 871 l 363 871 m 113 47 l 176 111 l 243 47 l 176 -18 l 113 47 z "},"ल":{"ha":997,"x_min":-72,"x_max":1069,"o":"m 467 275 q 444 410 444 339 q 465 528 444 481 q 334 583 410 583 q 210 532 258 583 q 163 394 163 481 q 397 29 163 231 l 356 0 q 93 431 93 225 q 158 587 93 524 q 314 650 222 650 q 413 626 365 650 q 489 569 461 601 q 631 646 542 646 q 781 607 719 646 l 781 871 l -28 871 l -72 938 l 1025 938 l 1069 871 l 858 871 l 858 0 l 781 61 l 781 561 q 676 579 729 579 q 556 526 593 579 q 519 406 519 474 q 533 257 519 338 l 467 275 z "},"ळ":{"ha":1035,"x_min":-72,"x_max":1107,"o":"m 511 289 q 341 172 439 172 q 172 258 243 172 q 100 444 100 344 q 170 620 100 543 q 340 697 240 697 q 458 669 404 697 q 575 575 511 640 q 721 696 639 683 l 721 871 l -28 871 l -72 938 l 1063 938 l 1107 871 l 799 871 l 799 690 q 927 588 875 665 q 979 429 979 511 q 913 247 979 321 q 751 174 847 174 q 633 203 699 174 q 511 289 567 233 m 369 635 q 221 569 278 635 q 164 419 164 504 q 210 283 164 335 q 318 232 256 232 q 432 294 386 232 q 501 417 467 343 q 554 536 540 507 q 462 610 503 586 q 369 635 421 635 m 535 328 q 723 235 635 235 q 866 299 811 235 q 921 448 921 364 q 874 584 921 532 q 767 636 826 636 q 666 584 708 636 q 585 440 624 532 q 535 328 546 349 z "},"ऴ":{"ha":1035,"x_min":-72,"x_max":1107,"o":"m 511 289 q 341 172 439 172 q 172 258 243 172 q 100 444 100 344 q 170 620 100 543 q 340 697 240 697 q 458 669 404 697 q 575 575 511 640 q 721 696 639 683 l 721 871 l -28 871 l -72 938 l 1063 938 l 1107 871 l 799 871 l 799 690 q 927 588 875 665 q 979 429 979 511 q 913 247 979 321 q 751 174 847 174 q 633 203 699 174 q 511 289 567 233 m 369 635 q 221 569 278 635 q 164 419 164 504 q 210 283 164 335 q 318 232 256 232 q 432 294 386 232 q 501 417 467 343 q 554 536 540 507 q 462 610 503 586 q 369 635 421 635 m 535 328 q 723 235 635 235 q 866 299 811 235 q 921 448 921 364 q 874 584 921 532 q 767 636 826 636 q 666 584 708 636 q 585 440 624 532 q 535 328 546 349 m 686 -11 l 750 53 l 817 -11 l 750 -76 l 686 -11 z "},"व":{"ha":788,"x_min":-74,"x_max":860,"o":"m 649 871 l 649 0 l 572 79 l 576 339 q 472 254 535 290 q 357 218 410 218 q 159 299 247 218 q 71 492 71 381 q 142 671 71 603 q 311 739 213 739 q 507 646 410 739 l 481 607 q 335 672 425 672 q 192 610 246 672 q 138 471 138 549 q 188 336 138 393 q 325 279 238 279 q 441 322 375 279 q 571 446 507 364 l 571 871 l -28 871 l -74 938 l 815 938 l 860 871 l 649 871 z "},"श":{"ha":969,"x_min":99,"x_max":1043,"o":"m 126 496 q 291 429 196 429 q 452 497 386 429 q 518 681 518 564 q 478 824 518 765 q 376 882 438 882 q 276 844 315 882 q 238 749 238 806 q 270 656 238 693 q 358 603 303 619 l 336 563 q 220 647 269 590 q 171 773 171 703 q 219 894 171 843 q 342 944 268 944 q 513 853 443 944 q 582 657 582 763 q 489 431 582 515 q 304 360 413 360 q 257 363 281 360 q 544 40 318 274 l 488 0 q 99 471 247 274 l 126 496 m 831 871 l 831 0 l 753 57 l 753 871 l 644 871 l 600 938 l 997 938 l 1043 871 l 831 871 z "},"ष":{"ha":760,"x_min":-72,"x_max":831,"o":"m 621 871 l 621 0 l 543 61 l 546 381 q 385 306 471 306 q 208 397 299 306 q 118 590 118 488 l 118 871 l -28 871 l -72 938 l 788 938 l 831 871 l 621 871 m 344 375 q 525 461 454 375 l 196 810 l 196 547 q 242 424 196 474 q 344 375 288 375 m 543 871 l 196 871 l 543 501 l 543 871 z "},"स":{"ha":903,"x_min":-72,"x_max":975,"o":"m 557 385 q 325 476 440 385 q 190 375 308 382 q 472 39 260 271 l 413 0 q 49 468 139 332 l 86 503 q 179 454 138 454 q 253 539 253 454 l 253 871 l -28 871 l -72 938 l 931 938 l 975 871 l 764 871 l 764 0 l 689 61 l 689 432 q 557 385 632 385 m 328 871 l 328 538 q 513 458 422 458 q 689 528 628 458 l 689 871 l 328 871 z "},"ह":{"ha":694,"x_min":-72,"x_max":767,"o":"m 442 119 q 522 187 492 143 q 553 274 553 231 q 517 350 553 318 q 401 382 481 382 q 253 325 321 382 q 186 183 186 268 q 239 58 186 117 q 288 8 265 29 q 351 -42 310 -14 q 472 -115 413 -82 l 514 -139 l 469 -168 q 426 -142 465 -165 q 363 -104 386 -119 q 299 -59 340 -89 q 230 -2 257 -29 q 175 60 203 25 q 118 208 118 128 q 207 386 118 311 q 103 575 103 481 q 140 658 103 628 q 244 689 178 689 l 481 689 l 481 871 l -28 871 l -72 938 l 722 938 l 767 871 l 558 871 l 558 619 l 335 619 q 211 600 238 619 q 183 535 183 578 q 244 411 183 472 q 374 447 307 447 q 549 380 486 447 q 613 232 613 313 q 578 137 613 182 q 492 64 543 92 l 442 119 z "},"़":{"ha":0,"x_min":-636,"x_max":-506,"o":"m -636 -10 l -572 54 l -506 -10 l -572 -75 l -636 -10 z "},"ऽ":{"ha":844,"x_min":74,"x_max":707,"o":"m 667 238 q 608 92 667 154 q 439 31 549 31 q 314 56 376 31 q 204 119 251 81 q 74 258 115 193 l 110 292 q 237 161 151 228 q 408 94 322 94 q 597 247 597 94 q 497 433 597 336 l 286 639 q 213 736 242 683 q 185 833 185 789 q 325 936 185 936 l 635 936 l 707 871 l 356 871 q 292 850 315 871 q 269 792 269 829 q 365 642 269 728 l 517 500 q 626 365 585 436 q 667 238 667 293 z "},"ा":{"ha":356,"x_min":-72,"x_max":428,"o":"m 217 871 l 217 0 l 139 61 l 139 871 l -28 871 l -72 938 l 383 938 l 428 871 l 217 871 z "},"ि":{"ha":356,"x_min":-115,"x_max":963,"o":"m 139 871 l -69 871 l -115 938 l 149 938 q 86 1082 86 993 q 163 1213 86 1171 q 338 1254 240 1254 q 672 1187 508 1254 q 963 1011 835 1119 l 932 985 q 372 1192 640 1192 q 150 1044 150 1192 q 173 976 150 1013 q 214 938 196 940 l 425 938 l 471 871 l 217 871 l 217 0 l 139 58 l 139 871 z "},"ी":{"ha":356,"x_min":-300,"x_max":471,"o":"m 217 871 l 217 0 l 139 81 l 139 871 l -71 871 l -117 938 l 138 938 q 42 1106 83 1051 q -38 1183 1 1161 q -126 1204 -78 1204 q -208 1178 -175 1204 q -240 1101 -240 1153 q -196 1025 -240 1050 l -229 1004 q -280 1055 -260 1021 q -300 1131 -300 1089 q -257 1229 -300 1194 q -152 1264 -214 1264 q -38 1237 -90 1264 q 56 1158 14 1210 q 188 938 121 1075 l 425 938 l 471 871 l 217 871 z "},"ु":{"ha":0,"x_min":-560,"x_max":-35,"o":"m -328 -61 q -289 31 -322 -3 q -199 64 -256 64 q -88 10 -142 64 q -35 -106 -35 -43 q -85 -215 -35 -168 q -224 -262 -136 -262 q -401 -208 -311 -262 q -560 -65 -492 -153 l -525 -36 q -243 -200 -387 -200 q -137 -164 -179 -200 q -94 -84 -94 -128 q -118 -18 -94 -40 q -179 4 -142 4 q -240 -25 -217 4 q -268 -97 -264 -54 l -328 -61 z "},"ू":{"ha":0,"x_min":-403,"x_max":138,"o":"m -207 -1 q -292 -30 -251 -1 q -333 -108 -333 -58 q -311 -181 -333 -158 q -250 -204 -289 -204 q -189 -178 -211 -204 q -161 -108 -167 -151 l -100 -149 q -140 -233 -108 -199 q -219 -268 -171 -268 q -347 -209 -292 -268 q -403 -85 -403 -150 q -352 23 -403 -19 q -231 65 -301 65 q 138 -204 -42 65 l 104 -235 q -52 -62 29 -124 q -207 -1 -133 -1 z "},"ृ":{"ha":0,"x_min":-408,"x_max":-3,"o":"m -311 -78 q -347 -149 -347 -110 q -311 -217 -347 -189 q -228 -246 -275 -246 q -56 -162 -139 -246 l -3 -208 q -94 -275 -39 -244 q -204 -306 -150 -306 q -345 -249 -282 -306 q -408 -111 -408 -193 q -380 -42 -408 -75 q -321 8 -351 -10 q -254 44 -290 26 q -217 61 -218 61 l -139 4 l -139 0 q -311 -78 -247 -19 z "},"ॅ":{"ha":0,"x_min":-451,"x_max":38,"o":"m -214 1111 q -12 1274 -100 1111 l 38 1232 q -189 1060 -56 1060 q -345 1115 -278 1060 q -451 1243 -412 1171 l -417 1268 q -331 1160 -385 1208 q -214 1111 -278 1111 z "},"ॆ":{"ha":0,"x_min":-694,"x_max":-156,"o":"m -383 1069 l -447 1069 q -622 1124 -569 1069 q -664 1175 -650 1151 q -694 1239 -678 1199 l -660 1268 q -633 1213 -643 1229 q -601 1175 -624 1197 q -453 1138 -564 1138 l -394 1138 q -294 1117 -337 1138 q -226 1066 -250 1097 q -187 1006 -201 1035 q -165 950 -172 978 q -156 921 -157 922 l -196 897 q -210 934 -199 904 q -231 981 -221 964 q -260 1022 -240 999 q -383 1069 -299 1069 z "},"े":{"ha":0,"x_min":-581,"x_max":-149,"o":"m -581 1243 q -510 1264 -550 1264 q -441 1256 -471 1264 q -384 1231 -411 1249 q -335 1199 -357 1214 q -291 1153 -314 1183 q -254 1105 -268 1122 q -220 1050 -240 1088 q -193 1000 -200 1013 q -149 906 -157 931 l -190 888 q -386 1167 -296 1110 q -467 1193 -429 1193 q -543 1179 -506 1193 l -581 1243 z "},"ै":{"ha":0,"x_min":-619,"x_max":-135,"o":"m -537 1331 q -458 1346 -503 1346 q -369 1318 -414 1346 q -295 1255 -325 1290 q -234 1161 -265 1219 q -189 1067 -203 1103 q -156 975 -175 1031 q -135 917 -136 919 l -201 888 q -327 1032 -249 975 q -492 1089 -406 1089 q -574 1069 -531 1089 l -619 1128 q -514 1154 -571 1154 q -328 1090 -424 1154 q -185 938 -233 1026 q -357 1242 -278 1176 q -440 1275 -399 1275 q -506 1265 -481 1275 l -537 1331 z "},"ॉ":{"ha":401,"x_min":-87,"x_max":497,"o":"m 244 871 l 244 0 l 167 61 l 167 871 l -43 871 l -87 938 l 453 938 l 497 871 l 244 871 m 157 1111 q 360 1274 272 1111 l 410 1232 q 188 1060 317 1060 q 73 1093 129 1060 q -14 1160 17 1126 q -79 1243 -44 1194 l -44 1268 q 157 1111 58 1111 z "},"ॊ":{"ha":401,"x_min":-311,"x_max":497,"o":"m 244 871 l 244 0 l 167 61 l 167 871 l -43 871 l -87 938 l 172 938 q -7 1069 104 1069 l -71 1069 q -247 1133 -192 1069 q -285 1185 -274 1165 q -311 1239 -296 1204 l -276 1268 q -262 1240 -272 1261 q -247 1212 -251 1219 q -230 1189 -242 1204 q -206 1167 -218 1174 q -175 1153 -194 1161 q -76 1138 -146 1138 l -18 1138 q 67 1121 28 1138 q 131 1083 107 1104 q 178 1029 154 1063 q 226 938 201 994 l 453 938 l 497 871 l 244 871 z "},"ो":{"ha":356,"x_min":-225,"x_max":469,"o":"m 217 871 l 217 0 l 139 61 l 139 871 l -71 871 l -115 938 l 140 938 q -119 1193 11 1193 q -187 1179 -150 1193 l -225 1243 q -145 1264 -194 1264 q -47 1240 -96 1264 q 34 1187 1 1217 q 100 1104 67 1157 q 192 938 146 1033 l 425 938 l 469 871 l 217 871 z "},"ौ":{"ha":356,"x_min":-267,"x_max":428,"o":"m 217 871 l 217 0 l 139 61 l 139 871 l -28 871 l -72 938 l 119 938 q 2 1047 71 1006 q -139 1089 -67 1089 q -221 1069 -178 1089 l -267 1128 q -161 1154 -218 1154 q 24 1090 -71 1154 q 168 938 119 1026 q -4 1242 75 1176 q -87 1275 -46 1275 q -153 1265 -128 1275 l -185 1331 q -110 1346 -150 1346 q 193 988 67 1346 q 204 954 197 976 l 210 938 l 383 938 l 428 871 l 217 871 z "},"्":{"ha":0,"x_min":-328,"x_max":57,"o":"m -328 -103 q -242 -78 -287 -78 q -157 -96 -197 -78 q -78 -151 -117 -114 q 15 -258 -21 -208 q 57 -315 51 -308 l 21 -342 q -1 -311 17 -336 q -28 -274 -19 -286 q -58 -239 -37 -262 q -94 -202 -78 -215 q -131 -175 -110 -189 q -213 -146 -171 -146 q -285 -161 -256 -146 l -328 -103 z "},"ॐ":{"ha":1608,"x_min":0,"x_max":0,"o":""},"॑":{"ha":415,"x_min":174,"x_max":242,"o":"m 242 1018 l 174 1018 l 174 1328 l 242 1328 l 242 1018 z "},"॒":{"ha":0,"x_min":-687,"x_max":-128,"o":"m -128 -203 l -128 -272 l -687 -272 l -687 -203 l -128 -203 z "},"॓":{"ha":503,"x_min":122,"x_max":396,"o":"m 396 1079 l 343 1038 l 122 1310 l 176 1354 l 396 1079 z "},"॔":{"ha":606,"x_min":175,"x_max":449,"o":"m 228 1038 l 175 1079 l 394 1354 l 449 1310 l 228 1038 z "},"क़":{"ha":1119,"x_min":-72,"x_max":1192,"o":"m 346 206 q 157 303 244 206 q 69 510 69 400 q 131 651 69 597 q 282 706 193 706 q 379 688 333 706 l 403 622 q 317 636 361 636 q 190 591 240 636 q 140 466 140 546 q 194 331 140 386 q 318 275 247 275 q 532 438 443 275 l 532 871 l -28 871 l -72 938 l 1147 938 l 1192 871 l 610 871 l 601 592 q 680 670 631 638 q 779 703 729 703 q 975 603 896 703 q 1054 403 1054 503 q 997 256 1054 304 q 851 208 939 208 q 760 222 803 208 l 735 288 q 833 274 790 274 q 992 424 992 274 q 944 567 992 501 q 822 633 897 633 q 699 592 747 633 q 610 469 651 550 l 610 0 l 532 57 l 540 331 q 451 238 503 271 q 346 206 399 206 m 254 -10 l 318 54 l 385 -10 l 318 -75 l 254 -10 z "},"ख़":{"ha":1118,"x_min":-72,"x_max":1190,"o":"m 192 447 q 269 532 269 447 l 269 871 l -28 871 l -72 938 l 1146 938 l 1190 871 l 979 871 l 979 0 l 901 63 l 910 249 q 787 118 875 183 q 593 53 699 53 q 449 78 518 53 q 329 141 379 104 q 227 239 279 178 q 144 347 175 300 q 69 465 113 394 l 99 493 q 192 447 144 447 m 344 507 q 304 410 344 450 q 196 365 264 371 q 351 194 251 271 q 560 117 450 117 q 821 250 721 117 q 810 250 815 250 q 589 313 679 250 q 499 500 499 376 q 551 631 499 578 q 688 683 604 683 q 900 574 828 683 l 901 871 l 344 871 l 344 507 m 904 444 q 846 574 904 521 q 719 628 788 628 q 606 588 650 628 q 563 476 563 547 q 612 360 563 404 q 714 306 661 317 q 799 294 767 294 q 856 297 831 294 q 889 357 874 317 q 904 444 904 397 m 143 -10 l 207 54 l 274 -10 l 207 -75 l 143 -10 z "},"ग़":{"ha":744,"x_min":-72,"x_max":817,"o":"m 606 871 l 606 0 l 528 63 l 528 871 l 258 871 l 258 411 q 226 344 258 344 q 139 401 189 344 q 89 499 89 457 q 181 533 89 533 l 181 871 l -28 871 l -72 938 l 772 938 l 817 871 l 606 871 m 154 33 l 218 97 l 285 33 l 218 -32 l 154 33 z "},"ज़":{"ha":1007,"x_min":-72,"x_max":1079,"o":"m 790 547 l 464 547 q 579 315 579 447 q 534 196 579 244 q 421 147 489 147 q 301 178 353 147 q 214 249 249 208 q 145 355 179 289 q 95 464 111 421 q 57 571 79 507 l 101 597 q 213 333 165 408 q 382 210 288 210 q 482 246 444 210 q 519 346 519 282 q 474 469 519 410 q 436 517 447 503 q 385 569 425 531 l 344 608 l 350 617 l 790 617 l 790 871 l -28 871 l -72 938 l 1035 938 l 1079 871 l 868 871 l 868 0 l 790 57 l 790 547 m 115 -7 l 179 57 l 246 -7 l 179 -72 l 115 -7 z "},"ड़":{"ha":731,"x_min":-74,"x_max":801,"o":"m 375 94 q 542 148 476 94 q 608 274 608 201 q 584 342 608 313 q 511 371 560 371 q 418 342 490 371 q 306 314 346 314 q 179 381 240 314 q 118 529 118 449 q 165 656 118 610 q 292 701 211 701 l 518 701 l 518 871 l -28 871 l -74 938 l 758 938 l 801 871 l 596 871 l 596 629 l 313 629 q 175 503 175 629 q 206 416 175 453 q 274 379 236 379 q 388 408 311 379 q 494 438 465 438 q 615 373 564 438 q 665 235 665 308 q 594 97 665 161 q 404 32 524 32 q 226 90 314 32 q 72 243 138 147 l 107 274 q 233 143 161 192 q 375 94 304 94 m 363 -149 l 426 -85 l 493 -149 l 426 -214 l 363 -149 z "},"ढ़":{"ha":728,"x_min":-72,"x_max":800,"o":"m 568 871 l 568 615 l 390 615 q 146 400 146 615 q 222 231 146 301 q 404 158 299 160 q 366 217 385 178 q 347 312 347 256 q 389 415 347 368 q 500 461 431 461 q 624 410 569 461 q 678 280 678 358 q 603 149 678 201 q 440 97 528 97 q 188 200 296 97 q 81 449 81 303 q 145 617 81 550 q 332 685 210 685 l 490 685 l 490 871 l -28 871 l -72 938 l 756 938 l 800 871 l 568 871 m 520 403 q 496 403 520 403 q 441 366 472 403 q 410 269 410 329 q 453 161 410 208 q 569 211 521 172 q 617 314 617 250 q 592 378 617 354 q 520 403 568 403 m 385 -99 l 449 -35 l 515 -99 l 449 -164 l 385 -99 z "},"फ़":{"ha":1129,"x_min":-72,"x_max":1201,"o":"m 522 401 q 364 333 449 333 q 197 422 279 333 q 115 617 115 511 l 115 871 l -28 871 l -72 938 l 1157 938 l 1201 871 l 597 871 l 593 569 q 774 654 668 654 q 965 564 879 654 q 1051 373 1051 474 q 987 217 1051 272 q 826 161 922 161 q 763 168 797 161 l 739 235 q 813 226 776 226 q 940 269 892 226 q 989 390 989 311 q 939 527 989 468 q 814 586 889 586 q 597 453 667 586 l 597 0 l 517 57 l 522 401 m 332 403 q 521 507 439 403 l 521 871 l 193 871 l 193 568 q 232 451 193 499 q 332 403 271 403 m 193 61 l 257 125 l 324 61 l 257 -4 l 193 61 z "},"य़":{"ha":838,"x_min":-72,"x_max":910,"o":"m 699 871 l 699 0 l 621 61 l 622 369 q 404 244 519 244 q 190 338 289 244 q 90 524 90 431 q 115 557 90 544 q 324 732 324 661 q 294 805 324 767 q 214 871 264 843 l -28 871 l -72 938 l 865 938 l 910 871 l 699 871 m 169 467 q 235 358 169 407 q 378 310 301 310 q 520 361 454 310 q 621 481 586 413 l 621 871 l 289 871 q 368 789 343 836 q 393 713 393 742 q 384 664 393 683 q 352 625 375 644 q 315 595 329 606 q 265 563 301 585 q 224 537 229 540 q 210 527 219 533 q 199 519 201 521 q 188 510 196 517 q 178 497 181 503 q 169 467 169 481 m 128 56 l 192 119 l 258 56 l 192 -10 l 128 56 z "},"ॠ":{"ha":1142,"x_min":-72,"x_max":1207,"o":"m 882 496 q 760 471 833 471 q 638 494 688 471 l 638 0 l 560 57 l 560 450 l 214 165 l 157 211 l 526 503 q 381 643 446 613 q 311 658 347 658 q 108 585 213 658 l 61 643 q 274 718 158 718 q 560 531 414 718 l 560 871 l -28 871 l -72 938 l 1163 938 l 1207 871 l 638 871 l 638 536 q 722 524 663 524 q 840 551 782 524 q 808 633 808 597 q 833 691 808 669 q 895 713 858 713 q 965 672 932 713 q 997 592 997 632 q 925 515 997 553 q 956 481 928 511 q 1013 416 985 450 q 1066 328 1042 382 q 1090 221 1090 275 q 1038 122 1090 167 q 922 78 985 78 q 726 161 814 78 l 758 193 q 881 140 811 140 q 986 170 950 140 q 1022 254 1022 200 q 1008 321 1022 293 q 987 363 994 349 q 962 399 979 378 q 937 431 944 421 q 908 465 929 440 q 882 496 888 489 z "},"ॡ":{"ha":1000,"x_min":-72,"x_max":1075,"o":"m 708 -293 q 708 -312 708 -293 q 742 -353 708 -332 q 817 -374 775 -374 q 1011 -290 911 -374 l 1064 -336 q 967 -401 1032 -369 q 849 -433 901 -433 q 709 -385 769 -433 q 649 -256 649 -336 q 704 -167 649 -208 q 613 -106 647 -149 q 578 -3 578 -64 q 608 67 578 33 q 672 119 639 100 q 744 154 706 138 q 783 172 782 171 l 783 561 q 679 579 732 579 q 559 526 596 579 q 522 406 522 474 q 536 257 522 338 l 469 275 q 447 410 447 339 q 468 528 447 481 q 337 583 413 583 q 213 532 261 583 q 165 394 165 481 q 400 29 165 231 l 358 0 q 96 431 96 225 q 160 587 96 524 q 317 650 225 650 q 416 626 368 650 q 492 569 464 601 q 633 646 544 646 q 783 607 722 646 l 783 871 l -28 871 l -72 938 l 1031 938 l 1075 871 l 861 871 l 861 111 q 709 57 781 96 q 638 -31 638 18 q 671 -100 638 -79 q 739 -121 704 -121 q 817 -108 774 -121 l 865 -89 l 926 -133 l 926 -137 q 898 -148 924 -139 q 858 -162 872 -157 q 818 -180 844 -168 q 776 -202 792 -192 q 742 -226 760 -212 q 708 -293 708 -254 z "},"।":{"ha":415,"x_min":168,"x_max":246,"o":"m 246 839 l 246 10 l 168 72 l 168 903 l 246 839 z "},"॥":{"ha":722,"x_min":168,"x_max":553,"o":"m 246 838 l 246 10 l 168 71 l 168 903 l 246 838 m 553 838 l 553 10 l 475 71 l 475 903 l 553 838 z "},"०":{"ha":914,"x_min":168,"x_max":725,"o":"m 450 857 q 226 438 226 857 q 251 260 226 347 q 328 111 276 172 q 444 50 381 50 q 603 164 538 50 q 669 465 669 278 q 612 754 669 651 q 450 857 554 857 m 725 444 q 645 119 725 239 q 461 0 565 0 q 275 92 363 0 q 198 242 228 140 q 168 477 168 344 q 194 701 168 610 q 264 836 221 792 q 432 922 343 922 q 642 810 558 922 q 725 444 725 697 z "},"१":{"ha":649,"x_min":115,"x_max":571,"o":"m 475 -12 q 524 -107 524 -56 q 468 -211 524 -158 l 406 -161 q 446 -87 446 -125 q 378 15 446 -50 l 167 221 q 142 274 142 246 q 194 342 142 303 q 443 539 388 471 q 503 678 503 611 q 459 797 503 744 q 343 850 415 850 q 229 810 271 850 q 188 713 188 771 q 296 546 188 619 l 261 511 q 163 603 210 540 q 115 742 115 667 q 178 869 115 817 q 311 921 242 921 q 495 833 419 921 q 571 635 571 744 q 490 483 571 565 q 263 297 408 401 q 233 251 233 275 q 263 199 233 226 l 475 -12 z "},"२":{"ha":729,"x_min":64,"x_max":649,"o":"m 354 933 q 561 827 474 933 q 649 590 649 721 q 549 412 649 497 q 350 297 449 326 l 603 -114 l 550 -147 l 303 285 q 249 278 261 278 q 163 316 201 278 q 125 397 125 354 q 153 460 125 440 q 215 481 181 481 q 281 419 247 481 q 292 402 288 408 q 302 383 296 396 q 313 365 308 371 q 508 472 432 397 q 583 626 583 546 q 516 793 583 728 q 336 858 449 858 q 103 781 224 858 l 64 844 q 206 912 142 890 q 354 933 269 933 z "},"३":{"ha":744,"x_min":79,"x_max":642,"o":"m 282 -11 q 147 51 199 13 q 96 131 96 90 q 117 198 96 171 q 168 225 139 225 q 197 217 186 225 q 213 205 207 210 q 227 190 219 200 q 241 172 235 179 q 256 149 247 164 q 272 125 265 135 q 289 97 278 115 q 307 67 300 78 q 493 140 411 78 q 575 299 575 201 q 535 409 575 351 q 474 471 494 467 q 289 389 418 433 l 253 449 l 254 454 q 469 558 399 496 q 540 691 540 621 q 490 810 540 761 q 370 858 440 858 q 236 828 300 858 q 131 751 172 799 l 79 803 q 199 888 128 856 q 342 919 269 919 q 526 836 453 919 q 600 660 600 753 q 585 599 600 631 q 558 553 571 568 q 518 506 546 538 q 602 400 563 467 q 642 263 642 333 q 552 90 642 167 q 339 -6 463 14 l 493 -228 l 438 -265 l 282 -11 z "},"४":{"ha":863,"x_min":42,"x_max":754,"o":"m 636 182 q 588 61 636 114 q 444 8 540 8 q 267 86 349 8 q 186 251 186 164 q 201 317 186 290 q 254 388 217 344 l 365 515 l 42 904 l 82 933 l 399 553 l 700 933 l 754 892 l 456 507 l 543 399 q 636 182 636 285 m 300 322 q 260 206 260 275 q 274 152 260 185 q 328 94 289 119 q 426 69 367 69 q 526 106 486 69 q 567 210 567 142 q 422 468 567 324 l 300 322 z "},"५":{"ha":861,"x_min":156,"x_max":690,"o":"m 615 102 q 600 80 615 102 q 538 35 586 57 q 442 13 490 13 q 365 22 394 13 l 521 -207 l 475 -242 l 313 32 q 197 106 239 63 q 156 181 156 149 q 175 237 156 214 q 217 260 194 260 q 253 249 239 260 q 282 216 268 238 q 306 178 296 194 q 328 135 315 161 q 346 101 342 108 q 422 81 375 81 q 507 103 468 81 q 568 161 546 126 q 618 436 618 242 q 618 481 618 457 q 541 431 588 453 q 453 408 494 408 q 262 497 350 408 q 174 713 174 586 q 236 933 174 807 l 297 893 q 235 697 235 786 q 285 541 235 608 q 421 474 336 474 q 527 500 476 474 q 610 569 578 526 q 563 922 589 783 l 640 885 q 653 806 643 865 q 690 451 690 561 q 667 206 690 264 q 615 102 643 147 z "},"६":{"ha":831,"x_min":131,"x_max":789,"o":"m 592 478 q 451 490 524 490 q 319 458 378 490 q 228 293 228 407 q 294 149 228 217 q 441 82 360 82 q 560 114 522 82 q 525 215 525 178 q 546 274 525 251 q 606 297 567 297 q 679 256 644 297 q 714 172 714 214 q 649 74 714 131 l 789 -146 l 732 -185 l 601 50 q 488 19 550 19 q 259 119 363 19 q 156 327 156 218 q 253 508 156 436 q 131 732 131 603 q 256 911 131 861 q 386 935 311 935 q 560 900 461 935 l 579 833 l 575 829 q 407 864 472 864 q 301 847 342 864 q 201 705 201 808 q 297 532 201 601 q 440 554 371 554 q 569 542 508 554 l 596 483 l 592 478 z "},"७":{"ha":1111,"x_min":88,"x_max":1008,"o":"m 483 599 q 549 747 483 688 q 689 806 614 806 q 914 690 819 806 q 1008 432 1008 575 q 919 181 1008 304 q 813 85 879 122 q 672 47 747 47 q 459 103 556 47 q 300 247 363 160 q 192 453 238 335 q 88 911 108 663 l 135 933 q 276 381 160 619 q 426 188 335 260 q 628 117 517 117 q 773 150 710 117 q 871 236 836 183 q 940 460 940 344 q 883 656 940 576 q 719 736 825 736 q 599 688 646 736 q 551 554 551 640 q 633 418 551 468 q 796 368 715 368 q 804 368 800 368 l 806 367 l 779 326 q 567 408 651 335 q 483 599 483 482 z "},"८":{"ha":763,"x_min":94,"x_max":682,"o":"m 406 3 q 192 98 290 3 q 94 278 94 193 q 158 449 94 363 l 508 933 l 567 890 l 213 383 q 171 256 171 324 q 233 128 171 189 q 385 68 294 68 q 535 134 475 68 q 622 304 596 200 l 628 306 l 682 265 q 568 64 629 121 q 499 22 542 40 q 406 3 456 3 z "},"९":{"ha":671,"x_min":72,"x_max":606,"o":"m 144 472 q 72 676 72 572 q 147 849 72 779 q 326 919 221 919 q 519 835 432 919 q 606 661 606 751 q 512 472 606 549 q 289 367 418 396 l 556 -17 q 585 -101 585 -60 q 492 -218 585 -169 l 439 -178 q 522 -82 522 -131 q 490 -7 522 -53 q 457 40 458 39 l 144 472 m 539 692 q 487 801 539 754 q 348 849 435 849 q 201 790 261 849 q 140 646 140 731 q 247 428 140 535 q 442 508 360 454 q 539 692 539 575 z "},"॰":{"ha":707,"x_min":160,"x_max":549,"o":"m 366 587 q 411 587 366 587 q 503 542 457 588 q 549 417 549 496 q 492 278 549 339 q 343 214 436 218 q 211 260 263 214 q 160 387 160 306 q 217 527 160 468 q 366 587 275 586 m 314 254 q 451 313 400 254 q 503 446 503 371 q 474 519 503 490 q 386 547 446 547 q 267 501 326 547 q 208 368 208 454 q 235 287 208 319 q 314 254 263 254 z "},"ॽ":{"ha":853,"x_min":239,"x_max":713,"o":"m 467 -11 l 461 -11 l 400 40 l 400 376 q 439 495 400 433 q 524 602 478 557 q 610 703 571 647 q 649 805 649 758 q 607 888 649 851 q 489 924 565 924 q 299 810 368 924 l 239 865 q 330 950 274 914 q 456 986 386 986 q 636 918 560 986 q 713 763 713 850 q 625 606 713 696 q 553 525 589 568 q 467 297 467 422 l 467 -11 z "},"​":{"ha":0,"x_min":0,"x_max":0,"o":""},"‌":{"ha":0,"x_min":-32,"x_max":33,"o":"m 33 -319 l -32 -319 l -32 1126 l 33 1126 l 33 -319 z "},"‍":{"ha":0,"x_min":-176,"x_max":179,"o":"m 33 -319 l -32 -319 l -32 882 l -128 781 l -174 826 l -44 956 l -176 1088 l -131 1133 l 1 1001 l 135 1133 l 179 1089 l 46 956 l 179 824 l 133 778 l 33 882 l 33 -319 z "},"–":{"ha":758,"x_min":78,"x_max":758,"o":"m 758 499 l 108 499 l 78 561 l 78 565 l 726 565 l 758 503 l 758 499 z "},"—":{"ha":928,"x_min":78,"x_max":815,"o":"m 815 499 l 108 499 l 78 561 l 78 565 l 783 565 l 815 503 l 815 499 z "},"‘":{"ha":279,"x_min":85,"x_max":224,"o":"m 128 1192 q 169 1256 142 1214 l 211 1236 q 197 1213 208 1231 q 181 1188 186 1196 q 168 1163 176 1179 q 143 1068 143 1113 q 224 949 143 989 l 224 944 l 193 890 q 110 959 135 915 q 85 1060 85 1003 q 128 1192 85 1118 z "},"’":{"ha":278,"x_min":56,"x_max":194,"o":"m 194 1100 q 150 954 194 1029 q 110 890 138 932 l 68 910 q 81 929 71 913 q 94 951 90 946 q 105 972 97 957 q 117 996 113 986 q 136 1078 136 1042 q 56 1196 136 1156 l 56 1201 l 86 1256 q 194 1100 194 1207 z "},"‚":{"ha":279,"x_min":56,"x_max":194,"o":"m 150 -47 q 110 -110 136 -71 l 68 -90 q 81 -71 71 -87 q 94 -49 90 -54 q 105 -28 97 -43 q 117 -4 113 -14 q 136 78 136 42 q 56 196 136 156 l 56 200 l 86 254 q 169 186 144 229 q 194 83 194 143 q 150 -47 194 24 z "},"“":{"ha":454,"x_min":83,"x_max":399,"o":"m 83 1043 q 83 1064 83 1043 q 99 1126 83 1085 q 128 1190 115 1168 q 169 1254 142 1213 l 211 1235 q 143 1058 143 1128 q 224 947 143 989 l 224 943 l 193 889 q 109 958 135 915 q 83 1043 83 1001 m 260 1044 q 303 1190 260 1115 q 344 1254 317 1213 l 386 1235 q 374 1215 385 1232 q 361 1193 364 1199 q 350 1173 358 1188 q 338 1149 342 1158 q 331 1125 335 1139 q 319 1063 319 1094 q 399 947 319 989 l 399 943 l 368 889 q 260 1044 260 938 z "},"”":{"ha":454,"x_min":56,"x_max":371,"o":"m 371 1100 q 371 1079 371 1100 q 355 1017 371 1058 q 326 953 339 975 q 285 889 313 931 l 243 908 q 253 924 244 911 q 263 940 261 936 q 272 956 265 944 q 282 974 279 968 q 290 992 285 981 q 299 1010 296 1003 q 304 1029 301 1018 q 311 1081 311 1058 q 231 1196 311 1156 l 231 1200 l 261 1254 q 345 1185 319 1229 q 371 1100 371 1142 m 150 953 q 110 889 138 931 l 68 908 q 82 931 71 914 q 98 957 93 949 q 111 982 103 965 q 136 1076 136 1032 q 56 1196 136 1154 l 56 1200 l 86 1254 q 169 1185 144 1229 q 194 1084 194 1142 q 150 953 194 1026 z "},"„":{"ha":454,"x_min":56,"x_max":371,"o":"m 371 100 q 371 79 371 100 q 355 17 371 58 q 326 -47 339 -25 q 285 -111 313 -69 l 243 -92 q 253 -76 244 -89 q 263 -60 261 -64 q 272 -44 265 -56 q 282 -26 279 -32 q 290 -8 285 -19 q 299 10 296 3 q 304 29 301 18 q 311 81 311 58 q 231 196 311 156 l 231 200 l 261 254 q 345 185 319 229 q 371 100 371 142 m 150 -47 q 110 -111 138 -69 l 68 -92 q 82 -69 71 -86 q 98 -43 93 -51 q 111 -18 103 -35 q 136 76 136 32 q 56 196 136 154 l 56 200 l 86 254 q 169 185 144 229 q 194 84 194 142 q 150 -47 194 26 z "},"†":{"ha":807,"x_min":78,"x_max":731,"o":"m 731 778 l 436 778 l 436 6 l 432 6 l 369 54 l 369 778 l 108 778 l 78 840 l 78 844 l 369 844 l 369 1158 l 374 1158 l 436 1108 l 436 844 l 699 844 l 731 782 l 731 778 z "},"‡":{"ha":807,"x_min":78,"x_max":731,"o":"m 731 847 l 436 847 l 436 382 l 699 382 l 731 319 l 731 315 l 436 315 l 436 75 l 432 75 l 369 124 l 369 315 l 108 315 l 78 378 l 78 382 l 369 382 l 369 847 l 108 847 l 78 910 l 78 914 l 369 914 l 369 1228 l 374 1228 l 436 1178 l 436 914 l 699 914 l 731 851 l 731 847 z "},"•":{"ha":415,"x_min":136,"x_max":281,"o":"m 281 532 q 281 517 281 532 q 259 481 281 501 q 207 461 238 461 q 156 481 176 461 q 136 532 136 501 q 156 584 136 563 q 207 606 176 606 q 259 584 238 606 q 281 532 281 563 z "},"…":{"ha":831,"x_min":150,"x_max":674,"o":"m 258 122 q 258 110 258 122 q 242 83 258 99 q 203 68 226 68 q 165 83 181 68 q 150 122 150 99 q 165 161 150 146 q 203 176 181 176 q 242 161 226 176 q 258 122 258 146 m 471 122 q 471 110 471 122 q 455 83 471 99 q 416 68 439 68 q 378 83 393 68 q 363 122 363 99 q 378 161 363 146 q 416 176 393 176 q 455 161 439 176 q 471 122 471 146 m 658 84 q 650 76 658 84 q 619 68 642 68 q 582 83 597 68 q 567 122 567 99 q 582 161 567 146 q 619 176 597 176 q 658 160 642 176 q 674 122 674 144 q 658 84 674 100 z "},"‰":{"ha":1590,"x_min":144,"x_max":1449,"o":"m 360 69 l 283 69 l 811 986 l 886 986 l 360 69 m 210 761 q 239 622 210 675 q 317 569 268 569 q 394 620 365 569 q 424 761 424 671 q 315 946 424 946 q 210 761 210 946 m 144 763 q 144 812 144 763 q 188 929 144 861 q 316 997 231 997 q 445 928 401 997 q 489 758 489 860 q 447 588 489 657 q 319 518 404 518 q 190 591 235 518 q 144 763 144 664 m 753 297 q 782 159 753 211 q 860 107 811 107 q 938 158 908 107 q 967 297 967 208 q 858 483 967 483 q 753 297 753 483 m 688 300 q 688 349 688 300 q 731 467 688 399 q 859 535 774 535 q 988 466 944 535 q 1032 296 1032 397 q 990 125 1032 194 q 863 56 947 56 q 733 128 778 56 q 688 300 688 201 m 1169 297 q 1199 160 1169 213 q 1277 107 1228 107 q 1355 157 1326 107 q 1383 297 1383 207 q 1276 483 1383 483 q 1169 297 1169 483 m 1104 300 q 1104 349 1104 300 q 1148 467 1104 399 q 1277 535 1192 535 q 1406 466 1363 535 q 1449 296 1449 397 q 1406 125 1449 194 q 1280 56 1364 56 q 1150 128 1196 56 q 1104 300 1104 201 z "},"‹":{"ha":485,"x_min":107,"x_max":360,"o":"m 107 529 l 322 772 l 360 753 l 183 529 l 360 306 l 322 285 l 107 529 z "},"›":{"ha":485,"x_min":122,"x_max":375,"o":"m 160 842 l 375 599 l 160 354 l 122 375 l 299 599 l 122 822 l 160 842 z "},"⁄":{"ha":671,"x_min":14,"x_max":650,"o":"m 599 961 l 650 961 l 64 17 l 14 17 l 599 961 z "},"€":{"ha":729,"x_min":42,"x_max":692,"o":"m 221 378 q 306 181 240 253 q 475 108 372 108 q 676 179 578 108 l 692 163 q 469 53 596 53 q 256 140 342 53 q 147 378 171 228 l 42 378 q 50 419 42 399 l 142 419 q 139 483 139 461 q 142 544 139 506 l 42 544 q 50 586 42 565 l 146 586 q 254 830 168 739 q 468 921 340 921 q 692 811 596 921 l 676 794 q 474 865 578 865 q 305 790 371 865 q 219 586 239 715 l 532 586 q 524 544 532 565 l 215 544 q 213 483 213 506 q 215 419 213 461 l 532 419 q 524 378 532 399 l 221 378 z "},"₹":{"ha":707,"x_min":96,"x_max":689,"o":"m 483 871 l 483 682 l 649 682 l 689 607 l 483 607 l 483 515 q 413 382 483 432 q 250 332 343 332 q 203 336 225 332 q 333 171 231 294 q 524 -51 436 47 l 468 -82 q 96 399 197 246 l 150 447 q 258 403 194 403 q 363 438 321 403 q 404 538 404 474 l 404 607 l 97 607 l 97 682 l 404 682 l 404 871 l 96 871 l 96 938 l 649 938 l 689 871 l 483 871 z "},"™":{"ha":1049,"x_min":38,"x_max":993,"o":"m 394 904 q 396 862 396 886 q 393 806 396 838 q 371 803 379 803 q 355 860 368 844 q 306 875 342 875 l 240 875 l 240 471 q 317 457 275 460 q 314 432 317 439 l 115 432 q 118 457 115 450 q 181 466 167 460 q 194 488 194 472 l 194 875 l 128 875 q 78 860 92 875 q 63 807 65 846 q 40 806 51 803 q 38 862 38 838 q 39 904 38 886 l 394 904 m 992 457 q 993 444 993 450 q 992 432 993 438 l 849 432 q 849 457 843 446 q 886 465 878 460 q 893 488 894 471 l 865 835 l 706 432 l 686 432 l 533 843 l 501 468 q 561 457 525 460 q 556 432 561 446 l 408 432 q 413 457 408 450 q 471 493 469 463 l 503 871 q 454 879 482 876 q 453 893 453 885 q 454 904 453 901 l 554 904 l 700 508 l 857 904 l 949 904 q 958 879 958 892 q 916 872 926 879 q 907 846 906 864 l 940 468 q 992 457 958 460 z "},"−":{"ha":797,"x_min":78,"x_max":731,"o":"m 731 499 l 108 499 l 78 561 l 78 565 l 699 565 l 731 503 l 731 499 z "},"◌":{"ha":917,"x_min":61,"x_max":856,"o":"m 254 656 q 241 656 254 656 q 210 673 228 656 q 193 717 193 690 q 210 762 193 744 q 254 779 228 779 q 298 762 281 779 q 315 717 315 744 q 298 673 315 690 q 254 656 281 656 m 97 522 q 88 530 97 522 q 79 565 79 539 q 97 609 79 592 q 142 626 115 626 q 186 609 168 626 q 204 565 204 592 q 186 522 204 539 q 142 504 168 504 q 97 522 115 504 m 78 347 q 70 356 78 347 q 61 390 61 364 q 78 435 61 417 q 122 453 96 453 q 166 435 149 453 q 183 391 183 418 q 166 347 183 364 q 122 331 149 331 q 78 347 96 331 m 150 185 q 142 194 150 185 q 133 229 133 203 q 151 273 133 256 q 194 290 168 290 q 238 273 221 290 q 256 229 256 256 q 238 185 256 203 q 194 168 221 168 q 150 185 167 168 m 336 61 q 323 61 336 61 q 292 79 310 61 q 274 124 274 97 q 292 168 274 150 q 336 186 310 186 q 380 168 363 186 q 397 124 397 150 q 380 79 397 97 q 336 61 363 61 m 467 58 q 458 67 467 58 q 450 103 450 75 q 467 147 450 131 q 511 164 483 164 q 556 147 539 164 q 574 103 574 129 q 556 59 574 76 q 511 42 539 42 q 467 58 483 42 m 635 133 q 627 141 635 133 q 618 176 618 150 q 635 220 618 203 q 679 238 653 238 q 724 220 706 238 q 742 176 742 203 q 724 133 742 150 q 679 115 706 115 q 635 133 653 115 m 738 269 q 728 277 738 269 q 719 313 719 286 q 738 357 719 339 q 781 375 756 375 q 824 357 807 375 q 842 313 842 339 q 824 269 842 286 q 781 251 807 251 q 738 269 756 251 m 750 455 q 742 464 750 455 q 733 499 733 472 q 750 542 733 525 q 794 560 767 560 q 838 542 821 560 q 856 499 856 525 q 838 455 856 472 q 794 438 821 438 q 750 455 767 438 m 681 619 q 673 627 681 619 q 664 663 664 636 q 681 707 664 689 q 725 725 699 725 q 769 708 751 725 q 786 663 786 690 q 769 619 786 636 q 725 601 751 601 q 681 619 699 601 m 594 696 q 581 696 594 696 q 550 714 568 696 q 532 758 532 732 q 549 801 532 783 q 594 819 567 819 q 638 802 621 819 q 654 758 654 785 q 637 714 654 732 q 594 696 619 696 m 374 733 q 366 742 374 733 q 357 778 357 750 q 374 822 357 806 q 418 839 392 839 q 462 822 444 839 q 479 778 479 806 q 462 733 479 750 q 418 717 444 717 q 374 733 392 717 z "},"ﬁ":{"ha":750,"x_min":38,"x_max":697,"o":"m 42 651 l 43 669 q 135 690 86 683 l 135 789 q 201 990 135 926 q 357 1054 267 1054 q 530 1001 447 1054 q 613 896 613 949 q 601 863 613 876 q 571 850 589 850 q 529 874 553 850 q 484 928 506 899 q 426 983 463 958 q 346 1007 389 1007 q 238 967 272 1007 q 204 833 204 928 l 204 690 q 599 707 513 690 l 599 125 q 697 101 643 106 q 693 69 697 82 l 433 69 q 436 101 431 86 q 508 120 489 107 q 528 165 528 133 l 528 646 l 204 646 l 204 125 q 303 101 249 106 q 299 69 303 82 l 39 69 q 38 83 38 75 q 42 101 38 92 q 115 122 96 108 q 135 167 135 135 l 135 646 q 42 651 94 651 z "},"ﬂ":{"ha":713,"x_min":39,"x_max":661,"o":"m 40 651 l 42 669 q 133 690 86 683 l 133 789 q 199 991 133 928 q 369 1054 265 1054 q 563 1029 474 1054 l 563 125 q 661 101 606 106 q 657 69 661 82 l 399 69 q 400 101 397 82 q 474 120 454 107 q 493 165 493 133 l 493 985 q 350 1007 431 1007 q 236 968 269 1007 q 203 833 203 929 l 203 690 q 407 697 326 690 q 396 646 407 669 l 203 646 l 203 125 q 301 101 246 106 q 297 69 301 82 l 39 69 q 39 81 39 74 q 40 101 39 89 q 114 120 94 107 q 133 165 133 133 l 133 646 q 40 651 93 651 z "}," ":{"ha":347,"x_min":0,"x_max":0,"o":""}}}
